<svg width="272" height="100" viewBox="0 0 272 100" fill="none" xmlns="http://www.w3.org/2000/svg">
<path d="M30.24 19.7C31.04 19.9 31.8 20.36 32.52 21.08C33.28 21.8 33.64 22.5 33.6 23.18C34.08 23.46 34.5 23.96 34.86 24.68C35.22 25.36 35.4 26.02 35.4 26.66C35.4 27.14 35.28 27.54 35.04 27.86C35.2 28.34 35.28 28.9 35.28 29.54C35.28 30.18 35.18 30.8 34.98 31.4C35.26 31.96 35.4 32.64 35.4 33.44C35.4 34.2 35.24 34.9 34.92 35.54C34.64 36.18 34.22 36.62 33.66 36.86C33.62 37.26 33.46 37.72 33.18 38.24C32.9 38.76 32.64 39.14 32.4 39.38L32.46 39.92C32.46 40.64 32.24 41.2 31.8 41.6C31.44 41.96 31.14 42.18 30.9 42.26C30.94 42.66 30.8 43.02 30.48 43.34C30.16 43.62 29.74 43.84 29.22 44C29.14 44.48 28.98 44.84 28.74 45.08C28.5 45.32 28.12 45.52 27.6 45.68C27.48 46.08 27.24 46.44 26.88 46.76C26.56 47.04 26.18 47.22 25.74 47.3C25.5 47.94 25.2 48.38 24.84 48.62C24.52 48.82 24.02 48.92 23.34 48.92C23.22 50.24 22.38 51.18 20.82 51.74C20.58 52.14 20.28 52.42 19.92 52.58C19.6 52.74 19.24 52.86 18.84 52.94C18.48 53.02 18.22 53.08 18.06 53.12C17.54 53.56 16.86 53.98 16.02 54.38C15.18 54.74 14.36 54.92 13.56 54.92C13.16 54.92 12.78 54.86 12.42 54.74C12.18 55.1 11.8 55.4 11.28 55.64C10.8 55.88 10.3 56 9.78 56C9.26 56 8.8 55.86 8.4 55.58C6.92 55.58 6.18 54.72 6.18 53C6.18 52.72 6.22 52.3 6.3 51.74C5.66 51.18 5.34 50.52 5.34 49.76C5.34 49.24 5.48 48.78 5.76 48.38C5.56 47.9 5.46 47.54 5.46 47.3C5.46 47.02 5.6 46.64 5.88 46.16C5.36 45.24 5.1 44.2 5.1 43.04C5.1 42.04 5.32 41.22 5.76 40.58C5.36 39.74 5.16 38.8 5.16 37.76C5.16 36.52 5.44 35.34 6 34.22C5.76 33.82 5.54 33.3 5.34 32.66C5.18 31.98 5.1 31.32 5.1 30.68C5.1 29.68 5.32 28.9 5.76 28.34C5.48 27.98 5.24 27.5 5.04 26.9C4.88 26.3 4.8 25.7 4.8 25.1C4.8 24.3 4.96 23.68 5.28 23.24C5.24 23.12 5.22 22.94 5.22 22.7C5.22 22.22 5.32 21.82 5.52 21.5C5.24 20.9 5.14 20.06 5.22 18.98C4.46 18.5 4.08 17.82 4.08 16.94C4.08 16.5 4.2 16.08 4.44 15.68C4.68 15.28 5.02 14.98 5.46 14.78C5.62 14.38 5.9 14.06 6.3 13.82C6.7 13.58 7.12 13.46 7.56 13.46C8.12 13.46 8.62 13.62 9.06 13.94C9.34 13.54 9.96 13.34 10.92 13.34C11.44 13.34 11.86 13.4 12.18 13.52C12.54 13.64 12.74 13.8 12.78 14C13.58 13.8 14.36 13.7 15.12 13.7C16.16 13.7 17 13.86 17.64 14.18C18 13.94 18.42 13.82 18.9 13.82C19.66 13.82 20.24 14.06 20.64 14.54C20.96 14.46 21.22 14.42 21.42 14.42C22.06 14.42 22.66 14.62 23.22 15.02C23.82 15.42 24.2 15.92 24.36 16.52C24.76 16.32 25.14 16.22 25.5 16.22C26.02 16.22 26.5 16.36 26.94 16.64C27.42 16.92 27.78 17.24 28.02 17.6C28.54 17.6 29 17.8 29.4 18.2C29.84 18.56 30.12 19.06 30.24 19.7ZM13.86 49.64C14.1 49.28 14.54 49 15.18 48.8C15.86 48.6 16.5 48.5 17.1 48.5C17.62 47.74 18.22 47.36 18.9 47.36C18.9 46.8 19.12 46.36 19.56 46.04C20.04 45.68 20.68 45.34 21.48 45.02C21.56 44.38 21.84 43.8 22.32 43.28C22.84 42.76 23.38 42.52 23.94 42.56C24.26 42.12 24.68 41.8 25.2 41.6C25.48 40.88 25.92 40.38 26.52 40.1C26.64 39.34 27.02 38.78 27.66 38.42C27.74 37.9 27.9 37.4 28.14 36.92C28.38 36.4 28.64 36.06 28.92 35.9C29 35.18 29.16 34.48 29.4 33.8C29.64 33.08 29.96 32.66 30.36 32.54C30.24 32.22 30.18 31.9 30.18 31.58C30.18 31.38 30.22 31.08 30.3 30.68C30.02 30.28 29.88 29.4 29.88 28.04C29.88 27.32 29.94 26.78 30.06 26.42C30.02 26.34 29.88 26.18 29.64 25.94C29.44 25.7 29.34 25.44 29.34 25.16C29.06 25.08 28.84 24.92 28.68 24.68C28.52 24.44 28.4 24.28 28.32 24.2C27.72 24.2 27.2 23.98 26.76 23.54C26.32 23.1 26.06 22.56 25.98 21.92C25.66 21.96 25.26 21.9 24.78 21.74C24.34 21.54 24 21.28 23.76 20.96C23.28 21.08 22.66 21 21.9 20.72C21.18 20.4 20.74 19.92 20.58 19.28C20.46 19.32 20.24 19.34 19.92 19.34C19.36 19.34 18.88 19.2 18.48 18.92C18.12 19.08 17.7 19.16 17.22 19.16C16.42 19.16 15.66 18.94 14.94 18.5C14.26 18.78 13.56 18.92 12.84 18.92C12.04 18.92 11.36 18.72 10.8 18.32C10.56 18.44 10.28 18.5 9.96 18.5C9.92 18.5 9.9 18.52 9.9 18.56C10.06 18.72 10.18 19.06 10.26 19.58C10.38 20.06 10.44 20.62 10.44 21.26C10.44 22.86 10.24 23.88 9.84 24.32C10.04 24.64 10.22 25.24 10.38 26.12C10.54 26.96 10.62 27.82 10.62 28.7C10.62 29.9 10.48 30.78 10.2 31.34C10.48 31.86 10.62 32.58 10.62 33.5C10.62 34.66 10.38 35.58 9.9 36.26C10.18 37.06 10.36 38.16 10.44 39.56L10.56 40.94C10.6 41.3 10.58 41.74 10.5 42.26C10.42 42.78 10.38 43.24 10.38 43.64C10.38 44.04 10.44 44.46 10.56 44.9C10.64 45.46 10.68 45.88 10.68 46.16C10.68 46.52 10.62 46.86 10.5 47.18C10.66 47.38 10.82 47.72 10.98 48.2C11.14 48.68 11.16 49.08 11.04 49.4C11.48 49.16 11.92 49.04 12.36 49.04C13.04 49.04 13.54 49.24 13.86 49.64Z" fill="#3EAD17"/>
<path d="M63.1172 32.54C63.5572 32.74 63.9572 33.22 64.3172 33.98C64.7172 34.74 64.9172 35.52 64.9172 36.32C64.9172 37.68 64.3172 38.6 63.1172 39.08C62.7972 39.64 62.3572 40.08 61.7972 40.4C61.2772 40.72 60.6972 40.88 60.0572 40.88C59.5372 40.88 58.9972 40.76 58.4372 40.52C58.1172 40.72 57.6772 40.9 57.1172 41.06C56.5572 41.22 55.9972 41.3 55.4372 41.3C54.4772 41.3 53.8172 41.1 53.4572 40.7C53.0572 41.02 52.4172 41.18 51.5372 41.18C50.8972 41.18 50.3172 41.06 49.7972 40.82C49.2372 41.1 48.5972 41.24 47.8772 41.24C47.1972 41.24 46.6372 41.14 46.1972 40.94C45.7972 41.3 44.9772 41.48 43.7372 41.48C43.0572 41.48 42.5972 41.42 42.3572 41.3C42.4772 42.46 42.3172 43.32 41.8772 43.88C42.6372 44.64 42.9372 45.46 42.7772 46.34C42.8172 46.38 43.0372 46.54 43.4372 46.82C43.8372 47.1 44.1172 47.56 44.2772 48.2C44.7172 48.2 45.1172 48.38 45.4772 48.74C45.8772 49.1 46.1172 49.46 46.1972 49.82C46.3572 49.66 46.6772 49.58 47.1572 49.58C47.5172 49.58 47.8372 49.64 48.1172 49.76C48.3972 49.88 48.5572 50.02 48.5972 50.18C48.8772 50.02 49.1972 49.94 49.5572 49.94C50.0772 49.94 50.5572 50.12 50.9972 50.48C51.3972 50.4 51.6972 50.36 51.8972 50.36C52.2972 50.36 52.6372 50.42 52.9172 50.54C53.0372 50.22 53.3572 49.92 53.8772 49.64C54.3972 49.32 54.9372 49.18 55.4972 49.22C55.8172 48.82 56.2572 48.5 56.8172 48.26C57.3772 48.02 57.9372 47.9 58.4972 47.9C59.5772 47.9 60.3572 48.34 60.8372 49.22C60.9972 49.54 61.0772 49.92 61.0772 50.36C61.0772 51.32 60.6372 52.08 59.7572 52.64C59.5572 52.76 59.2172 52.98 58.7372 53.3C58.2572 53.58 57.8172 53.8 57.4172 53.96C57.0172 54.12 56.6572 54.2 56.3372 54.2C55.7372 54.92 54.9172 55.28 53.8772 55.28C53.3972 55.28 53.0372 55.24 52.7972 55.16C52.3172 55.56 51.6172 55.76 50.6972 55.76C49.8572 55.76 49.2772 55.6 48.9572 55.28C48.6772 55.4 48.3972 55.46 48.1172 55.46C47.5572 55.46 47.0372 55.26 46.5572 54.86C44.5172 54.98 43.1372 54.34 42.4172 52.94C41.8572 52.94 41.2172 52.6 40.4972 51.92C39.8172 51.2 39.4372 50.58 39.3572 50.06C38.4372 49.7 37.8572 49.04 37.6172 48.08C37.5772 47.76 37.5772 47.46 37.6172 47.18C37.4572 47.14 37.3172 46.98 37.1972 46.7C37.1172 46.38 37.0772 46.06 37.0772 45.74C37.0772 45.5 37.0972 45.34 37.1372 45.26C36.8172 44.3 36.6572 43.42 36.6572 42.62C36.6572 41.82 36.8172 41.1 37.1372 40.46C36.8972 40.02 36.7772 39.54 36.7772 39.02C36.7772 38.38 36.9172 37.74 37.1972 37.1C37.4772 36.46 37.7372 36.04 37.9772 35.84C37.8972 35.64 37.9572 35.3 38.1572 34.82C38.3572 34.3 38.6172 33.84 38.9372 33.44C39.2972 33 39.6572 32.74 40.0172 32.66L39.9572 32C39.9572 30.44 40.7972 29.46 42.4772 29.06C42.4772 28.38 42.8772 27.72 43.6772 27.08C44.4772 26.44 45.1772 26.16 45.7772 26.24C45.8572 25.8 46.2372 25.46 46.9172 25.22C47.6372 24.94 48.1772 24.86 48.5372 24.98C48.8572 24.46 49.4972 24.1 50.4572 23.9C50.8172 23.5 51.3372 23.3 52.0172 23.3C52.2172 23.3 52.4772 23.34 52.7972 23.42L53.3372 23.36C53.8172 23.36 54.2172 23.46 54.5372 23.66C54.8972 23.82 55.0572 24.02 55.0172 24.26C55.8972 24.34 56.6372 24.54 57.2372 24.86C57.8372 25.18 58.1972 25.76 58.3172 26.6C58.8372 26.48 59.4972 26.62 60.2972 27.02C61.0972 27.38 61.7772 27.96 62.3372 28.76C62.9372 29.52 63.2372 30.42 63.2372 31.46C63.2372 31.7 63.1972 32.06 63.1172 32.54ZM54.2972 36.44C54.6972 35.88 55.6772 35.6 57.2372 35.6C58.1172 35.6 58.7972 35.68 59.2772 35.84C58.9572 35.68 58.6572 35.34 58.3772 34.82C58.1372 34.26 58.0172 33.74 58.0172 33.26C58.0172 32.94 58.0772 32.7 58.1972 32.54C57.6372 32.58 57.1572 32.44 56.7572 32.12C56.3972 31.76 56.0572 31.36 55.7372 30.92C55.4572 30.48 55.2372 30.16 55.0772 29.96C54.8772 30.08 54.4572 29.98 53.8172 29.66C53.2172 29.3 52.8972 28.94 52.8572 28.58C52.6972 28.78 52.3572 28.96 51.8372 29.12C51.3172 29.24 50.9172 29.28 50.6372 29.24C50.5172 29.44 50.2372 29.64 49.7972 29.84C49.3572 30.04 48.8972 30.1 48.4172 30.02C48.0172 30.78 47.5972 31.4 47.1572 31.88C46.7172 32.36 46.1572 32.72 45.4772 32.96C45.3972 33.52 45.1372 34.14 44.6972 34.82C44.2972 35.5 43.8772 36.02 43.4372 36.38L43.6772 36.44C44.2372 36.04 44.9972 35.84 45.9572 35.84C46.5172 35.84 47.0372 35.9 47.5172 36.02C48.0372 36.14 48.3972 36.28 48.5972 36.44C49.5572 35.84 50.6172 35.54 51.7772 35.54C52.7372 35.54 53.5772 35.84 54.2972 36.44Z" fill="#FA4E28"/>
<path d="M66.907 32.72C66.587 32.2 66.427 31.7 66.427 31.22C66.427 30.5 66.667 29.9 67.147 29.42C67.267 28.82 67.547 28.26 67.987 27.74C68.427 27.18 68.907 26.76 69.427 26.48C69.987 26.16 70.427 26.04 70.747 26.12C71.027 25.68 71.587 25.28 72.427 24.92C73.267 24.52 74.047 24.32 74.767 24.32C74.927 24.32 75.167 24.36 75.487 24.44C75.927 23.96 76.507 23.72 77.227 23.72C77.787 23.72 78.187 23.88 78.427 24.2C78.947 23.84 79.627 23.66 80.467 23.66C81.467 23.66 82.347 23.9 83.107 24.38C83.907 24.86 84.367 25.5 84.487 26.3C85.207 26.54 85.747 26.92 86.107 27.44C86.507 27.92 86.747 28.6 86.827 29.48C87.347 30 87.727 30.62 87.967 31.34C88.207 32.02 88.327 32.72 88.327 33.44C88.327 34.36 88.167 35.1 87.847 35.66C88.127 36.06 88.367 36.66 88.567 37.46C88.767 38.26 88.867 39.04 88.867 39.8C88.867 40.12 88.827 40.52 88.747 41C89.027 41.6 89.167 42 89.167 42.2C89.167 42.32 89.107 42.6 88.987 43.04C89.027 43.2 89.067 43.4 89.107 43.64C89.147 43.84 89.167 44.1 89.167 44.42C89.167 45.02 88.947 45.56 88.507 46.04C88.667 46.48 88.747 47.02 88.747 47.66C88.747 48.5 88.547 49.18 88.147 49.7C88.227 49.86 88.267 50.12 88.267 50.48C88.267 51.32 87.927 52.02 87.247 52.58C87.087 53.14 86.787 53.58 86.347 53.9C85.907 54.18 85.427 54.32 84.907 54.32C84.387 54.32 83.967 54.16 83.647 53.84C82.607 54.28 81.767 54.5 81.127 54.5C80.807 54.5 80.567 54.48 80.407 54.44C79.367 54.76 78.487 54.92 77.767 54.92C77.247 54.92 76.527 54.82 75.607 54.62C75.047 54.94 74.507 55.1 73.987 55.1C73.507 55.1 73.067 54.96 72.667 54.68C72.467 54.72 72.167 54.74 71.767 54.74C70.207 54.74 69.007 54.04 68.167 52.64C66.647 51.76 65.887 50.44 65.887 48.68C65.887 48.24 65.907 47.9 65.947 47.66C65.587 47.42 65.407 46.92 65.407 46.16C65.407 45.64 65.507 45.18 65.707 44.78C65.547 44.06 65.467 43.6 65.467 43.4C65.467 42.24 66.027 41.2 67.147 40.28C67.587 39.36 68.087 38.74 68.647 38.42C69.247 38.1 69.987 37.86 70.867 37.7C71.107 37.02 71.667 36.56 72.547 36.32C73.427 36.08 74.287 36 75.127 36.08C75.367 35.92 75.707 35.78 76.147 35.66C76.587 35.5 77.027 35.42 77.467 35.42C77.947 35.42 78.367 35.5 78.727 35.66C78.807 35.58 79.007 35.54 79.327 35.54C79.567 35.54 79.807 35.56 80.047 35.6C80.287 35.64 80.447 35.7 80.527 35.78C81.087 35.06 81.747 34.7 82.507 34.7C82.747 34.7 82.987 34.76 83.227 34.88V34.7C83.227 34.02 83.367 33.54 83.647 33.26C83.247 33.14 82.807 32.8 82.327 32.24C81.887 31.64 81.627 31.1 81.547 30.62C80.907 30.34 80.467 29.88 80.227 29.24C79.747 29.6 79.187 29.78 78.547 29.78C78.107 29.78 77.687 29.66 77.287 29.42C76.607 29.62 76.167 29.7 75.967 29.66C75.407 30.06 74.787 30.26 74.107 30.26C73.507 31.06 72.807 31.42 72.007 31.34C71.647 31.98 71.147 32.54 70.507 33.02C69.907 33.5 69.287 33.74 68.647 33.74C67.927 33.74 67.347 33.4 66.907 32.72ZM70.207 46.1C70.687 46.58 70.927 47.04 70.927 47.48C70.927 47.8 70.847 48.2 70.687 48.68C70.847 48.68 71.067 48.78 71.347 48.98C71.667 49.14 71.847 49.32 71.887 49.52C72.207 49.4 72.607 49.34 73.087 49.34C73.967 49.34 74.547 49.54 74.827 49.94C75.267 49.78 75.727 49.7 76.207 49.7C76.967 49.7 77.567 49.92 78.007 50.36C78.327 50.04 78.847 49.78 79.567 49.58C80.327 49.38 81.007 49.28 81.607 49.28C81.967 48.56 82.607 48.14 83.527 48.02C83.607 47.74 83.827 47.38 84.187 46.94C84.027 46.7 83.887 46.38 83.767 45.98C83.647 45.58 83.587 45.18 83.587 44.78C83.587 43.94 83.787 43.32 84.187 42.92C83.747 42.36 83.527 41.7 83.527 40.94C83.527 40.42 83.607 39.98 83.767 39.62C83.447 39.82 83.087 39.92 82.687 39.92C82.327 39.92 82.027 39.78 81.787 39.5C81.427 39.86 80.927 40.04 80.287 40.04C79.887 40.04 79.487 39.94 79.087 39.74C78.647 40.18 78.107 40.4 77.467 40.4C77.267 40.4 76.967 40.32 76.567 40.16C75.967 40.76 75.427 40.94 74.947 40.7C74.707 41.26 74.387 41.64 73.987 41.84C73.627 42.04 73.107 42.14 72.427 42.14C72.267 42.58 71.987 42.94 71.587 43.22C71.227 43.5 70.847 43.6 70.447 43.52C70.647 43.8 70.747 44.12 70.747 44.48C70.747 45.08 70.567 45.62 70.207 46.1Z" fill="#FFA800"/>
<path d="M97.7977 53.18C97.9577 54.06 97.7777 54.76 97.2577 55.28C96.7777 55.76 96.1777 56 95.4577 56C94.8177 56 94.2577 55.8 93.7777 55.4C93.2977 54.96 93.0577 54.36 93.0577 53.6C93.0577 53.12 93.1777 52.58 93.4177 51.98C93.1777 51.42 93.0577 50.84 93.0577 50.24C93.0577 49.76 93.1577 49.36 93.3577 49.04C93.1177 48.88 92.9377 48.64 92.8177 48.32C92.6977 48 92.6377 47.64 92.6377 47.24C92.6377 46.84 92.7177 46.4 92.8777 45.92C92.5177 45.48 92.3377 44.96 92.3377 44.36C92.3377 43.6 92.6177 42.98 93.1777 42.5C93.1377 42.38 93.1177 42.18 93.1177 41.9C93.1177 41.5 93.1577 41.22 93.2377 41.06C92.7977 40.5 92.5777 39.7 92.5777 38.66C92.5777 37.94 92.7177 37.38 92.9977 36.98C92.7177 36.74 92.4777 36.42 92.2777 36.02C92.0777 35.58 91.9777 35.14 91.9777 34.7C91.9777 34.22 92.1177 33.76 92.3977 33.32C92.1977 32.84 92.0977 32.42 92.0977 32.06C92.0977 31.46 92.2777 30.9 92.6377 30.38C92.1577 29.9 91.9177 29.4 91.9177 28.88C91.9177 28.48 92.0577 27.94 92.3377 27.26C92.0577 26.7 91.9177 26.1 91.9177 25.46C91.9177 24.62 92.2177 24.1 92.8177 23.9C92.8577 23.34 93.0577 22.88 93.4177 22.52C93.7777 22.16 94.2177 21.98 94.7377 21.98C95.3377 21.98 95.8577 22.28 96.2977 22.88C96.7777 23.44 97.0177 24.26 97.0177 25.34C97.0177 25.78 96.9977 26.14 96.9577 26.42C97.1177 26.34 97.2777 26.22 97.4377 26.06C97.5977 25.86 97.7977 25.72 98.0377 25.64C98.2777 25.56 98.6377 25.52 99.1177 25.52C99.1977 25.32 99.4577 25.12 99.8977 24.92C100.378 24.72 100.838 24.62 101.278 24.62C101.598 24.62 101.818 24.66 101.938 24.74C102.258 24.58 102.578 24.5 102.898 24.5C103.378 24.5 103.898 24.84 104.458 25.52C105.418 25.44 106.118 25.66 106.558 26.18C107.198 26.14 107.758 26.22 108.238 26.42C108.718 26.62 109.098 27.04 109.378 27.68C110.138 28.16 110.518 28.8 110.518 29.6C110.518 30.28 110.218 30.92 109.618 31.52C109.058 32.08 108.438 32.36 107.758 32.36C106.998 32.36 106.358 31.96 105.838 31.16C105.398 31.16 105.058 31.12 104.818 31.04C104.578 30.96 104.338 30.78 104.098 30.5C103.858 30.58 103.658 30.62 103.498 30.62C103.138 30.62 102.758 30.52 102.358 30.32C101.798 30.68 101.198 30.84 100.558 30.8C100.318 31.36 99.6977 31.64 98.6977 31.64C98.7377 31.76 98.7577 31.96 98.7577 32.24C98.7577 32.76 98.6377 33.28 98.3977 33.8C98.1977 34.28 97.9377 34.64 97.6177 34.88C97.9377 35.64 98.0977 36.4 98.0977 37.16C98.0977 37.84 97.9377 38.36 97.6177 38.72C97.7377 38.88 97.8577 39.08 97.9777 39.32C98.1377 39.56 98.2577 39.78 98.3377 39.98C98.4177 40.3 98.4577 40.54 98.4577 40.7C98.4577 40.98 98.3577 41.36 98.1577 41.84C98.3577 42.32 98.4577 42.68 98.4577 42.92C98.4577 43.24 98.3177 43.68 98.0377 44.24C98.2777 44.64 98.3977 45.08 98.3977 45.56C98.3977 46.12 98.2577 46.6 97.9777 47C98.2577 47.64 98.3977 48.3 98.3977 48.98C98.3977 49.5 98.2777 49.98 98.0377 50.42C98.2377 50.82 98.3377 51.22 98.3377 51.62C98.3377 52.18 98.1577 52.7 97.7977 53.18Z" fill="#40A8E2"/>
<path d="M117.323 50.24C117.603 50.28 117.843 50.48 118.043 50.84C118.243 51.2 118.343 51.62 118.343 52.1C118.343 52.54 118.263 52.92 118.103 53.24C118.263 53.92 118.023 54.52 117.383 55.04C116.743 55.52 116.023 55.76 115.223 55.76C114.583 55.76 114.003 55.56 113.483 55.16C113.003 54.72 112.723 54.08 112.643 53.24C112.323 52.84 112.163 52.44 112.163 52.04C112.163 51.36 112.443 50.74 113.003 50.18C113.603 49.58 114.303 49.28 115.103 49.28C115.823 49.28 116.563 49.6 117.323 50.24ZM143.216 21.86C143.336 21.98 143.396 22.18 143.396 22.46C143.396 22.82 143.256 23.22 142.976 23.66C142.736 24.1 142.416 24.44 142.016 24.68C142.096 24.76 142.136 25 142.136 25.4C142.136 25.8 142.096 26.18 142.016 26.54C141.976 26.86 141.936 27.08 141.896 27.2C142.016 27.32 142.136 27.58 142.256 27.98C142.376 28.38 142.456 28.7 142.496 28.94C142.856 28.94 143.196 29.06 143.516 29.3C143.836 29.54 144.076 29.88 144.236 30.32C144.276 30.28 144.376 30.26 144.536 30.26C144.776 30.26 145.056 30.3 145.376 30.38C145.696 30.46 145.956 30.54 146.156 30.62C146.276 30.5 146.536 30.44 146.936 30.44C147.616 30.44 148.056 30.6 148.256 30.92C148.456 30.8 148.716 30.74 149.036 30.74C149.676 30.74 150.156 30.9 150.476 31.22C150.676 31.06 151.096 30.98 151.736 30.98C152.176 30.98 152.616 31.04 153.056 31.16C153.496 31.28 153.776 31.44 153.896 31.64C154.016 31.6 154.196 31.58 154.436 31.58C155.116 31.58 155.756 31.76 156.356 32.12C156.996 32.44 157.316 32.8 157.316 33.2C157.836 33.12 158.316 33.24 158.756 33.56C159.196 33.88 159.556 34.28 159.836 34.76C160.556 34.88 161.236 35.54 161.876 36.74C162.516 37.94 162.836 39.06 162.836 40.1C162.836 40.58 162.736 40.98 162.536 41.3C163.136 41.7 163.436 42.44 163.436 43.52C163.436 44.28 163.276 44.98 162.956 45.62C163.036 45.94 163.076 46.18 163.076 46.34C163.076 47.02 162.876 47.7 162.476 48.38C162.116 49.02 161.676 49.42 161.156 49.58C161.036 50.26 160.676 50.9 160.076 51.5C159.476 52.06 158.856 52.48 158.216 52.76C158.136 53.28 157.756 53.8 157.076 54.32C156.396 54.8 155.736 54.96 155.096 54.8C154.816 55.16 154.296 55.46 153.536 55.7C152.816 55.9 152.036 56 151.196 56C150.396 56 149.656 55.9 148.976 55.7C148.336 55.5 147.896 55.2 147.656 54.8C147.296 54.96 146.896 55.04 146.456 55.04C145.896 55.04 145.356 54.9 144.836 54.62C144.356 54.34 144.016 53.96 143.816 53.48C143.336 53.6 142.816 53.5 142.256 53.18C141.736 52.82 141.356 52.28 141.116 51.56C140.476 51.56 139.816 51.34 139.136 50.9C138.496 50.46 138.136 50.02 138.056 49.58C137.416 49.46 136.916 49.18 136.556 48.74C136.236 48.3 136.076 47.8 136.076 47.24C136.076 46.6 136.276 46.02 136.676 45.5C137.116 44.98 137.676 44.72 138.356 44.72C138.716 44.72 138.996 44.76 139.196 44.84C139.516 44.76 139.736 44.72 139.856 44.72C140.456 44.72 140.996 44.92 141.476 45.32C141.996 45.72 142.276 46.22 142.316 46.82C142.556 46.74 142.756 46.7 142.916 46.7C143.476 46.7 143.976 46.96 144.416 47.48C144.896 47.96 145.176 48.52 145.256 49.16C145.496 49.04 145.756 48.98 146.036 48.98C146.476 48.98 146.896 49.1 147.296 49.34C147.696 49.58 147.916 49.86 147.956 50.18C148.316 50.06 148.676 50 149.036 50C149.676 50 150.196 50.26 150.596 50.78C150.956 50.54 151.336 50.42 151.736 50.42C151.936 50.42 152.276 50.5 152.756 50.66C153.276 49.9 153.796 49.6 154.316 49.76C154.636 49.32 154.996 48.94 155.396 48.62C155.796 48.26 156.196 48.06 156.596 48.02C156.756 47.58 156.936 47.26 157.136 47.06C157.336 46.82 157.656 46.58 158.096 46.34C158.016 46.18 157.976 45.98 157.976 45.74C157.976 45.34 158.056 44.92 158.216 44.48C158.376 44.04 158.556 43.76 158.756 43.64C158.436 43.28 158.276 42.86 158.276 42.38C158.276 41.98 158.416 41.52 158.696 41C157.976 40.56 157.616 39.92 157.616 39.08C157.016 38.88 156.576 38.6 156.296 38.24C155.616 38.28 155.056 38.18 154.616 37.94C154.176 37.66 153.896 37.26 153.776 36.74C153.456 36.82 153.236 36.86 153.116 36.86C152.716 36.86 152.336 36.78 151.976 36.62C151.616 36.42 151.316 36.16 151.076 35.84C150.836 36.04 150.516 36.14 150.116 36.14C149.596 36.14 149.036 35.94 148.436 35.54C148.036 35.74 147.656 35.84 147.296 35.84C146.776 35.84 146.356 35.74 146.036 35.54C145.796 35.62 145.596 35.66 145.436 35.66C145.076 35.66 144.736 35.6 144.416 35.48C144.136 35.32 143.976 35.14 143.936 34.94C142.496 34.94 141.716 34.68 141.596 34.16C141.116 34.08 140.656 33.92 140.216 33.68C139.776 33.4 139.536 33.08 139.496 32.72C139.096 32.64 138.756 32.42 138.476 32.06C138.196 31.66 138.056 31.18 138.056 30.62C137.696 30.34 137.396 29.84 137.156 29.12C136.916 28.4 136.796 27.64 136.796 26.84C136.796 25.56 137.056 24.68 137.576 24.2C137.496 23.96 137.456 23.72 137.456 23.48C137.456 22.92 137.556 22.34 137.756 21.74C137.996 21.14 138.236 20.78 138.476 20.66C138.476 20.14 138.616 19.54 138.896 18.86C139.256 18.38 139.676 17.98 140.156 17.66C140.636 17.3 141.156 17.12 141.716 17.12C141.796 16.68 142.036 16.3 142.436 15.98C142.876 15.66 143.376 15.5 143.936 15.5C144.096 15.02 144.436 14.64 144.956 14.36C145.476 14.08 146.056 13.94 146.696 13.94C147.176 13.94 147.596 14 147.956 14.12C148.076 13.92 148.296 13.76 148.616 13.64C148.936 13.52 149.276 13.46 149.636 13.46C149.836 13.46 150.056 13.5 150.296 13.58C150.656 13.22 151.296 13.04 152.216 13.04C153.216 13.04 153.976 13.22 154.496 13.58C154.656 13.54 154.876 13.52 155.156 13.52C156.356 13.52 157.376 14.22 158.216 15.62C158.656 15.54 159.136 15.66 159.656 15.98C160.216 16.3 160.656 16.74 160.976 17.3C161.336 17.82 161.496 18.32 161.456 18.8C162.136 19.28 162.616 19.78 162.896 20.3C163.176 20.82 163.396 21.6 163.556 22.64C163.596 23.36 163.376 23.94 162.896 24.38C162.416 24.82 161.856 25.04 161.216 25.04C160.616 25.04 160.096 24.82 159.656 24.38C159.176 24.3 158.756 24.06 158.396 23.66C158.036 23.26 157.876 22.86 157.916 22.46C156.796 21.7 156.296 20.86 156.416 19.94C155.936 20.02 155.336 19.9 154.616 19.58C153.936 19.22 153.416 18.76 153.056 18.2C152.776 18.6 152.216 18.8 151.376 18.8C150.776 18.8 150.276 18.7 149.876 18.5C149.596 18.86 149.096 19.04 148.376 19.04C148.016 19.04 147.676 18.98 147.356 18.86C147.196 19.3 146.916 19.68 146.516 20C146.156 20.28 145.736 20.46 145.256 20.54C145.016 20.9 144.716 21.22 144.356 21.5C143.996 21.74 143.616 21.86 143.216 21.86ZM168.356 32.72C168.036 32.2 167.876 31.7 167.876 31.22C167.876 30.5 168.116 29.9 168.596 29.42C168.716 28.82 168.996 28.26 169.436 27.74C169.876 27.18 170.356 26.76 170.876 26.48C171.436 26.16 171.876 26.04 172.196 26.12C172.476 25.68 173.036 25.28 173.876 24.92C174.716 24.52 175.496 24.32 176.216 24.32C176.376 24.32 176.616 24.36 176.936 24.44C177.376 23.96 177.956 23.72 178.676 23.72C179.236 23.72 179.636 23.88 179.876 24.2C180.396 23.84 181.076 23.66 181.916 23.66C182.916 23.66 183.796 23.9 184.556 24.38C185.356 24.86 185.816 25.5 185.936 26.3C186.656 26.54 187.196 26.92 187.556 27.44C187.956 27.92 188.196 28.6 188.276 29.48C188.796 30 189.176 30.62 189.416 31.34C189.656 32.02 189.776 32.72 189.776 33.44C189.776 34.36 189.616 35.1 189.296 35.66C189.576 36.06 189.816 36.66 190.016 37.46C190.216 38.26 190.316 39.04 190.316 39.8C190.316 40.12 190.276 40.52 190.196 41C190.476 41.6 190.616 42 190.616 42.2C190.616 42.32 190.556 42.6 190.436 43.04C190.476 43.2 190.516 43.4 190.556 43.64C190.596 43.84 190.616 44.1 190.616 44.42C190.616 45.02 190.396 45.56 189.956 46.04C190.116 46.48 190.196 47.02 190.196 47.66C190.196 48.5 189.996 49.18 189.596 49.7C189.676 49.86 189.716 50.12 189.716 50.48C189.716 51.32 189.376 52.02 188.696 52.58C188.536 53.14 188.236 53.58 187.796 53.9C187.356 54.18 186.876 54.32 186.356 54.32C185.836 54.32 185.416 54.16 185.096 53.84C184.056 54.28 183.216 54.5 182.576 54.5C182.256 54.5 182.016 54.48 181.856 54.44C180.816 54.76 179.936 54.92 179.216 54.92C178.696 54.92 177.976 54.82 177.056 54.62C176.496 54.94 175.956 55.1 175.436 55.1C174.956 55.1 174.516 54.96 174.116 54.68C173.916 54.72 173.616 54.74 173.216 54.74C171.656 54.74 170.456 54.04 169.616 52.64C168.096 51.76 167.336 50.44 167.336 48.68C167.336 48.24 167.356 47.9 167.396 47.66C167.036 47.42 166.856 46.92 166.856 46.16C166.856 45.64 166.956 45.18 167.156 44.78C166.996 44.06 166.916 43.6 166.916 43.4C166.916 42.24 167.476 41.2 168.596 40.28C169.036 39.36 169.536 38.74 170.096 38.42C170.696 38.1 171.436 37.86 172.316 37.7C172.556 37.02 173.116 36.56 173.996 36.32C174.876 36.08 175.736 36 176.576 36.08C176.816 35.92 177.156 35.78 177.596 35.66C178.036 35.5 178.476 35.42 178.916 35.42C179.396 35.42 179.816 35.5 180.176 35.66C180.256 35.58 180.456 35.54 180.776 35.54C181.016 35.54 181.256 35.56 181.496 35.6C181.736 35.64 181.896 35.7 181.976 35.78C182.536 35.06 183.196 34.7 183.956 34.7C184.196 34.7 184.436 34.76 184.676 34.88V34.7C184.676 34.02 184.816 33.54 185.096 33.26C184.696 33.14 184.256 32.8 183.776 32.24C183.336 31.64 183.076 31.1 182.996 30.62C182.356 30.34 181.916 29.88 181.676 29.24C181.196 29.6 180.636 29.78 179.996 29.78C179.556 29.78 179.136 29.66 178.736 29.42C178.056 29.62 177.616 29.7 177.416 29.66C176.856 30.06 176.236 30.26 175.556 30.26C174.956 31.06 174.256 31.42 173.456 31.34C173.096 31.98 172.596 32.54 171.956 33.02C171.356 33.5 170.736 33.74 170.096 33.74C169.376 33.74 168.796 33.4 168.356 32.72ZM171.656 46.1C172.136 46.58 172.376 47.04 172.376 47.48C172.376 47.8 172.296 48.2 172.136 48.68C172.296 48.68 172.516 48.78 172.796 48.98C173.116 49.14 173.296 49.32 173.336 49.52C173.656 49.4 174.056 49.34 174.536 49.34C175.416 49.34 175.996 49.54 176.276 49.94C176.716 49.78 177.176 49.7 177.656 49.7C178.416 49.7 179.016 49.92 179.456 50.36C179.776 50.04 180.296 49.78 181.016 49.58C181.776 49.38 182.456 49.28 183.056 49.28C183.416 48.56 184.056 48.14 184.976 48.02C185.056 47.74 185.276 47.38 185.636 46.94C185.476 46.7 185.336 46.38 185.216 45.98C185.096 45.58 185.036 45.18 185.036 44.78C185.036 43.94 185.236 43.32 185.636 42.92C185.196 42.36 184.976 41.7 184.976 40.94C184.976 40.42 185.056 39.98 185.216 39.62C184.896 39.82 184.536 39.92 184.136 39.92C183.776 39.92 183.476 39.78 183.236 39.5C182.876 39.86 182.376 40.04 181.736 40.04C181.336 40.04 180.936 39.94 180.536 39.74C180.096 40.18 179.556 40.4 178.916 40.4C178.716 40.4 178.416 40.32 178.016 40.16C177.416 40.76 176.876 40.94 176.396 40.7C176.156 41.26 175.836 41.64 175.436 41.84C175.076 42.04 174.556 42.14 173.876 42.14C173.716 42.58 173.436 42.94 173.036 43.22C172.676 43.5 172.296 43.6 171.896 43.52C172.096 43.8 172.196 44.12 172.196 44.48C172.196 45.08 172.016 45.62 171.656 46.1ZM204.63 30.32C204.71 30.76 204.57 31.16 204.21 31.52C203.89 31.84 203.49 32.02 203.01 32.06C202.73 32.86 201.99 33.34 200.79 33.5C200.83 34.18 200.69 34.76 200.37 35.24C200.05 35.68 199.69 35.94 199.29 36.02C199.29 37.06 199.07 38.14 198.63 39.26C198.71 39.58 198.75 39.86 198.75 40.1C198.75 40.9 198.59 41.62 198.27 42.26C198.47 42.66 198.57 43.12 198.57 43.64C198.57 44.32 198.45 45.02 198.21 45.74C198.57 46.22 198.75 46.76 198.75 47.36C198.75 47.72 198.65 48.14 198.45 48.62C198.57 48.86 198.63 49.24 198.63 49.76C198.63 50.64 198.45 51.28 198.09 51.68C198.25 52.24 198.33 52.68 198.33 53C198.33 53.32 198.27 53.6 198.15 53.84C198.15 54.52 197.89 55.06 197.37 55.46C196.85 55.82 196.23 56 195.51 56C194.83 56 194.23 55.82 193.71 55.46C193.23 55.06 193.01 54.52 193.05 53.84C192.93 53.48 192.87 53.1 192.87 52.7C192.87 51.86 193.01 51.06 193.29 50.3C192.93 49.82 192.75 49.3 192.75 48.74C192.75 48.38 192.85 47.96 193.05 47.48C192.77 47.04 192.63 46.54 192.63 45.98C192.63 45.58 192.71 45.22 192.87 44.9C193.03 44.58 193.23 44.32 193.47 44.12C192.91 43.48 192.63 42.74 192.63 41.9C192.63 41.1 192.89 40.42 193.41 39.86C193.25 39.66 193.11 39.36 192.99 38.96C192.87 38.56 192.81 38.16 192.81 37.76C192.81 37.24 192.93 36.86 193.17 36.62C192.85 35.9 192.69 35.08 192.69 34.16C192.69 33.36 192.81 32.82 193.05 32.54C192.69 31.74 192.51 30.98 192.51 30.26C192.51 29.46 192.69 28.88 193.05 28.52C192.41 27.76 192.09 26.92 192.09 26C192.09 24.88 192.57 24.06 193.53 23.54C194.01 23.3 194.49 23.18 194.97 23.18C195.73 23.18 196.37 23.5 196.89 24.14C197.41 24.74 197.67 25.46 197.67 26.3C197.67 26.74 197.57 27.2 197.37 27.68C197.89 28.2 198.15 28.86 198.15 29.66C198.15 30.22 198.11 30.68 198.03 31.04C198.35 29.88 198.81 29.2 199.41 29C199.41 28.24 199.65 27.54 200.13 26.9C200.61 26.26 201.17 25.78 201.81 25.46C202.49 25.14 203.05 25.04 203.49 25.16C204.49 24.08 205.57 23.54 206.73 23.54C207.25 23.54 207.71 23.64 208.11 23.84C208.47 23.56 209.01 23.42 209.73 23.42C210.33 23.42 210.89 23.54 211.41 23.78C211.93 23.98 212.27 24.3 212.43 24.74C213.87 24.82 214.89 25.42 215.49 26.54C216.01 26.58 216.51 26.88 216.99 27.44C217.51 28 217.77 28.64 217.77 29.36C217.77 29.68 217.67 30.08 217.47 30.56C218.39 30.92 218.85 31.62 218.85 32.66C218.85 33.02 218.83 33.28 218.79 33.44C219.31 33.72 219.67 34.02 219.87 34.34C220.11 34.62 220.23 34.98 220.23 35.42C220.23 35.9 220.11 36.54 219.87 37.34C220.35 37.7 220.59 38.3 220.59 39.14C220.59 40.02 220.37 40.68 219.93 41.12C220.29 41.72 220.47 42.46 220.47 43.34C220.47 44.22 220.27 44.92 219.87 45.44C220.11 46.64 220.23 47.48 220.23 47.96C220.23 48.8 220.05 49.38 219.69 49.7C220.01 50.42 220.17 51.12 220.17 51.8C220.17 52.72 219.95 53.4 219.51 53.84C219.55 54.48 219.27 55 218.67 55.4C218.11 55.8 217.47 56 216.75 56C216.19 56 215.71 55.86 215.31 55.58C214.91 55.3 214.71 54.9 214.71 54.38C214.39 53.62 214.23 52.76 214.23 51.8C214.23 50.32 214.59 49.24 215.31 48.56C215.03 48.2 214.77 47.62 214.53 46.82C214.33 45.98 214.23 45.2 214.23 44.48C214.23 43.48 214.43 42.86 214.83 42.62C214.51 42.02 214.35 41.4 214.35 40.76C214.35 40.04 214.57 39.16 215.01 38.12C214.65 37.84 214.35 37.42 214.11 36.86C213.87 36.3 213.75 35.76 213.75 35.24C213.75 35.08 213.79 34.84 213.87 34.52C213.43 34.16 213.03 33.58 212.67 32.78C212.35 31.98 212.21 31.26 212.25 30.62C211.89 30.58 211.53 30.46 211.17 30.26C210.81 30.06 210.53 29.78 210.33 29.42H209.67C208.99 29.42 208.51 29.28 208.23 29C207.91 29.4 207.37 29.76 206.61 30.08C205.89 30.36 205.25 30.44 204.69 30.32H204.63ZM241.329 50.84C241.369 50.64 241.469 50.5 241.629 50.42C241.829 50.34 242.049 50.28 242.289 50.24C242.449 50.2 242.649 50.18 242.889 50.18C243.569 50.18 244.109 50.44 244.509 50.96C244.949 51.44 245.169 52.02 245.169 52.7C245.169 53.22 245.029 53.68 244.749 54.08C244.469 54.44 244.049 54.7 243.489 54.86C242.649 55.58 241.649 55.88 240.489 55.76C240.169 56.04 239.749 56.18 239.229 56.18C238.509 56.18 237.849 55.92 237.249 55.4C236.849 55.32 236.369 55.12 235.809 54.8C235.249 54.44 234.969 54.12 234.969 53.84C234.409 53.76 233.829 53.44 233.229 52.88C232.669 52.32 232.469 51.64 232.629 50.84C232.189 50.36 231.929 49.86 231.849 49.34C231.369 49.1 231.009 48.74 230.769 48.26C230.569 47.78 230.509 47.28 230.589 46.76C230.069 46.28 229.809 45.56 229.809 44.6C229.809 44.24 229.849 43.78 229.929 43.22C229.369 42.78 229.089 42.18 229.089 41.42C229.089 40.74 229.309 40.18 229.749 39.74C229.269 39.26 229.029 38.64 229.029 37.88C229.029 37.6 229.109 37.26 229.269 36.86C229.029 36.38 228.909 35.9 228.909 35.42C228.909 34.78 229.089 34.28 229.449 33.92C229.209 33.44 229.089 32.92 229.089 32.36C229.089 31.88 229.149 31.46 229.269 31.1C229.429 30.7 229.609 30.4 229.809 30.2C229.369 29.68 229.149 29.12 229.149 28.52C229.149 28.2 229.209 27.86 229.329 27.5C228.969 27.62 228.569 27.68 228.129 27.68C227.449 27.68 226.949 27.54 226.629 27.26C226.149 27.38 225.729 27.44 225.369 27.44C224.649 27.44 223.909 27.22 223.149 26.78C222.749 27.02 222.329 27.14 221.889 27.14C221.249 27.14 220.729 26.88 220.329 26.36C219.889 25.8 219.669 25.18 219.669 24.5C219.669 23.9 219.869 23.4 220.269 23C220.629 22.56 221.169 22.32 221.889 22.28C222.369 22.08 222.809 21.98 223.209 21.98C224.009 21.98 224.709 22.18 225.309 22.58C225.829 22.38 226.409 22.28 227.049 22.28C227.609 22.28 228.049 22.38 228.369 22.58C228.409 22.42 228.569 22.28 228.849 22.16C229.169 22 229.429 21.94 229.629 21.98C229.469 21.62 229.389 21.14 229.389 20.54C229.389 19.82 229.549 19.44 229.869 19.4C229.589 19 229.449 18.42 229.449 17.66C229.449 16.62 229.709 15.9 230.229 15.5C230.189 14.7 230.349 14.1 230.709 13.7C231.069 13.3 231.529 13.1 232.089 13.1C232.649 13.1 233.169 13.3 233.649 13.7C234.129 14.06 234.369 14.54 234.369 15.14C234.369 15.54 234.209 16 233.889 16.52C234.289 16.88 234.489 17.48 234.489 18.32C234.489 18.68 234.429 19.06 234.309 19.46C234.229 19.82 234.109 20.1 233.949 20.3C234.189 20.46 234.309 20.78 234.309 21.26C234.309 21.66 234.209 22.2 234.009 22.88C234.369 22.76 234.749 22.7 235.149 22.7C235.749 22.7 236.209 22.84 236.529 23.12C236.929 22.92 237.249 22.82 237.489 22.82C237.889 22.82 238.209 22.98 238.449 23.3C238.729 23.1 239.069 23 239.469 23C240.029 23 240.469 23.22 240.789 23.66C241.549 23.66 242.109 23.84 242.469 24.2C242.869 24.52 243.069 24.94 243.069 25.46C243.069 26.1 242.809 26.72 242.289 27.32C241.809 27.88 241.249 28.16 240.609 28.16C240.249 28.16 239.889 28.04 239.529 27.8C239.129 28.12 238.609 28.28 237.969 28.28C237.369 28.28 236.869 28.14 236.469 27.86C235.949 28.06 235.569 28.16 235.329 28.16C235.009 28.16 234.629 28.02 234.189 27.74C234.549 28.22 234.729 28.74 234.729 29.3C234.729 29.9 234.489 30.44 234.009 30.92C234.369 31.4 234.549 32 234.549 32.72C234.549 33.36 234.369 33.96 234.009 34.52C234.489 34.84 234.729 35.36 234.729 36.08C234.729 36.68 234.549 37.2 234.189 37.64C234.589 38.08 234.789 38.86 234.789 39.98C234.789 40.46 234.729 40.86 234.609 41.18C234.889 41.58 235.029 42 235.029 42.44C235.029 42.68 234.969 43 234.849 43.4C234.769 43.76 234.709 44.06 234.669 44.3C235.149 44.86 235.389 45.4 235.389 45.92C236.069 46.44 236.409 47.06 236.409 47.78C237.209 48.22 237.609 48.96 237.609 50C237.689 50.12 237.769 50.2 237.849 50.24C237.929 50.28 237.989 50.32 238.029 50.36L238.449 50.3C239.049 50.3 239.529 50.48 239.889 50.84C240.209 50.76 240.469 50.72 240.669 50.72C240.789 50.72 241.009 50.76 241.329 50.84ZM246.628 32.72C246.308 32.2 246.148 31.7 246.148 31.22C246.148 30.5 246.388 29.9 246.868 29.42C246.988 28.82 247.268 28.26 247.708 27.74C248.148 27.18 248.628 26.76 249.148 26.48C249.708 26.16 250.148 26.04 250.468 26.12C250.748 25.68 251.308 25.28 252.148 24.92C252.988 24.52 253.768 24.32 254.488 24.32C254.648 24.32 254.888 24.36 255.208 24.44C255.648 23.96 256.228 23.72 256.948 23.72C257.508 23.72 257.908 23.88 258.148 24.2C258.668 23.84 259.348 23.66 260.188 23.66C261.188 23.66 262.068 23.9 262.828 24.38C263.628 24.86 264.088 25.5 264.208 26.3C264.928 26.54 265.468 26.92 265.828 27.44C266.228 27.92 266.468 28.6 266.548 29.48C267.068 30 267.448 30.62 267.688 31.34C267.928 32.02 268.048 32.72 268.048 33.44C268.048 34.36 267.888 35.1 267.568 35.66C267.848 36.06 268.088 36.66 268.288 37.46C268.488 38.26 268.588 39.04 268.588 39.8C268.588 40.12 268.548 40.52 268.468 41C268.748 41.6 268.888 42 268.888 42.2C268.888 42.32 268.828 42.6 268.708 43.04C268.748 43.2 268.788 43.4 268.828 43.64C268.868 43.84 268.888 44.1 268.888 44.42C268.888 45.02 268.668 45.56 268.228 46.04C268.388 46.48 268.468 47.02 268.468 47.66C268.468 48.5 268.268 49.18 267.868 49.7C267.948 49.86 267.988 50.12 267.988 50.48C267.988 51.32 267.648 52.02 266.968 52.58C266.808 53.14 266.508 53.58 266.068 53.9C265.628 54.18 265.148 54.32 264.628 54.32C264.108 54.32 263.688 54.16 263.368 53.84C262.328 54.28 261.488 54.5 260.848 54.5C260.528 54.5 260.288 54.48 260.128 54.44C259.088 54.76 258.208 54.92 257.488 54.92C256.968 54.92 256.248 54.82 255.328 54.62C254.768 54.94 254.228 55.1 253.708 55.1C253.228 55.1 252.788 54.96 252.388 54.68C252.188 54.72 251.888 54.74 251.488 54.74C249.928 54.74 248.728 54.04 247.888 52.64C246.368 51.76 245.608 50.44 245.608 48.68C245.608 48.24 245.628 47.9 245.668 47.66C245.308 47.42 245.128 46.92 245.128 46.16C245.128 45.64 245.228 45.18 245.428 44.78C245.268 44.06 245.188 43.6 245.188 43.4C245.188 42.24 245.748 41.2 246.868 40.28C247.308 39.36 247.808 38.74 248.368 38.42C248.968 38.1 249.708 37.86 250.588 37.7C250.828 37.02 251.388 36.56 252.268 36.32C253.148 36.08 254.008 36 254.848 36.08C255.088 35.92 255.428 35.78 255.868 35.66C256.308 35.5 256.748 35.42 257.188 35.42C257.668 35.42 258.088 35.5 258.448 35.66C258.528 35.58 258.728 35.54 259.048 35.54C259.288 35.54 259.528 35.56 259.768 35.6C260.008 35.64 260.168 35.7 260.248 35.78C260.808 35.06 261.468 34.7 262.228 34.7C262.468 34.7 262.708 34.76 262.948 34.88V34.7C262.948 34.02 263.088 33.54 263.368 33.26C262.968 33.14 262.528 32.8 262.048 32.24C261.608 31.64 261.348 31.1 261.268 30.62C260.628 30.34 260.188 29.88 259.948 29.24C259.468 29.6 258.908 29.78 258.268 29.78C257.828 29.78 257.408 29.66 257.008 29.42C256.328 29.62 255.888 29.7 255.688 29.66C255.128 30.06 254.508 30.26 253.828 30.26C253.228 31.06 252.528 31.42 251.728 31.34C251.368 31.98 250.868 32.54 250.228 33.02C249.628 33.5 249.008 33.74 248.368 33.74C247.648 33.74 247.068 33.4 246.628 32.72ZM249.928 46.1C250.408 46.58 250.648 47.04 250.648 47.48C250.648 47.8 250.568 48.2 250.408 48.68C250.568 48.68 250.788 48.78 251.068 48.98C251.388 49.14 251.568 49.32 251.608 49.52C251.928 49.4 252.328 49.34 252.808 49.34C253.688 49.34 254.268 49.54 254.548 49.94C254.988 49.78 255.448 49.7 255.928 49.7C256.688 49.7 257.288 49.92 257.728 50.36C258.048 50.04 258.568 49.78 259.288 49.58C260.048 49.38 260.728 49.28 261.328 49.28C261.688 48.56 262.328 48.14 263.248 48.02C263.328 47.74 263.548 47.38 263.908 46.94C263.748 46.7 263.608 46.38 263.488 45.98C263.368 45.58 263.308 45.18 263.308 44.78C263.308 43.94 263.508 43.32 263.908 42.92C263.468 42.36 263.248 41.7 263.248 40.94C263.248 40.42 263.328 39.98 263.488 39.62C263.168 39.82 262.808 39.92 262.408 39.92C262.048 39.92 261.748 39.78 261.508 39.5C261.148 39.86 260.648 40.04 260.008 40.04C259.608 40.04 259.208 39.94 258.808 39.74C258.368 40.18 257.828 40.4 257.188 40.4C256.988 40.4 256.688 40.32 256.288 40.16C255.688 40.76 255.148 40.94 254.668 40.7C254.428 41.26 254.108 41.64 253.708 41.84C253.348 42.04 252.828 42.14 252.148 42.14C251.988 42.58 251.708 42.94 251.308 43.22C250.948 43.5 250.568 43.6 250.168 43.52C250.368 43.8 250.468 44.12 250.468 44.48C250.468 45.08 250.288 45.62 249.928 46.1Z" fill="#4D2E27"/>
<path d="M57.64 93.728C56.568 93.04 55.624 92.192 54.792 91.2C54.008 90.256 53.368 89.28 52.888 88.256C52.984 87.92 53.08 87.568 53.16 87.216C53.416 86.048 53.544 84.768 53.544 83.376H52.296C52.248 88.448 50.424 92.112 47.304 94.24L48.12 95.088C49.736 93.888 51.112 92.336 52.056 90.416C52.184 90.144 52.312 89.888 52.424 89.616C52.584 89.92 52.76 90.208 52.968 90.512C54.008 92.112 55.432 93.664 56.808 94.656L57.64 93.728ZM60.68 97.2V82.928H59.464V87.728H55.784V88.816H59.464V97.2H60.68ZM62.6534 94.8V95.856H76.6694V94.8H70.3654V91.888H75.3094V90.816H65.4534V88.192H75.0694V83.536H64.2374V84.592H73.8534V87.136H64.2374V91.888H69.1174V94.8H62.6534ZM90.8348 97.2V82.928H89.6188V97.2H90.8348ZM88.9788 94.736V93.68L78.0668 93.808V94.896L88.9788 94.736ZM83.2668 83.28C80.7068 83.28 78.9468 85.216 78.9468 87.312C78.9468 89.408 80.7068 91.344 83.2668 91.344C85.8268 91.344 87.5868 89.408 87.5868 87.312C87.5868 85.216 85.8268 83.28 83.2668 83.28ZM83.2668 90.288C81.3788 90.288 80.1628 88.848 80.1628 87.312C80.1628 85.776 81.3788 84.336 83.2668 84.336C85.1548 84.336 86.3708 85.776 86.3708 87.312C86.3708 88.848 85.1548 90.288 83.2668 90.288ZM107.882 90.096C106.298 89.456 104.89 88.416 103.898 87.104C103.69 86.832 103.514 86.544 103.354 86.24L103.514 85.808C103.786 84.976 103.946 84.096 103.962 83.184H102.714C102.538 86.384 100.81 89.232 97.7381 90.64L98.5061 91.488C100.058 90.72 101.402 89.552 102.362 88.128C102.538 87.872 102.714 87.6 102.858 87.328C102.97 87.52 103.114 87.712 103.258 87.888C104.298 89.248 105.722 90.4 107.146 91.04L107.882 90.096ZM111.098 97.04V95.984H101.498V92.336H100.282V97.04H111.098ZM110.634 93.456V87.696H112.602V86.608H110.634V82.928H109.418V93.456H110.634ZM125.248 97.2V89.456H127.568V88.368H125.248V82.928H124.032V97.2H125.248ZM121.28 88.432H115.232V84.496H121.503V83.44H114.016V94.832L123.168 94.32V93.28L115.232 93.68V89.488H121.28V88.432ZM140.357 97.2V89.6H142.677V88.512H140.357V82.928H139.141V97.2H140.357ZM129.109 84.592H135.253C135.077 88.4 132.629 92.208 128.661 94.128L129.461 95.024C133.605 92.848 136.613 88.784 136.565 83.536H129.109V84.592ZM158.892 89.472H151.34V84.592H158.572V83.536H150.124V90.544H153.964V93.76L149.004 93.808V94.896L159.916 94.736V93.68L155.212 93.744V90.544H158.892V89.472ZM161.772 97.2V82.928H160.556V97.2H161.772ZM168.706 83.6C166.146 83.6 164.178 85.552 164.178 88.432C164.178 91.328 166.146 93.28 168.706 93.28C170.61 93.28 172.226 92.176 172.882 90.416C173.058 89.968 173.17 89.472 173.218 88.944H175.57V97.2H176.786V82.928H175.57V87.856H173.202C173.154 87.36 173.058 86.896 172.882 86.464C172.226 84.704 170.61 83.6 168.706 83.6ZM168.706 84.688C170.61 84.688 171.986 86.112 171.986 88.416C171.986 90.672 170.706 92.192 168.706 92.192C166.706 92.192 165.426 90.672 165.426 88.416C165.426 86.112 166.802 84.688 168.706 84.688ZM178.919 94.8V95.856H192.935V94.8H186.551V91.664H191.335V83.376H190.119V86.4H181.719V83.376H180.503V91.664H185.303V94.8H178.919ZM181.719 90.608V87.456H190.119V90.608H181.719ZM198.604 83.6C196.044 83.6 194.076 85.552 194.076 88.432C194.076 91.328 196.044 93.28 198.604 93.28C201.164 93.28 203.132 91.328 203.132 88.432C203.132 85.552 201.164 83.6 198.604 83.6ZM198.604 84.688C200.508 84.688 201.884 86.112 201.884 88.416C201.884 90.672 200.604 92.192 198.604 92.192C196.604 92.192 195.324 90.672 195.324 88.416C195.324 86.112 196.7 84.688 198.604 84.688ZM206.204 97.2V89.136H208.524V88.048H206.204V82.928H204.988V97.2H206.204ZM216.13 82.896C213.01 82.896 210.914 84.928 210.914 87.232C210.914 89.536 213.01 91.568 216.13 91.568C219.25 91.568 221.346 89.536 221.346 87.232C221.346 84.928 219.25 82.896 216.13 82.896ZM216.13 90.512C213.666 90.512 212.13 88.992 212.13 87.232C212.13 85.472 213.666 83.952 216.13 83.952C218.594 83.952 220.13 85.472 220.13 87.232C220.13 88.992 218.594 90.512 216.13 90.512ZM209.138 94.8V95.856H223.154V94.8H220.002V91.776H218.77V94.8H213.57V91.776H212.338V94.8H209.138Z" fill="#0A0A0A"/>
</svg>
