<svg width="133" height="23" viewBox="0 0 133 23" fill="none" xmlns="http://www.w3.org/2000/svg">
<path d="M13.12 3.85C13.52 3.95 13.9 4.18 14.26 4.54C14.64 4.9 14.82 5.25 14.8 5.59C15.04 5.73 15.25 5.98 15.43 6.34C15.61 6.68 15.7 7.01 15.7 7.33C15.7 7.57 15.64 7.77 15.52 7.93C15.6 8.17 15.64 8.45 15.64 8.77C15.64 9.09 15.59 9.4 15.49 9.7C15.63 9.98 15.7 10.32 15.7 10.72C15.7 11.1 15.62 11.45 15.46 11.77C15.32 12.09 15.11 12.31 14.83 12.43C14.81 12.63 14.73 12.86 14.59 13.12C14.45 13.38 14.32 13.57 14.2 13.69L14.23 13.96C14.23 14.32 14.12 14.6 13.9 14.8C13.72 14.98 13.57 15.09 13.45 15.13C13.47 15.33 13.4 15.51 13.24 15.67C13.08 15.81 12.87 15.92 12.61 16C12.57 16.24 12.49 16.42 12.37 16.54C12.25 16.66 12.06 16.76 11.8 16.84C11.74 17.04 11.62 17.22 11.44 17.38C11.28 17.52 11.09 17.61 10.87 17.65C10.75 17.97 10.6 18.19 10.42 18.31C10.26 18.41 10.01 18.46 9.67 18.46C9.61 19.12 9.19 19.59 8.41 19.87C8.29 20.07 8.14 20.21 7.96 20.29C7.8 20.37 7.62 20.43 7.42 20.47C7.24 20.51 7.11 20.54 7.03 20.56C6.77 20.78 6.43 20.99 6.01 21.19C5.59 21.37 5.18 21.46 4.78 21.46C4.58 21.46 4.39 21.43 4.21 21.37C4.09 21.55 3.9 21.7 3.64 21.82C3.4 21.94 3.15 22 2.89 22C2.63 22 2.4 21.93 2.2 21.79C1.46 21.79 1.09 21.36 1.09 20.5C1.09 20.36 1.11 20.15 1.15 19.87C0.83 19.59 0.67 19.26 0.67 18.88C0.67 18.62 0.74 18.39 0.88 18.19C0.78 17.95 0.73 17.77 0.73 17.65C0.73 17.51 0.8 17.32 0.94 17.08C0.68 16.62 0.55 16.1 0.55 15.52C0.55 15.02 0.66 14.61 0.88 14.29C0.68 13.87 0.58 13.4 0.58 12.88C0.58 12.26 0.72 11.67 1 11.11C0.88 10.91 0.77 10.65 0.67 10.33C0.59 9.99 0.55 9.66 0.55 9.34C0.55 8.84 0.66 8.45 0.88 8.17C0.74 7.99 0.62 7.75 0.52 7.45C0.44 7.15 0.4 6.85 0.4 6.55C0.4 6.15 0.48 5.84 0.64 5.62C0.62 5.56 0.61 5.47 0.61 5.35C0.61 5.11 0.66 4.91 0.76 4.75C0.62 4.45 0.57 4.03 0.61 3.49C0.23 3.25 0.0400001 2.91 0.0400001 2.47C0.0400001 2.25 0.1 2.04 0.22 1.84C0.34 1.64 0.51 1.49 0.73 1.39C0.81 1.19 0.95 1.03 1.15 0.91C1.35 0.789999 1.56 0.729998 1.78 0.729998C2.06 0.729998 2.31 0.809999 2.53 0.969999C2.67 0.769999 2.98 0.669999 3.46 0.669999C3.72 0.669999 3.93 0.699999 4.09 0.76C4.27 0.819999 4.37 0.899999 4.39 0.999999C4.79 0.899999 5.18 0.849999 5.56 0.849999C6.08 0.849999 6.5 0.929999 6.82 1.09C7 0.97 7.21 0.91 7.45 0.91C7.83 0.91 8.12 1.03 8.32 1.27C8.48 1.23 8.61 1.21 8.71 1.21C9.03 1.21 9.33 1.31 9.61 1.51C9.91 1.71 10.1 1.96 10.18 2.26C10.38 2.16 10.57 2.11 10.75 2.11C11.01 2.11 11.25 2.18 11.47 2.32C11.71 2.46 11.89 2.62 12.01 2.8C12.27 2.8 12.5 2.9 12.7 3.1C12.92 3.28 13.06 3.53 13.12 3.85ZM4.93 18.82C5.05 18.64 5.27 18.5 5.59 18.4C5.93 18.3 6.25 18.25 6.55 18.25C6.81 17.87 7.11 17.68 7.45 17.68C7.45 17.4 7.56 17.18 7.78 17.02C8.02 16.84 8.34 16.67 8.74 16.51C8.78 16.19 8.92 15.9 9.16 15.64C9.42 15.38 9.69 15.26 9.97 15.28C10.13 15.06 10.34 14.9 10.6 14.8C10.74 14.44 10.96 14.19 11.26 14.05C11.32 13.67 11.51 13.39 11.83 13.21C11.87 12.95 11.95 12.7 12.07 12.46C12.19 12.2 12.32 12.03 12.46 11.95C12.5 11.59 12.58 11.24 12.7 10.9C12.82 10.54 12.98 10.33 13.18 10.27C13.12 10.11 13.09 9.95 13.09 9.79C13.09 9.69 13.11 9.54 13.15 9.34C13.01 9.14 12.94 8.7 12.94 8.02C12.94 7.66 12.97 7.39 13.03 7.21C13.01 7.17 12.94 7.09 12.82 6.97C12.72 6.85 12.67 6.72 12.67 6.58C12.53 6.54 12.42 6.46 12.34 6.34C12.26 6.22 12.2 6.14 12.16 6.1C11.86 6.1 11.6 5.99 11.38 5.77C11.16 5.55 11.03 5.28 10.99 4.96C10.83 4.98 10.63 4.95 10.39 4.87C10.17 4.77 10 4.64 9.88 4.48C9.64 4.54 9.33 4.5 8.95 4.36C8.59 4.2 8.37 3.96 8.29 3.64C8.23 3.66 8.12 3.67 7.96 3.67C7.68 3.67 7.44 3.6 7.24 3.46C7.06 3.54 6.85 3.58 6.61 3.58C6.21 3.58 5.83 3.47 5.47 3.25C5.13 3.39 4.78 3.46 4.42 3.46C4.02 3.46 3.68 3.36 3.4 3.16C3.28 3.22 3.14 3.25 2.98 3.25C2.96 3.25 2.95 3.26 2.95 3.28C3.03 3.36 3.09 3.53 3.13 3.79C3.19 4.03 3.22 4.31 3.22 4.63C3.22 5.43 3.12 5.94 2.92 6.16C3.02 6.32 3.11 6.62 3.19 7.06C3.27 7.48 3.31 7.91 3.31 8.35C3.31 8.95 3.24 9.39 3.1 9.67C3.24 9.93 3.31 10.29 3.31 10.75C3.31 11.33 3.19 11.79 2.95 12.13C3.09 12.53 3.18 13.08 3.22 13.78L3.28 14.47C3.3 14.65 3.29 14.87 3.25 15.13C3.21 15.39 3.19 15.62 3.19 15.82C3.19 16.02 3.22 16.23 3.28 16.45C3.32 16.73 3.34 16.94 3.34 17.08C3.34 17.26 3.31 17.43 3.25 17.59C3.33 17.69 3.41 17.86 3.49 18.1C3.57 18.34 3.58 18.54 3.52 18.7C3.74 18.58 3.96 18.52 4.18 18.52C4.52 18.52 4.77 18.62 4.93 18.82Z" fill="#3EAD17"/>
<path d="M29.5586 10.27C29.7786 10.37 29.9786 10.61 30.1586 10.99C30.3586 11.37 30.4586 11.76 30.4586 12.16C30.4586 12.84 30.1586 13.3 29.5586 13.54C29.3986 13.82 29.1786 14.04 28.8986 14.2C28.6386 14.36 28.3486 14.44 28.0286 14.44C27.7686 14.44 27.4986 14.38 27.2186 14.26C27.0586 14.36 26.8386 14.45 26.5586 14.53C26.2786 14.61 25.9986 14.65 25.7186 14.65C25.2386 14.65 24.9086 14.55 24.7286 14.35C24.5286 14.51 24.2086 14.59 23.7686 14.59C23.4486 14.59 23.1586 14.53 22.8986 14.41C22.6186 14.55 22.2986 14.62 21.9386 14.62C21.5986 14.62 21.3186 14.57 21.0986 14.47C20.8986 14.65 20.4886 14.74 19.8686 14.74C19.5286 14.74 19.2986 14.71 19.1786 14.65C19.2386 15.23 19.1586 15.66 18.9386 15.94C19.3186 16.32 19.4686 16.73 19.3886 17.17C19.4086 17.19 19.5186 17.27 19.7186 17.41C19.9186 17.55 20.0586 17.78 20.1386 18.1C20.3586 18.1 20.5586 18.19 20.7386 18.37C20.9386 18.55 21.0586 18.73 21.0986 18.91C21.1786 18.83 21.3386 18.79 21.5786 18.79C21.7586 18.79 21.9186 18.82 22.0586 18.88C22.1986 18.94 22.2786 19.01 22.2986 19.09C22.4386 19.01 22.5986 18.97 22.7786 18.97C23.0386 18.97 23.2786 19.06 23.4986 19.24C23.6986 19.2 23.8486 19.18 23.9486 19.18C24.1486 19.18 24.3186 19.21 24.4586 19.27C24.5186 19.11 24.6786 18.96 24.9386 18.82C25.1986 18.66 25.4686 18.59 25.7486 18.61C25.9086 18.41 26.1286 18.25 26.4086 18.13C26.6886 18.01 26.9686 17.95 27.2486 17.95C27.7886 17.95 28.1786 18.17 28.4186 18.61C28.4986 18.77 28.5386 18.96 28.5386 19.18C28.5386 19.66 28.3186 20.04 27.8786 20.32C27.7786 20.38 27.6086 20.49 27.3686 20.65C27.1286 20.79 26.9086 20.9 26.7086 20.98C26.5086 21.06 26.3286 21.1 26.1686 21.1C25.8686 21.46 25.4586 21.64 24.9386 21.64C24.6986 21.64 24.5186 21.62 24.3986 21.58C24.1586 21.78 23.8086 21.88 23.3486 21.88C22.9286 21.88 22.6386 21.8 22.4786 21.64C22.3386 21.7 22.1986 21.73 22.0586 21.73C21.7786 21.73 21.5186 21.63 21.2786 21.43C20.2586 21.49 19.5686 21.17 19.2086 20.47C18.9286 20.47 18.6086 20.3 18.2486 19.96C17.9086 19.6 17.7186 19.29 17.6786 19.03C17.2186 18.85 16.9286 18.52 16.8086 18.04C16.7886 17.88 16.7886 17.73 16.8086 17.59C16.7286 17.57 16.6586 17.49 16.5986 17.35C16.5586 17.19 16.5386 17.03 16.5386 16.87C16.5386 16.75 16.5486 16.67 16.5686 16.63C16.4086 16.15 16.3286 15.71 16.3286 15.31C16.3286 14.91 16.4086 14.55 16.5686 14.23C16.4486 14.01 16.3886 13.77 16.3886 13.51C16.3886 13.19 16.4586 12.87 16.5986 12.55C16.7386 12.23 16.8686 12.02 16.9886 11.92C16.9486 11.82 16.9786 11.65 17.0786 11.41C17.1786 11.15 17.3086 10.92 17.4686 10.72C17.6486 10.5 17.8286 10.37 18.0086 10.33L17.9786 10C17.9786 9.22 18.3986 8.73 19.2386 8.53C19.2386 8.19 19.4386 7.86 19.8386 7.54C20.2386 7.22 20.5886 7.08 20.8886 7.12C20.9286 6.9 21.1186 6.73 21.4586 6.61C21.8186 6.47 22.0886 6.43 22.2686 6.49C22.4286 6.23 22.7486 6.05 23.2286 5.95C23.4086 5.75 23.6686 5.65 24.0086 5.65C24.1086 5.65 24.2386 5.67 24.3986 5.71L24.6686 5.68C24.9086 5.68 25.1086 5.73 25.2686 5.83C25.4486 5.91 25.5286 6.01 25.5086 6.13C25.9486 6.17 26.3186 6.27 26.6186 6.43C26.9186 6.59 27.0986 6.88 27.1586 7.3C27.4186 7.24 27.7486 7.31 28.1486 7.51C28.5486 7.69 28.8886 7.98 29.1686 8.38C29.4686 8.76 29.6186 9.21 29.6186 9.73C29.6186 9.85 29.5986 10.03 29.5586 10.27ZM25.1486 12.22C25.3486 11.94 25.8386 11.8 26.6186 11.8C27.0586 11.8 27.3986 11.84 27.6386 11.92C27.4786 11.84 27.3286 11.67 27.1886 11.41C27.0686 11.13 27.0086 10.87 27.0086 10.63C27.0086 10.47 27.0386 10.35 27.0986 10.27C26.8186 10.29 26.5786 10.22 26.3786 10.06C26.1986 9.88 26.0286 9.68 25.8686 9.46C25.7286 9.24 25.6186 9.08 25.5386 8.98C25.4386 9.04 25.2286 8.99 24.9086 8.83C24.6086 8.65 24.4486 8.47 24.4286 8.29C24.3486 8.39 24.1786 8.48 23.9186 8.56C23.6586 8.62 23.4586 8.64 23.3186 8.62C23.2586 8.72 23.1186 8.82 22.8986 8.92C22.6786 9.02 22.4486 9.05 22.2086 9.01C22.0086 9.39 21.7986 9.7 21.5786 9.94C21.3586 10.18 21.0786 10.36 20.7386 10.48C20.6986 10.76 20.5686 11.07 20.3486 11.41C20.1486 11.75 19.9386 12.01 19.7186 12.19L19.8386 12.22C20.1186 12.02 20.4986 11.92 20.9786 11.92C21.2586 11.92 21.5186 11.95 21.7586 12.01C22.0186 12.07 22.1986 12.14 22.2986 12.22C22.7786 11.92 23.3086 11.77 23.8886 11.77C24.3686 11.77 24.7886 11.92 25.1486 12.22Z" fill="#FA4E28"/>
<path d="M31.4535 10.36C31.2935 10.1 31.2135 9.85 31.2135 9.61C31.2135 9.25 31.3335 8.95 31.5735 8.71C31.6335 8.41 31.7735 8.13 31.9935 7.87C32.2135 7.59 32.4535 7.38 32.7135 7.24C32.9935 7.08 33.2135 7.02 33.3735 7.06C33.5135 6.84 33.7935 6.64 34.2135 6.46C34.6335 6.26 35.0235 6.16 35.3835 6.16C35.4635 6.16 35.5835 6.18 35.7435 6.22C35.9635 5.98 36.2535 5.86 36.6135 5.86C36.8935 5.86 37.0935 5.94 37.2135 6.1C37.4735 5.92 37.8135 5.83 38.2335 5.83C38.7335 5.83 39.1735 5.95 39.5535 6.19C39.9535 6.43 40.1835 6.75 40.2435 7.15C40.6035 7.27 40.8735 7.46 41.0535 7.72C41.2535 7.96 41.3735 8.3 41.4135 8.74C41.6735 9 41.8635 9.31 41.9835 9.67C42.1035 10.01 42.1635 10.36 42.1635 10.72C42.1635 11.18 42.0835 11.55 41.9235 11.83C42.0635 12.03 42.1835 12.33 42.2835 12.73C42.3835 13.13 42.4335 13.52 42.4335 13.9C42.4335 14.06 42.4135 14.26 42.3735 14.5C42.5135 14.8 42.5835 15 42.5835 15.1C42.5835 15.16 42.5535 15.3 42.4935 15.52C42.5135 15.6 42.5335 15.7 42.5535 15.82C42.5735 15.92 42.5835 16.05 42.5835 16.21C42.5835 16.51 42.4735 16.78 42.2535 17.02C42.3335 17.24 42.3735 17.51 42.3735 17.83C42.3735 18.25 42.2735 18.59 42.0735 18.85C42.1135 18.93 42.1335 19.06 42.1335 19.24C42.1335 19.66 41.9635 20.01 41.6235 20.29C41.5435 20.57 41.3935 20.79 41.1735 20.95C40.9535 21.09 40.7135 21.16 40.4535 21.16C40.1935 21.16 39.9835 21.08 39.8235 20.92C39.3035 21.14 38.8835 21.25 38.5635 21.25C38.4035 21.25 38.2835 21.24 38.2035 21.22C37.6835 21.38 37.2435 21.46 36.8835 21.46C36.6235 21.46 36.2635 21.41 35.8035 21.31C35.5235 21.47 35.2535 21.55 34.9935 21.55C34.7535 21.55 34.5335 21.48 34.3335 21.34C34.2335 21.36 34.0835 21.37 33.8835 21.37C33.1035 21.37 32.5035 21.02 32.0835 20.32C31.3235 19.88 30.9435 19.22 30.9435 18.34C30.9435 18.12 30.9535 17.95 30.9735 17.83C30.7935 17.71 30.7035 17.46 30.7035 17.08C30.7035 16.82 30.7535 16.59 30.8535 16.39C30.7735 16.03 30.7335 15.8 30.7335 15.7C30.7335 15.12 31.0135 14.6 31.5735 14.14C31.7935 13.68 32.0435 13.37 32.3235 13.21C32.6235 13.05 32.9935 12.93 33.4335 12.85C33.5535 12.51 33.8335 12.28 34.2735 12.16C34.7135 12.04 35.1435 12 35.5635 12.04C35.6835 11.96 35.8535 11.89 36.0735 11.83C36.2935 11.75 36.5135 11.71 36.7335 11.71C36.9735 11.71 37.1835 11.75 37.3635 11.83C37.4035 11.79 37.5035 11.77 37.6635 11.77C37.7835 11.77 37.9035 11.78 38.0235 11.8C38.1435 11.82 38.2235 11.85 38.2635 11.89C38.5435 11.53 38.8735 11.35 39.2535 11.35C39.3735 11.35 39.4935 11.38 39.6135 11.44V11.35C39.6135 11.01 39.6835 10.77 39.8235 10.63C39.6235 10.57 39.4035 10.4 39.1635 10.12C38.9435 9.82 38.8135 9.55 38.7735 9.31C38.4535 9.17 38.2335 8.94 38.1135 8.62C37.8735 8.8 37.5935 8.89 37.2735 8.89C37.0535 8.89 36.8435 8.83 36.6435 8.71C36.3035 8.81 36.0835 8.85 35.9835 8.83C35.7035 9.03 35.3935 9.13 35.0535 9.13C34.7535 9.53 34.4035 9.71 34.0035 9.67C33.8235 9.99 33.5735 10.27 33.2535 10.51C32.9535 10.75 32.6435 10.87 32.3235 10.87C31.9635 10.87 31.6735 10.7 31.4535 10.36ZM33.1035 17.05C33.3435 17.29 33.4635 17.52 33.4635 17.74C33.4635 17.9 33.4235 18.1 33.3435 18.34C33.4235 18.34 33.5335 18.39 33.6735 18.49C33.8335 18.57 33.9235 18.66 33.9435 18.76C34.1035 18.7 34.3035 18.67 34.5435 18.67C34.9835 18.67 35.2735 18.77 35.4135 18.97C35.6335 18.89 35.8635 18.85 36.1035 18.85C36.4835 18.85 36.7835 18.96 37.0035 19.18C37.1635 19.02 37.4235 18.89 37.7835 18.79C38.1635 18.69 38.5035 18.64 38.8035 18.64C38.9835 18.28 39.3035 18.07 39.7635 18.01C39.8035 17.87 39.9135 17.69 40.0935 17.47C40.0135 17.35 39.9435 17.19 39.8835 16.99C39.8235 16.79 39.7935 16.59 39.7935 16.39C39.7935 15.97 39.8935 15.66 40.0935 15.46C39.8735 15.18 39.7635 14.85 39.7635 14.47C39.7635 14.21 39.8035 13.99 39.8835 13.81C39.7235 13.91 39.5435 13.96 39.3435 13.96C39.1635 13.96 39.0135 13.89 38.8935 13.75C38.7135 13.93 38.4635 14.02 38.1435 14.02C37.9435 14.02 37.7435 13.97 37.5435 13.87C37.3235 14.09 37.0535 14.2 36.7335 14.2C36.6335 14.2 36.4835 14.16 36.2835 14.08C35.9835 14.38 35.7135 14.47 35.4735 14.35C35.3535 14.63 35.1935 14.82 34.9935 14.92C34.8135 15.02 34.5535 15.07 34.2135 15.07C34.1335 15.29 33.9935 15.47 33.7935 15.61C33.6135 15.75 33.4235 15.8 33.2235 15.76C33.3235 15.9 33.3735 16.06 33.3735 16.24C33.3735 16.54 33.2835 16.81 33.1035 17.05Z" fill="#FFA800"/>
<path d="M46.8988 20.59C46.9788 21.03 46.8888 21.38 46.6288 21.64C46.3888 21.88 46.0888 22 45.7288 22C45.4088 22 45.1288 21.9 44.8888 21.7C44.6488 21.48 44.5288 21.18 44.5288 20.8C44.5288 20.56 44.5888 20.29 44.7088 19.99C44.5888 19.71 44.5288 19.42 44.5288 19.12C44.5288 18.88 44.5788 18.68 44.6788 18.52C44.5588 18.44 44.4688 18.32 44.4088 18.16C44.3488 18 44.3188 17.82 44.3188 17.62C44.3188 17.42 44.3588 17.2 44.4388 16.96C44.2588 16.74 44.1688 16.48 44.1688 16.18C44.1688 15.8 44.3088 15.49 44.5888 15.25C44.5688 15.19 44.5588 15.09 44.5588 14.95C44.5588 14.75 44.5788 14.61 44.6188 14.53C44.3988 14.25 44.2888 13.85 44.2888 13.33C44.2888 12.97 44.3588 12.69 44.4988 12.49C44.3588 12.37 44.2388 12.21 44.1388 12.01C44.0388 11.79 43.9888 11.57 43.9888 11.35C43.9888 11.11 44.0588 10.88 44.1988 10.66C44.0988 10.42 44.0488 10.21 44.0488 10.03C44.0488 9.73 44.1388 9.45 44.3188 9.19C44.0788 8.95 43.9588 8.7 43.9588 8.44C43.9588 8.24 44.0288 7.97 44.1688 7.63C44.0288 7.35 43.9588 7.05 43.9588 6.73C43.9588 6.31 44.1088 6.05 44.4088 5.95C44.4288 5.67 44.5288 5.44 44.7088 5.26C44.8888 5.08 45.1088 4.99 45.3688 4.99C45.6688 4.99 45.9288 5.14 46.1488 5.44C46.3888 5.72 46.5088 6.13 46.5088 6.67C46.5088 6.89 46.4988 7.07 46.4788 7.21C46.5588 7.17 46.6388 7.11 46.7188 7.03C46.7988 6.93 46.8988 6.86 47.0188 6.82C47.1388 6.78 47.3188 6.76 47.5588 6.76C47.5988 6.66 47.7288 6.56 47.9488 6.46C48.1888 6.36 48.4188 6.31 48.6388 6.31C48.7988 6.31 48.9088 6.33 48.9688 6.37C49.1288 6.29 49.2888 6.25 49.4488 6.25C49.6888 6.25 49.9488 6.42 50.2288 6.76C50.7088 6.72 51.0588 6.83 51.2788 7.09C51.5988 7.07 51.8788 7.11 52.1188 7.21C52.3588 7.31 52.5488 7.52 52.6888 7.84C53.0688 8.08 53.2588 8.4 53.2588 8.8C53.2588 9.14 53.1088 9.46 52.8088 9.76C52.5288 10.04 52.2188 10.18 51.8788 10.18C51.4988 10.18 51.1788 9.98 50.9188 9.58C50.6988 9.58 50.5288 9.56 50.4088 9.52C50.2888 9.48 50.1688 9.39 50.0488 9.25C49.9288 9.29 49.8288 9.31 49.7488 9.31C49.5688 9.31 49.3788 9.26 49.1788 9.16C48.8988 9.34 48.5988 9.42 48.2788 9.4C48.1588 9.68 47.8488 9.82 47.3488 9.82C47.3688 9.88 47.3788 9.98 47.3788 10.12C47.3788 10.38 47.3188 10.64 47.1988 10.9C47.0988 11.14 46.9688 11.32 46.8088 11.44C46.9688 11.82 47.0488 12.2 47.0488 12.58C47.0488 12.92 46.9688 13.18 46.8088 13.36C46.8688 13.44 46.9288 13.54 46.9888 13.66C47.0688 13.78 47.1288 13.89 47.1688 13.99C47.2088 14.15 47.2288 14.27 47.2288 14.35C47.2288 14.49 47.1788 14.68 47.0788 14.92C47.1788 15.16 47.2288 15.34 47.2288 15.46C47.2288 15.62 47.1588 15.84 47.0188 16.12C47.1388 16.32 47.1988 16.54 47.1988 16.78C47.1988 17.06 47.1288 17.3 46.9888 17.5C47.1288 17.82 47.1988 18.15 47.1988 18.49C47.1988 18.75 47.1388 18.99 47.0188 19.21C47.1188 19.41 47.1688 19.61 47.1688 19.81C47.1688 20.09 47.0788 20.35 46.8988 20.59Z" fill="#40A8E2"/>
<path d="M56.6615 19.12C56.8015 19.14 56.9215 19.24 57.0215 19.42C57.1215 19.6 57.1715 19.81 57.1715 20.05C57.1715 20.27 57.1315 20.46 57.0515 20.62C57.1315 20.96 57.0115 21.26 56.6915 21.52C56.3715 21.76 56.0115 21.88 55.6115 21.88C55.2915 21.88 55.0015 21.78 54.7415 21.58C54.5015 21.36 54.3615 21.04 54.3215 20.62C54.1615 20.42 54.0815 20.22 54.0815 20.02C54.0815 19.68 54.2215 19.37 54.5015 19.09C54.8015 18.79 55.1515 18.64 55.5515 18.64C55.9115 18.64 56.2815 18.8 56.6615 19.12ZM69.6079 4.93C69.6679 4.99 69.6979 5.09 69.6979 5.23C69.6979 5.41 69.6279 5.61 69.4879 5.83C69.3679 6.05 69.2079 6.22 69.0079 6.34C69.0479 6.38 69.0679 6.5 69.0679 6.7C69.0679 6.9 69.0479 7.09 69.0079 7.27C68.9879 7.43 68.9679 7.54 68.9479 7.6C69.0079 7.66 69.0679 7.79 69.1279 7.99C69.1879 8.19 69.2279 8.35 69.2479 8.47C69.4279 8.47 69.5979 8.53 69.7579 8.65C69.9179 8.77 70.0379 8.94 70.1179 9.16C70.1379 9.14 70.1879 9.13 70.2679 9.13C70.3879 9.13 70.5279 9.15 70.6879 9.19C70.8479 9.23 70.9779 9.27 71.0779 9.31C71.1379 9.25 71.2679 9.22 71.4679 9.22C71.8079 9.22 72.0279 9.3 72.1279 9.46C72.2279 9.4 72.3579 9.37 72.5179 9.37C72.8379 9.37 73.0779 9.45 73.2379 9.61C73.3379 9.53 73.5479 9.49 73.8679 9.49C74.0879 9.49 74.3079 9.52 74.5279 9.58C74.7479 9.64 74.8879 9.72 74.9479 9.82C75.0079 9.8 75.0979 9.79 75.2179 9.79C75.5579 9.79 75.8779 9.88 76.1779 10.06C76.4979 10.22 76.6579 10.4 76.6579 10.6C76.9179 10.56 77.1579 10.62 77.3779 10.78C77.5979 10.94 77.7779 11.14 77.9179 11.38C78.2779 11.44 78.6179 11.77 78.9379 12.37C79.2579 12.97 79.4179 13.53 79.4179 14.05C79.4179 14.29 79.3679 14.49 79.2679 14.65C79.5679 14.85 79.7179 15.22 79.7179 15.76C79.7179 16.14 79.6379 16.49 79.4779 16.81C79.5179 16.97 79.5379 17.09 79.5379 17.17C79.5379 17.51 79.4379 17.85 79.2379 18.19C79.0579 18.51 78.8379 18.71 78.5779 18.79C78.5179 19.13 78.3379 19.45 78.0379 19.75C77.7379 20.03 77.4279 20.24 77.1079 20.38C77.0679 20.64 76.8779 20.9 76.5379 21.16C76.1979 21.4 75.8679 21.48 75.5479 21.4C75.4079 21.58 75.1479 21.73 74.7679 21.85C74.4079 21.95 74.0179 22 73.5979 22C73.1979 22 72.8279 21.95 72.4879 21.85C72.1679 21.75 71.9479 21.6 71.8279 21.4C71.6479 21.48 71.4479 21.52 71.2279 21.52C70.9479 21.52 70.6779 21.45 70.4179 21.31C70.1779 21.17 70.0079 20.98 69.9079 20.74C69.6679 20.8 69.4079 20.75 69.1279 20.59C68.8679 20.41 68.6779 20.14 68.5579 19.78C68.2379 19.78 67.9079 19.67 67.5679 19.45C67.2479 19.23 67.0679 19.01 67.0279 18.79C66.7079 18.73 66.4579 18.59 66.2779 18.37C66.1179 18.15 66.0379 17.9 66.0379 17.62C66.0379 17.3 66.1379 17.01 66.3379 16.75C66.5579 16.49 66.8379 16.36 67.1779 16.36C67.3579 16.36 67.4979 16.38 67.5979 16.42C67.7579 16.38 67.8679 16.36 67.9279 16.36C68.2279 16.36 68.4979 16.46 68.7379 16.66C68.9979 16.86 69.1379 17.11 69.1579 17.41C69.2779 17.37 69.3779 17.35 69.4579 17.35C69.7379 17.35 69.9879 17.48 70.2079 17.74C70.4479 17.98 70.5879 18.26 70.6279 18.58C70.7479 18.52 70.8779 18.49 71.0179 18.49C71.2379 18.49 71.4479 18.55 71.6479 18.67C71.8479 18.79 71.9579 18.93 71.9779 19.09C72.1579 19.03 72.3379 19 72.5179 19C72.8379 19 73.0979 19.13 73.2979 19.39C73.4779 19.27 73.6679 19.21 73.8679 19.21C73.9679 19.21 74.1379 19.25 74.3779 19.33C74.6379 18.95 74.8979 18.8 75.1579 18.88C75.3179 18.66 75.4979 18.47 75.6979 18.31C75.8979 18.13 76.0979 18.03 76.2979 18.01C76.3779 17.79 76.4679 17.63 76.5679 17.53C76.6679 17.41 76.8279 17.29 77.0479 17.17C77.0079 17.09 76.9879 16.99 76.9879 16.87C76.9879 16.67 77.0279 16.46 77.1079 16.24C77.1879 16.02 77.2779 15.88 77.3779 15.82C77.2179 15.64 77.1379 15.43 77.1379 15.19C77.1379 14.99 77.2079 14.76 77.3479 14.5C76.9879 14.28 76.8079 13.96 76.8079 13.54C76.5079 13.44 76.2879 13.3 76.1479 13.12C75.8079 13.14 75.5279 13.09 75.3079 12.97C75.0879 12.83 74.9479 12.63 74.8879 12.37C74.7279 12.41 74.6179 12.43 74.5579 12.43C74.3579 12.43 74.1679 12.39 73.9879 12.31C73.8079 12.21 73.6579 12.08 73.5379 11.92C73.4179 12.02 73.2579 12.07 73.0579 12.07C72.7979 12.07 72.5179 11.97 72.2179 11.77C72.0179 11.87 71.8279 11.92 71.6479 11.92C71.3879 11.92 71.1779 11.87 71.0179 11.77C70.8979 11.81 70.7979 11.83 70.7179 11.83C70.5379 11.83 70.3679 11.8 70.2079 11.74C70.0679 11.66 69.9879 11.57 69.9679 11.47C69.2479 11.47 68.8579 11.34 68.7979 11.08C68.5579 11.04 68.3279 10.96 68.1079 10.84C67.8879 10.7 67.7679 10.54 67.7479 10.36C67.5479 10.32 67.3779 10.21 67.2379 10.03C67.0979 9.83 67.0279 9.59 67.0279 9.31C66.8479 9.17 66.6979 8.92 66.5779 8.56C66.4579 8.2 66.3979 7.82 66.3979 7.42C66.3979 6.78 66.5279 6.34 66.7879 6.1C66.7479 5.98 66.7279 5.86 66.7279 5.74C66.7279 5.46 66.7779 5.17 66.8779 4.87C66.9979 4.57 67.1179 4.39 67.2379 4.33C67.2379 4.07 67.3079 3.77 67.4479 3.43C67.6279 3.19 67.8379 2.99 68.0779 2.83C68.3179 2.65 68.5779 2.56 68.8579 2.56C68.8979 2.34 69.0179 2.15 69.2179 1.99C69.4379 1.83 69.6879 1.75 69.9679 1.75C70.0479 1.51 70.2179 1.32 70.4779 1.18C70.7379 1.04 71.0279 0.969999 71.3479 0.969999C71.5879 0.969999 71.7979 0.999999 71.9779 1.06C72.0379 0.96 72.1479 0.88 72.3079 0.819999C72.4679 0.759999 72.6379 0.729998 72.8179 0.729998C72.9179 0.729998 73.0279 0.749999 73.1479 0.789999C73.3279 0.609999 73.6479 0.519999 74.1079 0.519999C74.6079 0.519999 74.9879 0.609999 75.2479 0.789999C75.3279 0.77 75.4379 0.76 75.5779 0.76C76.1779 0.76 76.6879 1.11 77.1079 1.81C77.3279 1.77 77.5679 1.83 77.8279 1.99C78.1079 2.15 78.3279 2.37 78.4879 2.65C78.6679 2.91 78.7479 3.16 78.7279 3.4C79.0679 3.64 79.3079 3.89 79.4479 4.15C79.5879 4.41 79.6979 4.8 79.7779 5.32C79.7979 5.68 79.6879 5.97 79.4479 6.19C79.2079 6.41 78.9279 6.52 78.6079 6.52C78.3079 6.52 78.0479 6.41 77.8279 6.19C77.5879 6.15 77.3779 6.03 77.1979 5.83C77.0179 5.63 76.9379 5.43 76.9579 5.23C76.3979 4.85 76.1479 4.43 76.2079 3.97C75.9679 4.01 75.6679 3.95 75.3079 3.79C74.9679 3.61 74.7079 3.38 74.5279 3.1C74.3879 3.3 74.1079 3.4 73.6879 3.4C73.3879 3.4 73.1379 3.35 72.9379 3.25C72.7979 3.43 72.5479 3.52 72.1879 3.52C72.0079 3.52 71.8379 3.49 71.6779 3.43C71.5979 3.65 71.4579 3.84 71.2579 4C71.0779 4.14 70.8679 4.23 70.6279 4.27C70.5079 4.45 70.3579 4.61 70.1779 4.75C69.9979 4.87 69.8079 4.93 69.6079 4.93ZM82.1781 10.36C82.0181 10.1 81.9381 9.85 81.9381 9.61C81.9381 9.25 82.0581 8.95 82.2981 8.71C82.3581 8.41 82.4981 8.13 82.7181 7.87C82.9381 7.59 83.1781 7.38 83.4381 7.24C83.7181 7.08 83.9381 7.02 84.0981 7.06C84.2381 6.84 84.5181 6.64 84.9381 6.46C85.3581 6.26 85.7481 6.16 86.1081 6.16C86.1881 6.16 86.3081 6.18 86.4681 6.22C86.6881 5.98 86.9781 5.86 87.3381 5.86C87.6181 5.86 87.8181 5.94 87.9381 6.1C88.1981 5.92 88.5381 5.83 88.9581 5.83C89.4581 5.83 89.8981 5.95 90.2781 6.19C90.6781 6.43 90.9081 6.75 90.9681 7.15C91.3281 7.27 91.5981 7.46 91.7781 7.72C91.9781 7.96 92.0981 8.3 92.1381 8.74C92.3981 9 92.5881 9.31 92.7081 9.67C92.8281 10.01 92.8881 10.36 92.8881 10.72C92.8881 11.18 92.8081 11.55 92.6481 11.83C92.7881 12.03 92.9081 12.33 93.0081 12.73C93.1081 13.13 93.1581 13.52 93.1581 13.9C93.1581 14.06 93.1381 14.26 93.0981 14.5C93.2381 14.8 93.3081 15 93.3081 15.1C93.3081 15.16 93.2781 15.3 93.2181 15.52C93.2381 15.6 93.2581 15.7 93.2781 15.82C93.2981 15.92 93.3081 16.05 93.3081 16.21C93.3081 16.51 93.1981 16.78 92.9781 17.02C93.0581 17.24 93.0981 17.51 93.0981 17.83C93.0981 18.25 92.9981 18.59 92.7981 18.85C92.8381 18.93 92.8581 19.06 92.8581 19.24C92.8581 19.66 92.6881 20.01 92.3481 20.29C92.2681 20.57 92.1181 20.79 91.8981 20.95C91.6781 21.09 91.4381 21.16 91.1781 21.16C90.9181 21.16 90.7081 21.08 90.5481 20.92C90.0281 21.14 89.6081 21.25 89.2881 21.25C89.1281 21.25 89.0081 21.24 88.9281 21.22C88.4081 21.38 87.9681 21.46 87.6081 21.46C87.3481 21.46 86.9881 21.41 86.5281 21.31C86.2481 21.47 85.9781 21.55 85.7181 21.55C85.4781 21.55 85.2581 21.48 85.0581 21.34C84.9581 21.36 84.8081 21.37 84.6081 21.37C83.8281 21.37 83.2281 21.02 82.8081 20.32C82.0481 19.88 81.6681 19.22 81.6681 18.34C81.6681 18.12 81.6781 17.95 81.6981 17.83C81.5181 17.71 81.4281 17.46 81.4281 17.08C81.4281 16.82 81.4781 16.59 81.5781 16.39C81.4981 16.03 81.4581 15.8 81.4581 15.7C81.4581 15.12 81.7381 14.6 82.2981 14.14C82.5181 13.68 82.7681 13.37 83.0481 13.21C83.3481 13.05 83.7181 12.93 84.1581 12.85C84.2781 12.51 84.5581 12.28 84.9981 12.16C85.4381 12.04 85.8681 12 86.2881 12.04C86.4081 11.96 86.5781 11.89 86.7981 11.83C87.0181 11.75 87.2381 11.71 87.4581 11.71C87.6981 11.71 87.9081 11.75 88.0881 11.83C88.1281 11.79 88.2281 11.77 88.3881 11.77C88.5081 11.77 88.6281 11.78 88.7481 11.8C88.8681 11.82 88.9481 11.85 88.9881 11.89C89.2681 11.53 89.5981 11.35 89.9781 11.35C90.0981 11.35 90.2181 11.38 90.3381 11.44V11.35C90.3381 11.01 90.4081 10.77 90.5481 10.63C90.3481 10.57 90.1281 10.4 89.8881 10.12C89.6681 9.82 89.5381 9.55 89.4981 9.31C89.1781 9.17 88.9581 8.94 88.8381 8.62C88.5981 8.8 88.3181 8.89 87.9981 8.89C87.7781 8.89 87.5681 8.83 87.3681 8.71C87.0281 8.81 86.8081 8.85 86.7081 8.83C86.4281 9.03 86.1181 9.13 85.7781 9.13C85.4781 9.53 85.1281 9.71 84.7281 9.67C84.5481 9.99 84.2981 10.27 83.9781 10.51C83.6781 10.75 83.3681 10.87 83.0481 10.87C82.6881 10.87 82.3981 10.7 82.1781 10.36ZM83.8281 17.05C84.0681 17.29 84.1881 17.52 84.1881 17.74C84.1881 17.9 84.1481 18.1 84.0681 18.34C84.1481 18.34 84.2581 18.39 84.3981 18.49C84.5581 18.57 84.6481 18.66 84.6681 18.76C84.8281 18.7 85.0281 18.67 85.2681 18.67C85.7081 18.67 85.9981 18.77 86.1381 18.97C86.3581 18.89 86.5881 18.85 86.8281 18.85C87.2081 18.85 87.5081 18.96 87.7281 19.18C87.8881 19.02 88.1481 18.89 88.5081 18.79C88.8881 18.69 89.2281 18.64 89.5281 18.64C89.7081 18.28 90.0281 18.07 90.4881 18.01C90.5281 17.87 90.6381 17.69 90.8181 17.47C90.7381 17.35 90.6681 17.19 90.6081 16.99C90.5481 16.79 90.5181 16.59 90.5181 16.39C90.5181 15.97 90.6181 15.66 90.8181 15.46C90.5981 15.18 90.4881 14.85 90.4881 14.47C90.4881 14.21 90.5281 13.99 90.6081 13.81C90.4481 13.91 90.2681 13.96 90.0681 13.96C89.8881 13.96 89.7381 13.89 89.6181 13.75C89.4381 13.93 89.1881 14.02 88.8681 14.02C88.6681 14.02 88.4681 13.97 88.2681 13.87C88.0481 14.09 87.7781 14.2 87.4581 14.2C87.3581 14.2 87.2081 14.16 87.0081 14.08C86.7081 14.38 86.4381 14.47 86.1981 14.35C86.0781 14.63 85.9181 14.82 85.7181 14.92C85.5381 15.02 85.2781 15.07 84.9381 15.07C84.8581 15.29 84.7181 15.47 84.5181 15.61C84.3381 15.75 84.1481 15.8 83.9481 15.76C84.0481 15.9 84.0981 16.06 84.0981 16.24C84.0981 16.54 84.0081 16.81 83.8281 17.05ZM100.315 9.16C100.355 9.38 100.285 9.58 100.105 9.76C99.9452 9.92 99.7452 10.01 99.5052 10.03C99.3652 10.43 98.9952 10.67 98.3952 10.75C98.4152 11.09 98.3452 11.38 98.1852 11.62C98.0252 11.84 97.8452 11.97 97.6452 12.01C97.6452 12.53 97.5352 13.07 97.3152 13.63C97.3552 13.79 97.3752 13.93 97.3752 14.05C97.3752 14.45 97.2952 14.81 97.1352 15.13C97.2352 15.33 97.2852 15.56 97.2852 15.82C97.2852 16.16 97.2252 16.51 97.1052 16.87C97.2852 17.11 97.3752 17.38 97.3752 17.68C97.3752 17.86 97.3252 18.07 97.2252 18.31C97.2852 18.43 97.3152 18.62 97.3152 18.88C97.3152 19.32 97.2252 19.64 97.0452 19.84C97.1252 20.12 97.1652 20.34 97.1652 20.5C97.1652 20.66 97.1352 20.8 97.0752 20.92C97.0752 21.26 96.9452 21.53 96.6852 21.73C96.4252 21.91 96.1152 22 95.7552 22C95.4152 22 95.1152 21.91 94.8552 21.73C94.6152 21.53 94.5052 21.26 94.5252 20.92C94.4652 20.74 94.4352 20.55 94.4352 20.35C94.4352 19.93 94.5052 19.53 94.6452 19.15C94.4652 18.91 94.3752 18.65 94.3752 18.37C94.3752 18.19 94.4252 17.98 94.5252 17.74C94.3852 17.52 94.3152 17.27 94.3152 16.99C94.3152 16.79 94.3552 16.61 94.4352 16.45C94.5152 16.29 94.6152 16.16 94.7352 16.06C94.4552 15.74 94.3152 15.37 94.3152 14.95C94.3152 14.55 94.4452 14.21 94.7052 13.93C94.6252 13.83 94.5552 13.68 94.4952 13.48C94.4352 13.28 94.4052 13.08 94.4052 12.88C94.4052 12.62 94.4652 12.43 94.5852 12.31C94.4252 11.95 94.3452 11.54 94.3452 11.08C94.3452 10.68 94.4052 10.41 94.5252 10.27C94.3452 9.87 94.2552 9.49 94.2552 9.13C94.2552 8.73 94.3452 8.44 94.5252 8.26C94.2052 7.88 94.0452 7.46 94.0452 7C94.0452 6.44 94.2852 6.03 94.7652 5.77C95.0052 5.65 95.2452 5.59 95.4852 5.59C95.8652 5.59 96.1852 5.75 96.4452 6.07C96.7052 6.37 96.8352 6.73 96.8352 7.15C96.8352 7.37 96.7852 7.6 96.6852 7.84C96.9452 8.1 97.0752 8.43 97.0752 8.83C97.0752 9.11 97.0552 9.34 97.0152 9.52C97.1752 8.94 97.4052 8.6 97.7052 8.5C97.7052 8.12 97.8252 7.77 98.0652 7.45C98.3052 7.13 98.5852 6.89 98.9052 6.73C99.2452 6.57 99.5252 6.52 99.7452 6.58C100.245 6.04 100.785 5.77 101.365 5.77C101.625 5.77 101.855 5.82 102.055 5.92C102.235 5.78 102.505 5.71 102.865 5.71C103.165 5.71 103.445 5.77 103.705 5.89C103.965 5.99 104.135 6.15 104.215 6.37C104.935 6.41 105.445 6.71 105.745 7.27C106.005 7.29 106.255 7.44 106.495 7.72C106.755 8 106.885 8.32 106.885 8.68C106.885 8.84 106.835 9.04 106.735 9.28C107.195 9.46 107.425 9.81 107.425 10.33C107.425 10.51 107.415 10.64 107.395 10.72C107.655 10.86 107.835 11.01 107.935 11.17C108.055 11.31 108.115 11.49 108.115 11.71C108.115 11.95 108.055 12.27 107.935 12.67C108.175 12.85 108.295 13.15 108.295 13.57C108.295 14.01 108.185 14.34 107.965 14.56C108.145 14.86 108.235 15.23 108.235 15.67C108.235 16.11 108.135 16.46 107.935 16.72C108.055 17.32 108.115 17.74 108.115 17.98C108.115 18.4 108.025 18.69 107.845 18.85C108.005 19.21 108.085 19.56 108.085 19.9C108.085 20.36 107.975 20.7 107.755 20.92C107.775 21.24 107.635 21.5 107.335 21.7C107.055 21.9 106.735 22 106.375 22C106.095 22 105.855 21.93 105.655 21.79C105.455 21.65 105.355 21.45 105.355 21.19C105.195 20.81 105.115 20.38 105.115 19.9C105.115 19.16 105.295 18.62 105.655 18.28C105.515 18.1 105.385 17.81 105.265 17.41C105.165 16.99 105.115 16.6 105.115 16.24C105.115 15.74 105.215 15.43 105.415 15.31C105.255 15.01 105.175 14.7 105.175 14.38C105.175 14.02 105.285 13.58 105.505 13.06C105.325 12.92 105.175 12.71 105.055 12.43C104.935 12.15 104.875 11.88 104.875 11.62C104.875 11.54 104.895 11.42 104.935 11.26C104.715 11.08 104.515 10.79 104.335 10.39C104.175 9.99 104.105 9.63 104.125 9.31C103.945 9.29 103.765 9.23 103.585 9.13C103.405 9.03 103.265 8.89 103.165 8.71H102.835C102.495 8.71 102.255 8.64 102.115 8.5C101.955 8.7 101.685 8.88 101.305 9.04C100.945 9.18 100.625 9.22 100.345 9.16H100.315ZM118.664 19.42C118.684 19.32 118.734 19.25 118.814 19.21C118.914 19.17 119.024 19.14 119.144 19.12C119.224 19.1 119.324 19.09 119.444 19.09C119.784 19.09 120.054 19.22 120.254 19.48C120.474 19.72 120.584 20.01 120.584 20.35C120.584 20.61 120.514 20.84 120.374 21.04C120.234 21.22 120.024 21.35 119.744 21.43C119.324 21.79 118.824 21.94 118.244 21.88C118.084 22.02 117.874 22.09 117.614 22.09C117.254 22.09 116.924 21.96 116.624 21.7C116.424 21.66 116.184 21.56 115.904 21.4C115.624 21.22 115.484 21.06 115.484 20.92C115.204 20.88 114.914 20.72 114.614 20.44C114.334 20.16 114.234 19.82 114.314 19.42C114.094 19.18 113.964 18.93 113.924 18.67C113.684 18.55 113.504 18.37 113.384 18.13C113.284 17.89 113.254 17.64 113.294 17.38C113.034 17.14 112.904 16.78 112.904 16.3C112.904 16.12 112.924 15.89 112.964 15.61C112.684 15.39 112.544 15.09 112.544 14.71C112.544 14.37 112.654 14.09 112.874 13.87C112.634 13.63 112.514 13.32 112.514 12.94C112.514 12.8 112.554 12.63 112.634 12.43C112.514 12.19 112.454 11.95 112.454 11.71C112.454 11.39 112.544 11.14 112.724 10.96C112.604 10.72 112.544 10.46 112.544 10.18C112.544 9.94 112.574 9.73 112.634 9.55C112.714 9.35 112.804 9.2 112.904 9.1C112.684 8.84 112.574 8.56 112.574 8.26C112.574 8.1 112.604 7.93 112.664 7.75C112.484 7.81 112.284 7.84 112.064 7.84C111.724 7.84 111.474 7.77 111.314 7.63C111.074 7.69 110.864 7.72 110.684 7.72C110.324 7.72 109.954 7.61 109.574 7.39C109.374 7.51 109.164 7.57 108.944 7.57C108.624 7.57 108.364 7.44 108.164 7.18C107.944 6.9 107.834 6.59 107.834 6.25C107.834 5.95 107.934 5.7 108.134 5.5C108.314 5.28 108.584 5.16 108.944 5.14C109.184 5.04 109.404 4.99 109.604 4.99C110.004 4.99 110.354 5.09 110.654 5.29C110.914 5.19 111.204 5.14 111.524 5.14C111.804 5.14 112.024 5.19 112.184 5.29C112.204 5.21 112.284 5.14 112.424 5.08C112.584 5 112.714 4.97 112.814 4.99C112.734 4.81 112.694 4.57 112.694 4.27C112.694 3.91 112.774 3.72 112.934 3.7C112.794 3.5 112.724 3.21 112.724 2.83C112.724 2.31 112.854 1.95 113.114 1.75C113.094 1.35 113.174 1.05 113.354 0.849999C113.534 0.649999 113.764 0.549999 114.044 0.549999C114.324 0.549999 114.584 0.649999 114.824 0.849999C115.064 1.03 115.184 1.27 115.184 1.57C115.184 1.77 115.104 2 114.944 2.26C115.144 2.44 115.244 2.74 115.244 3.16C115.244 3.34 115.214 3.53 115.154 3.73C115.114 3.91 115.054 4.05 114.974 4.15C115.094 4.23 115.154 4.39 115.154 4.63C115.154 4.83 115.104 5.1 115.004 5.44C115.184 5.38 115.374 5.35 115.574 5.35C115.874 5.35 116.104 5.42 116.264 5.56C116.464 5.46 116.624 5.41 116.744 5.41C116.944 5.41 117.104 5.49 117.224 5.65C117.364 5.55 117.534 5.5 117.734 5.5C118.014 5.5 118.234 5.61 118.394 5.83C118.774 5.83 119.054 5.92 119.234 6.1C119.434 6.26 119.534 6.47 119.534 6.73C119.534 7.05 119.404 7.36 119.144 7.66C118.904 7.94 118.624 8.08 118.304 8.08C118.124 8.08 117.944 8.02 117.764 7.9C117.564 8.06 117.304 8.14 116.984 8.14C116.684 8.14 116.434 8.07 116.234 7.93C115.974 8.03 115.784 8.08 115.664 8.08C115.504 8.08 115.314 8.01 115.094 7.87C115.274 8.11 115.364 8.37 115.364 8.65C115.364 8.95 115.244 9.22 115.004 9.46C115.184 9.7 115.274 10 115.274 10.36C115.274 10.68 115.184 10.98 115.004 11.26C115.244 11.42 115.364 11.68 115.364 12.04C115.364 12.34 115.274 12.6 115.094 12.82C115.294 13.04 115.394 13.43 115.394 13.99C115.394 14.23 115.364 14.43 115.304 14.59C115.444 14.79 115.514 15 115.514 15.22C115.514 15.34 115.484 15.5 115.424 15.7C115.384 15.88 115.354 16.03 115.334 16.15C115.574 16.43 115.694 16.7 115.694 16.96C116.034 17.22 116.204 17.53 116.204 17.89C116.604 18.11 116.804 18.48 116.804 19C116.844 19.06 116.884 19.1 116.924 19.12C116.964 19.14 116.994 19.16 117.014 19.18L117.224 19.15C117.524 19.15 117.764 19.24 117.944 19.42C118.104 19.38 118.234 19.36 118.334 19.36C118.394 19.36 118.504 19.38 118.664 19.42ZM121.314 10.36C121.154 10.1 121.074 9.85 121.074 9.61C121.074 9.25 121.194 8.95 121.434 8.71C121.494 8.41 121.634 8.13 121.854 7.87C122.074 7.59 122.314 7.38 122.574 7.24C122.854 7.08 123.074 7.02 123.234 7.06C123.374 6.84 123.654 6.64 124.074 6.46C124.494 6.26 124.884 6.16 125.244 6.16C125.324 6.16 125.444 6.18 125.604 6.22C125.824 5.98 126.114 5.86 126.474 5.86C126.754 5.86 126.954 5.94 127.074 6.1C127.334 5.92 127.674 5.83 128.094 5.83C128.594 5.83 129.034 5.95 129.414 6.19C129.814 6.43 130.044 6.75 130.104 7.15C130.464 7.27 130.734 7.46 130.914 7.72C131.114 7.96 131.234 8.3 131.274 8.74C131.534 9 131.724 9.31 131.844 9.67C131.964 10.01 132.024 10.36 132.024 10.72C132.024 11.18 131.944 11.55 131.784 11.83C131.924 12.03 132.044 12.33 132.144 12.73C132.244 13.13 132.294 13.52 132.294 13.9C132.294 14.06 132.274 14.26 132.234 14.5C132.374 14.8 132.444 15 132.444 15.1C132.444 15.16 132.414 15.3 132.354 15.52C132.374 15.6 132.394 15.7 132.414 15.82C132.434 15.92 132.444 16.05 132.444 16.21C132.444 16.51 132.334 16.78 132.114 17.02C132.194 17.24 132.234 17.51 132.234 17.83C132.234 18.25 132.134 18.59 131.934 18.85C131.974 18.93 131.994 19.06 131.994 19.24C131.994 19.66 131.824 20.01 131.484 20.29C131.404 20.57 131.254 20.79 131.034 20.95C130.814 21.09 130.574 21.16 130.314 21.16C130.054 21.16 129.844 21.08 129.684 20.92C129.164 21.14 128.744 21.25 128.424 21.25C128.264 21.25 128.144 21.24 128.064 21.22C127.544 21.38 127.104 21.46 126.744 21.46C126.484 21.46 126.124 21.41 125.664 21.31C125.384 21.47 125.114 21.55 124.854 21.55C124.614 21.55 124.394 21.48 124.194 21.34C124.094 21.36 123.944 21.37 123.744 21.37C122.964 21.37 122.364 21.02 121.944 20.32C121.184 19.88 120.804 19.22 120.804 18.34C120.804 18.12 120.814 17.95 120.834 17.83C120.654 17.71 120.564 17.46 120.564 17.08C120.564 16.82 120.614 16.59 120.714 16.39C120.634 16.03 120.594 15.8 120.594 15.7C120.594 15.12 120.874 14.6 121.434 14.14C121.654 13.68 121.904 13.37 122.184 13.21C122.484 13.05 122.854 12.93 123.294 12.85C123.414 12.51 123.694 12.28 124.134 12.16C124.574 12.04 125.004 12 125.424 12.04C125.544 11.96 125.714 11.89 125.934 11.83C126.154 11.75 126.374 11.71 126.594 11.71C126.834 11.71 127.044 11.75 127.224 11.83C127.264 11.79 127.364 11.77 127.524 11.77C127.644 11.77 127.764 11.78 127.884 11.8C128.004 11.82 128.084 11.85 128.124 11.89C128.404 11.53 128.734 11.35 129.114 11.35C129.234 11.35 129.354 11.38 129.474 11.44V11.35C129.474 11.01 129.544 10.77 129.684 10.63C129.484 10.57 129.264 10.4 129.024 10.12C128.804 9.82 128.674 9.55 128.634 9.31C128.314 9.17 128.094 8.94 127.974 8.62C127.734 8.8 127.454 8.89 127.134 8.89C126.914 8.89 126.704 8.83 126.504 8.71C126.164 8.81 125.944 8.85 125.844 8.83C125.564 9.03 125.254 9.13 124.914 9.13C124.614 9.53 124.264 9.71 123.864 9.67C123.684 9.99 123.434 10.27 123.114 10.51C122.814 10.75 122.504 10.87 122.184 10.87C121.824 10.87 121.534 10.7 121.314 10.36ZM122.964 17.05C123.204 17.29 123.324 17.52 123.324 17.74C123.324 17.9 123.284 18.1 123.204 18.34C123.284 18.34 123.394 18.39 123.534 18.49C123.694 18.57 123.784 18.66 123.804 18.76C123.964 18.7 124.164 18.67 124.404 18.67C124.844 18.67 125.134 18.77 125.274 18.97C125.494 18.89 125.724 18.85 125.964 18.85C126.344 18.85 126.644 18.96 126.864 19.18C127.024 19.02 127.284 18.89 127.644 18.79C128.024 18.69 128.364 18.64 128.664 18.64C128.844 18.28 129.164 18.07 129.624 18.01C129.664 17.87 129.774 17.69 129.954 17.47C129.874 17.35 129.804 17.19 129.744 16.99C129.684 16.79 129.654 16.59 129.654 16.39C129.654 15.97 129.754 15.66 129.954 15.46C129.734 15.18 129.624 14.85 129.624 14.47C129.624 14.21 129.664 13.99 129.744 13.81C129.584 13.91 129.404 13.96 129.204 13.96C129.024 13.96 128.874 13.89 128.754 13.75C128.574 13.93 128.324 14.02 128.004 14.02C127.804 14.02 127.604 13.97 127.404 13.87C127.184 14.09 126.914 14.2 126.594 14.2C126.494 14.2 126.344 14.16 126.144 14.08C125.844 14.38 125.574 14.47 125.334 14.35C125.214 14.63 125.054 14.82 124.854 14.92C124.674 15.02 124.414 15.07 124.074 15.07C123.994 15.29 123.854 15.47 123.654 15.61C123.474 15.75 123.284 15.8 123.084 15.76C123.184 15.9 123.234 16.06 123.234 16.24C123.234 16.54 123.144 16.81 122.964 17.05Z" fill="#4D2E27"/>
</svg>
