<svg width="62" height="37" viewBox="0 0 62 37" fill="none" xmlns="http://www.w3.org/2000/svg">
<path d="M15.12 9.85C15.52 9.95 15.9 10.18 16.26 10.54C16.64 10.9 16.82 11.25 16.8 11.59C17.04 11.73 17.25 11.98 17.43 12.34C17.61 12.68 17.7 13.01 17.7 13.33C17.7 13.57 17.64 13.77 17.52 13.93C17.6 14.17 17.64 14.45 17.64 14.77C17.64 15.09 17.59 15.4 17.49 15.7C17.63 15.98 17.7 16.32 17.7 16.72C17.7 17.1 17.62 17.45 17.46 17.77C17.32 18.09 17.11 18.31 16.83 18.43C16.81 18.63 16.73 18.86 16.59 19.12C16.45 19.38 16.32 19.57 16.2 19.69L16.23 19.96C16.23 20.32 16.12 20.6 15.9 20.8C15.72 20.98 15.57 21.09 15.45 21.13C15.47 21.33 15.4 21.51 15.24 21.67C15.08 21.81 14.87 21.92 14.61 22C14.57 22.24 14.49 22.42 14.37 22.54C14.25 22.66 14.06 22.76 13.8 22.84C13.74 23.04 13.62 23.22 13.44 23.38C13.28 23.52 13.09 23.61 12.87 23.65C12.75 23.97 12.6 24.19 12.42 24.31C12.26 24.41 12.01 24.46 11.67 24.46C11.61 25.12 11.19 25.59 10.41 25.87C10.29 26.07 10.14 26.21 9.96 26.29C9.8 26.37 9.62 26.43 9.42 26.47C9.24 26.51 9.11 26.54 9.03 26.56C8.77 26.78 8.43 26.99 8.01 27.19C7.59 27.37 7.18 27.46 6.78 27.46C6.58 27.46 6.39 27.43 6.21 27.37C6.09 27.55 5.9 27.7 5.64 27.82C5.4 27.94 5.15 28 4.89 28C4.63 28 4.4 27.93 4.2 27.79C3.46 27.79 3.09 27.36 3.09 26.5C3.09 26.36 3.11 26.15 3.15 25.87C2.83 25.59 2.67 25.26 2.67 24.88C2.67 24.62 2.74 24.39 2.88 24.19C2.78 23.95 2.73 23.77 2.73 23.65C2.73 23.51 2.8 23.32 2.94 23.08C2.68 22.62 2.55 22.1 2.55 21.52C2.55 21.02 2.66 20.61 2.88 20.29C2.68 19.87 2.58 19.4 2.58 18.88C2.58 18.26 2.72 17.67 3 17.11C2.88 16.91 2.77 16.65 2.67 16.33C2.59 15.99 2.55 15.66 2.55 15.34C2.55 14.84 2.66 14.45 2.88 14.17C2.74 13.99 2.62 13.75 2.52 13.45C2.44 13.15 2.4 12.85 2.4 12.55C2.4 12.15 2.48 11.84 2.64 11.62C2.62 11.56 2.61 11.47 2.61 11.35C2.61 11.11 2.66 10.91 2.76 10.75C2.62 10.45 2.57 10.03 2.61 9.49C2.23 9.25 2.04 8.91 2.04 8.47C2.04 8.25 2.1 8.04 2.22 7.84C2.34 7.64 2.51 7.49 2.73 7.39C2.81 7.19 2.95 7.03 3.15 6.91C3.35 6.79 3.56 6.73 3.78 6.73C4.06 6.73 4.31 6.81 4.53 6.97C4.67 6.77 4.98 6.67 5.46 6.67C5.72 6.67 5.93 6.7 6.09 6.76C6.27 6.82 6.37 6.9 6.39 7C6.79 6.9 7.18 6.85 7.56 6.85C8.08 6.85 8.5 6.93 8.82 7.09C9 6.97 9.21 6.91 9.45 6.91C9.83 6.91 10.12 7.03 10.32 7.27C10.48 7.23 10.61 7.21 10.71 7.21C11.03 7.21 11.33 7.31 11.61 7.51C11.91 7.71 12.1 7.96 12.18 8.26C12.38 8.16 12.57 8.11 12.75 8.11C13.01 8.11 13.25 8.18 13.47 8.32C13.71 8.46 13.89 8.62 14.01 8.8C14.27 8.8 14.5 8.9 14.7 9.1C14.92 9.28 15.06 9.53 15.12 9.85ZM6.93 24.82C7.05 24.64 7.27 24.5 7.59 24.4C7.93 24.3 8.25 24.25 8.55 24.25C8.81 23.87 9.11 23.68 9.45 23.68C9.45 23.4 9.56 23.18 9.78 23.02C10.02 22.84 10.34 22.67 10.74 22.51C10.78 22.19 10.92 21.9 11.16 21.64C11.42 21.38 11.69 21.26 11.97 21.28C12.13 21.06 12.34 20.9 12.6 20.8C12.74 20.44 12.96 20.19 13.26 20.05C13.32 19.67 13.51 19.39 13.83 19.21C13.87 18.95 13.95 18.7 14.07 18.46C14.19 18.2 14.32 18.03 14.46 17.95C14.5 17.59 14.58 17.24 14.7 16.9C14.82 16.54 14.98 16.33 15.18 16.27C15.12 16.11 15.09 15.95 15.09 15.79C15.09 15.69 15.11 15.54 15.15 15.34C15.01 15.14 14.94 14.7 14.94 14.02C14.94 13.66 14.97 13.39 15.03 13.21C15.01 13.17 14.94 13.09 14.82 12.97C14.72 12.85 14.67 12.72 14.67 12.58C14.53 12.54 14.42 12.46 14.34 12.34C14.26 12.22 14.2 12.14 14.16 12.1C13.86 12.1 13.6 11.99 13.38 11.77C13.16 11.55 13.03 11.28 12.99 10.96C12.83 10.98 12.63 10.95 12.39 10.87C12.17 10.77 12 10.64 11.88 10.48C11.64 10.54 11.33 10.5 10.95 10.36C10.59 10.2 10.37 9.96 10.29 9.64C10.23 9.66 10.12 9.67 9.96 9.67C9.68 9.67 9.44 9.6 9.24 9.46C9.06 9.54 8.85 9.58 8.61 9.58C8.21 9.58 7.83 9.47 7.47 9.25C7.13 9.39 6.78 9.46 6.42 9.46C6.02 9.46 5.68 9.36 5.4 9.16C5.28 9.22 5.14 9.25 4.98 9.25C4.96 9.25 4.95 9.26 4.95 9.28C5.03 9.36 5.09 9.53 5.13 9.79C5.19 10.03 5.22 10.31 5.22 10.63C5.22 11.43 5.12 11.94 4.92 12.16C5.02 12.32 5.11 12.62 5.19 13.06C5.27 13.48 5.31 13.91 5.31 14.35C5.31 14.95 5.24 15.39 5.1 15.67C5.24 15.93 5.31 16.29 5.31 16.75C5.31 17.33 5.19 17.79 4.95 18.13C5.09 18.53 5.18 19.08 5.22 19.78L5.28 20.47C5.3 20.65 5.29 20.87 5.25 21.13C5.21 21.39 5.19 21.62 5.19 21.82C5.19 22.02 5.22 22.23 5.28 22.45C5.32 22.73 5.34 22.94 5.34 23.08C5.34 23.26 5.31 23.43 5.25 23.59C5.33 23.69 5.41 23.86 5.49 24.1C5.57 24.34 5.58 24.54 5.52 24.7C5.74 24.58 5.96 24.52 6.18 24.52C6.52 24.52 6.77 24.62 6.93 24.82Z" fill="#3EAD17"/>
<path d="M31.5586 16.27C31.7786 16.37 31.9786 16.61 32.1586 16.99C32.3586 17.37 32.4586 17.76 32.4586 18.16C32.4586 18.84 32.1586 19.3 31.5586 19.54C31.3986 19.82 31.1786 20.04 30.8986 20.2C30.6386 20.36 30.3486 20.44 30.0286 20.44C29.7686 20.44 29.4986 20.38 29.2186 20.26C29.0586 20.36 28.8386 20.45 28.5586 20.53C28.2786 20.61 27.9986 20.65 27.7186 20.65C27.2386 20.65 26.9086 20.55 26.7286 20.35C26.5286 20.51 26.2086 20.59 25.7686 20.59C25.4486 20.59 25.1586 20.53 24.8986 20.41C24.6186 20.55 24.2986 20.62 23.9386 20.62C23.5986 20.62 23.3186 20.57 23.0986 20.47C22.8986 20.65 22.4886 20.74 21.8686 20.74C21.5286 20.74 21.2986 20.71 21.1786 20.65C21.2386 21.23 21.1586 21.66 20.9386 21.94C21.3186 22.32 21.4686 22.73 21.3886 23.17C21.4086 23.19 21.5186 23.27 21.7186 23.41C21.9186 23.55 22.0586 23.78 22.1386 24.1C22.3586 24.1 22.5586 24.19 22.7386 24.37C22.9386 24.55 23.0586 24.73 23.0986 24.91C23.1786 24.83 23.3386 24.79 23.5786 24.79C23.7586 24.79 23.9186 24.82 24.0586 24.88C24.1986 24.94 24.2786 25.01 24.2986 25.09C24.4386 25.01 24.5986 24.97 24.7786 24.97C25.0386 24.97 25.2786 25.06 25.4986 25.24C25.6986 25.2 25.8486 25.18 25.9486 25.18C26.1486 25.18 26.3186 25.21 26.4586 25.27C26.5186 25.11 26.6786 24.96 26.9386 24.82C27.1986 24.66 27.4686 24.59 27.7486 24.61C27.9086 24.41 28.1286 24.25 28.4086 24.13C28.6886 24.01 28.9686 23.95 29.2486 23.95C29.7886 23.95 30.1786 24.17 30.4186 24.61C30.4986 24.77 30.5386 24.96 30.5386 25.18C30.5386 25.66 30.3186 26.04 29.8786 26.32C29.7786 26.38 29.6086 26.49 29.3686 26.65C29.1286 26.79 28.9086 26.9 28.7086 26.98C28.5086 27.06 28.3286 27.1 28.1686 27.1C27.8686 27.46 27.4586 27.64 26.9386 27.64C26.6986 27.64 26.5186 27.62 26.3986 27.58C26.1586 27.78 25.8086 27.88 25.3486 27.88C24.9286 27.88 24.6386 27.8 24.4786 27.64C24.3386 27.7 24.1986 27.73 24.0586 27.73C23.7786 27.73 23.5186 27.63 23.2786 27.43C22.2586 27.49 21.5686 27.17 21.2086 26.47C20.9286 26.47 20.6086 26.3 20.2486 25.96C19.9086 25.6 19.7186 25.29 19.6786 25.03C19.2186 24.85 18.9286 24.52 18.8086 24.04C18.7886 23.88 18.7886 23.73 18.8086 23.59C18.7286 23.57 18.6586 23.49 18.5986 23.35C18.5586 23.19 18.5386 23.03 18.5386 22.87C18.5386 22.75 18.5486 22.67 18.5686 22.63C18.4086 22.15 18.3286 21.71 18.3286 21.31C18.3286 20.91 18.4086 20.55 18.5686 20.23C18.4486 20.01 18.3886 19.77 18.3886 19.51C18.3886 19.19 18.4586 18.87 18.5986 18.55C18.7386 18.23 18.8686 18.02 18.9886 17.92C18.9486 17.82 18.9786 17.65 19.0786 17.41C19.1786 17.15 19.3086 16.92 19.4686 16.72C19.6486 16.5 19.8286 16.37 20.0086 16.33L19.9786 16C19.9786 15.22 20.3986 14.73 21.2386 14.53C21.2386 14.19 21.4386 13.86 21.8386 13.54C22.2386 13.22 22.5886 13.08 22.8886 13.12C22.9286 12.9 23.1186 12.73 23.4586 12.61C23.8186 12.47 24.0886 12.43 24.2686 12.49C24.4286 12.23 24.7486 12.05 25.2286 11.95C25.4086 11.75 25.6686 11.65 26.0086 11.65C26.1086 11.65 26.2386 11.67 26.3986 11.71L26.6686 11.68C26.9086 11.68 27.1086 11.73 27.2686 11.83C27.4486 11.91 27.5286 12.01 27.5086 12.13C27.9486 12.17 28.3186 12.27 28.6186 12.43C28.9186 12.59 29.0986 12.88 29.1586 13.3C29.4186 13.24 29.7486 13.31 30.1486 13.51C30.5486 13.69 30.8886 13.98 31.1686 14.38C31.4686 14.76 31.6186 15.21 31.6186 15.73C31.6186 15.85 31.5986 16.03 31.5586 16.27ZM27.1486 18.22C27.3486 17.94 27.8386 17.8 28.6186 17.8C29.0586 17.8 29.3986 17.84 29.6386 17.92C29.4786 17.84 29.3286 17.67 29.1886 17.41C29.0686 17.13 29.0086 16.87 29.0086 16.63C29.0086 16.47 29.0386 16.35 29.0986 16.27C28.8186 16.29 28.5786 16.22 28.3786 16.06C28.1986 15.88 28.0286 15.68 27.8686 15.46C27.7286 15.24 27.6186 15.08 27.5386 14.98C27.4386 15.04 27.2286 14.99 26.9086 14.83C26.6086 14.65 26.4486 14.47 26.4286 14.29C26.3486 14.39 26.1786 14.48 25.9186 14.56C25.6586 14.62 25.4586 14.64 25.3186 14.62C25.2586 14.72 25.1186 14.82 24.8986 14.92C24.6786 15.02 24.4486 15.05 24.2086 15.01C24.0086 15.39 23.7986 15.7 23.5786 15.94C23.3586 16.18 23.0786 16.36 22.7386 16.48C22.6986 16.76 22.5686 17.07 22.3486 17.41C22.1486 17.75 21.9386 18.01 21.7186 18.19L21.8386 18.22C22.1186 18.02 22.4986 17.92 22.9786 17.92C23.2586 17.92 23.5186 17.95 23.7586 18.01C24.0186 18.07 24.1986 18.14 24.2986 18.22C24.7786 17.92 25.3086 17.77 25.8886 17.77C26.3686 17.77 26.7886 17.92 27.1486 18.22Z" fill="#FA4E28"/>
<path d="M33.4535 16.36C33.2935 16.1 33.2135 15.85 33.2135 15.61C33.2135 15.25 33.3335 14.95 33.5735 14.71C33.6335 14.41 33.7735 14.13 33.9935 13.87C34.2135 13.59 34.4535 13.38 34.7135 13.24C34.9935 13.08 35.2135 13.02 35.3735 13.06C35.5135 12.84 35.7935 12.64 36.2135 12.46C36.6335 12.26 37.0235 12.16 37.3835 12.16C37.4635 12.16 37.5835 12.18 37.7435 12.22C37.9635 11.98 38.2535 11.86 38.6135 11.86C38.8935 11.86 39.0935 11.94 39.2135 12.1C39.4735 11.92 39.8135 11.83 40.2335 11.83C40.7335 11.83 41.1735 11.95 41.5535 12.19C41.9535 12.43 42.1835 12.75 42.2435 13.15C42.6035 13.27 42.8735 13.46 43.0535 13.72C43.2535 13.96 43.3735 14.3 43.4135 14.74C43.6735 15 43.8635 15.31 43.9835 15.67C44.1035 16.01 44.1635 16.36 44.1635 16.72C44.1635 17.18 44.0835 17.55 43.9235 17.83C44.0635 18.03 44.1835 18.33 44.2835 18.73C44.3835 19.13 44.4335 19.52 44.4335 19.9C44.4335 20.06 44.4135 20.26 44.3735 20.5C44.5135 20.8 44.5835 21 44.5835 21.1C44.5835 21.16 44.5535 21.3 44.4935 21.52C44.5135 21.6 44.5335 21.7 44.5535 21.82C44.5735 21.92 44.5835 22.05 44.5835 22.21C44.5835 22.51 44.4735 22.78 44.2535 23.02C44.3335 23.24 44.3735 23.51 44.3735 23.83C44.3735 24.25 44.2735 24.59 44.0735 24.85C44.1135 24.93 44.1335 25.06 44.1335 25.24C44.1335 25.66 43.9635 26.01 43.6235 26.29C43.5435 26.57 43.3935 26.79 43.1735 26.95C42.9535 27.09 42.7135 27.16 42.4535 27.16C42.1935 27.16 41.9835 27.08 41.8235 26.92C41.3035 27.14 40.8835 27.25 40.5635 27.25C40.4035 27.25 40.2835 27.24 40.2035 27.22C39.6835 27.38 39.2435 27.46 38.8835 27.46C38.6235 27.46 38.2635 27.41 37.8035 27.31C37.5235 27.47 37.2535 27.55 36.9935 27.55C36.7535 27.55 36.5335 27.48 36.3335 27.34C36.2335 27.36 36.0835 27.37 35.8835 27.37C35.1035 27.37 34.5035 27.02 34.0835 26.32C33.3235 25.88 32.9435 25.22 32.9435 24.34C32.9435 24.12 32.9535 23.95 32.9735 23.83C32.7935 23.71 32.7035 23.46 32.7035 23.08C32.7035 22.82 32.7535 22.59 32.8535 22.39C32.7735 22.03 32.7335 21.8 32.7335 21.7C32.7335 21.12 33.0135 20.6 33.5735 20.14C33.7935 19.68 34.0435 19.37 34.3235 19.21C34.6235 19.05 34.9935 18.93 35.4335 18.85C35.5535 18.51 35.8335 18.28 36.2735 18.16C36.7135 18.04 37.1435 18 37.5635 18.04C37.6835 17.96 37.8535 17.89 38.0735 17.83C38.2935 17.75 38.5135 17.71 38.7335 17.71C38.9735 17.71 39.1835 17.75 39.3635 17.83C39.4035 17.79 39.5035 17.77 39.6635 17.77C39.7835 17.77 39.9035 17.78 40.0235 17.8C40.1435 17.82 40.2235 17.85 40.2635 17.89C40.5435 17.53 40.8735 17.35 41.2535 17.35C41.3735 17.35 41.4935 17.38 41.6135 17.44V17.35C41.6135 17.01 41.6835 16.77 41.8235 16.63C41.6235 16.57 41.4035 16.4 41.1635 16.12C40.9435 15.82 40.8135 15.55 40.7735 15.31C40.4535 15.17 40.2335 14.94 40.1135 14.62C39.8735 14.8 39.5935 14.89 39.2735 14.89C39.0535 14.89 38.8435 14.83 38.6435 14.71C38.3035 14.81 38.0835 14.85 37.9835 14.83C37.7035 15.03 37.3935 15.13 37.0535 15.13C36.7535 15.53 36.4035 15.71 36.0035 15.67C35.8235 15.99 35.5735 16.27 35.2535 16.51C34.9535 16.75 34.6435 16.87 34.3235 16.87C33.9635 16.87 33.6735 16.7 33.4535 16.36ZM35.1035 23.05C35.3435 23.29 35.4635 23.52 35.4635 23.74C35.4635 23.9 35.4235 24.1 35.3435 24.34C35.4235 24.34 35.5335 24.39 35.6735 24.49C35.8335 24.57 35.9235 24.66 35.9435 24.76C36.1035 24.7 36.3035 24.67 36.5435 24.67C36.9835 24.67 37.2735 24.77 37.4135 24.97C37.6335 24.89 37.8635 24.85 38.1035 24.85C38.4835 24.85 38.7835 24.96 39.0035 25.18C39.1635 25.02 39.4235 24.89 39.7835 24.79C40.1635 24.69 40.5035 24.64 40.8035 24.64C40.9835 24.28 41.3035 24.07 41.7635 24.01C41.8035 23.87 41.9135 23.69 42.0935 23.47C42.0135 23.35 41.9435 23.19 41.8835 22.99C41.8235 22.79 41.7935 22.59 41.7935 22.39C41.7935 21.97 41.8935 21.66 42.0935 21.46C41.8735 21.18 41.7635 20.85 41.7635 20.47C41.7635 20.21 41.8035 19.99 41.8835 19.81C41.7235 19.91 41.5435 19.96 41.3435 19.96C41.1635 19.96 41.0135 19.89 40.8935 19.75C40.7135 19.93 40.4635 20.02 40.1435 20.02C39.9435 20.02 39.7435 19.97 39.5435 19.87C39.3235 20.09 39.0535 20.2 38.7335 20.2C38.6335 20.2 38.4835 20.16 38.2835 20.08C37.9835 20.38 37.7135 20.47 37.4735 20.35C37.3535 20.63 37.1935 20.82 36.9935 20.92C36.8135 21.02 36.5535 21.07 36.2135 21.07C36.1335 21.29 35.9935 21.47 35.7935 21.61C35.6135 21.75 35.4235 21.8 35.2235 21.76C35.3235 21.9 35.3735 22.06 35.3735 22.24C35.3735 22.54 35.2835 22.81 35.1035 23.05Z" fill="#FFA800"/>
<path d="M48.8988 26.59C48.9788 27.03 48.8888 27.38 48.6288 27.64C48.3888 27.88 48.0888 28 47.7288 28C47.4088 28 47.1288 27.9 46.8888 27.7C46.6488 27.48 46.5288 27.18 46.5288 26.8C46.5288 26.56 46.5888 26.29 46.7088 25.99C46.5888 25.71 46.5288 25.42 46.5288 25.12C46.5288 24.88 46.5788 24.68 46.6788 24.52C46.5588 24.44 46.4688 24.32 46.4088 24.16C46.3488 24 46.3188 23.82 46.3188 23.62C46.3188 23.42 46.3588 23.2 46.4388 22.96C46.2588 22.74 46.1688 22.48 46.1688 22.18C46.1688 21.8 46.3088 21.49 46.5888 21.25C46.5688 21.19 46.5588 21.09 46.5588 20.95C46.5588 20.75 46.5788 20.61 46.6188 20.53C46.3988 20.25 46.2888 19.85 46.2888 19.33C46.2888 18.97 46.3588 18.69 46.4988 18.49C46.3588 18.37 46.2388 18.21 46.1388 18.01C46.0388 17.79 45.9888 17.57 45.9888 17.35C45.9888 17.11 46.0588 16.88 46.1988 16.66C46.0988 16.42 46.0488 16.21 46.0488 16.03C46.0488 15.73 46.1388 15.45 46.3188 15.19C46.0788 14.95 45.9588 14.7 45.9588 14.44C45.9588 14.24 46.0288 13.97 46.1688 13.63C46.0288 13.35 45.9588 13.05 45.9588 12.73C45.9588 12.31 46.1088 12.05 46.4088 11.95C46.4288 11.67 46.5288 11.44 46.7088 11.26C46.8888 11.08 47.1088 10.99 47.3688 10.99C47.6688 10.99 47.9288 11.14 48.1488 11.44C48.3888 11.72 48.5088 12.13 48.5088 12.67C48.5088 12.89 48.4988 13.07 48.4788 13.21C48.5588 13.17 48.6388 13.11 48.7188 13.03C48.7988 12.93 48.8988 12.86 49.0188 12.82C49.1388 12.78 49.3188 12.76 49.5588 12.76C49.5988 12.66 49.7288 12.56 49.9488 12.46C50.1888 12.36 50.4188 12.31 50.6388 12.31C50.7988 12.31 50.9088 12.33 50.9688 12.37C51.1288 12.29 51.2888 12.25 51.4488 12.25C51.6888 12.25 51.9488 12.42 52.2288 12.76C52.7088 12.72 53.0588 12.83 53.2788 13.09C53.5988 13.07 53.8788 13.11 54.1188 13.21C54.3588 13.31 54.5488 13.52 54.6888 13.84C55.0688 14.08 55.2588 14.4 55.2588 14.8C55.2588 15.14 55.1088 15.46 54.8088 15.76C54.5288 16.04 54.2188 16.18 53.8788 16.18C53.4988 16.18 53.1788 15.98 52.9188 15.58C52.6988 15.58 52.5288 15.56 52.4088 15.52C52.2888 15.48 52.1688 15.39 52.0488 15.25C51.9288 15.29 51.8288 15.31 51.7488 15.31C51.5688 15.31 51.3788 15.26 51.1788 15.16C50.8988 15.34 50.5988 15.42 50.2788 15.4C50.1588 15.68 49.8488 15.82 49.3488 15.82C49.3688 15.88 49.3788 15.98 49.3788 16.12C49.3788 16.38 49.3188 16.64 49.1988 16.9C49.0988 17.14 48.9688 17.32 48.8088 17.44C48.9688 17.82 49.0488 18.2 49.0488 18.58C49.0488 18.92 48.9688 19.18 48.8088 19.36C48.8688 19.44 48.9288 19.54 48.9888 19.66C49.0688 19.78 49.1288 19.89 49.1688 19.99C49.2088 20.15 49.2288 20.27 49.2288 20.35C49.2288 20.49 49.1788 20.68 49.0788 20.92C49.1788 21.16 49.2288 21.34 49.2288 21.46C49.2288 21.62 49.1588 21.84 49.0188 22.12C49.1388 22.32 49.1988 22.54 49.1988 22.78C49.1988 23.06 49.1288 23.3 48.9888 23.5C49.1288 23.82 49.1988 24.15 49.1988 24.49C49.1988 24.75 49.1388 24.99 49.0188 25.21C49.1188 25.41 49.1688 25.61 49.1688 25.81C49.1688 26.09 49.0788 26.35 48.8988 26.59Z" fill="#40A8E2"/>
<path d="M58.6615 25.12C58.8015 25.14 58.9215 25.24 59.0215 25.42C59.1215 25.6 59.1715 25.81 59.1715 26.05C59.1715 26.27 59.1315 26.46 59.0515 26.62C59.1315 26.96 59.0115 27.26 58.6915 27.52C58.3715 27.76 58.0115 27.88 57.6115 27.88C57.2915 27.88 57.0015 27.78 56.7415 27.58C56.5015 27.36 56.3615 27.04 56.3215 26.62C56.1615 26.42 56.0815 26.22 56.0815 26.02C56.0815 25.68 56.2215 25.37 56.5015 25.09C56.8015 24.79 57.1515 24.64 57.5515 24.64C57.9115 24.64 58.2815 24.8 58.6615 25.12Z" fill="#4D2E27"/>
</svg>
