<svg width="146" height="23" viewBox="0 0 146 23" fill="none" xmlns="http://www.w3.org/2000/svg">
<path d="M11.9184 0.459998C12.0584 0.319999 12.3184 0.249999 12.6984 0.249999C12.9184 0.249999 13.1384 0.279999 13.3584 0.339998C13.5784 0.399999 13.7384 0.469999 13.8384 0.549999C14.1984 0.529999 14.4884 0.629999 14.7084 0.849999C14.9284 1.07 15.0384 1.34 15.0384 1.66C15.0384 2 14.9084 2.3 14.6484 2.56C14.4084 2.82 14.0584 2.95 13.5984 2.95C13.3784 2.95 13.1484 2.92 12.9084 2.86C12.6884 3.06 12.4184 3.16 12.0984 3.16C11.7584 3.16 11.4784 3.06 11.2584 2.86C11.0184 3.04 10.7584 3.13 10.4784 3.13C10.2384 3.13 10.0284 3.09 9.84844 3.01C9.62844 3.17 9.38844 3.25 9.12844 3.25C8.88844 3.25 8.67844 3.19 8.49844 3.07C8.25844 3.19 8.03844 3.25 7.83844 3.25C7.53844 3.25 7.21844 3.14 6.87844 2.92C6.51844 3.2 6.13844 3.34 5.73844 3.34C5.41844 3.34 5.12844 3.25 4.86844 3.07C4.68844 3.25 4.48844 3.37 4.26844 3.43C4.06844 3.49 3.78844 3.51 3.42844 3.49C3.64844 3.77 3.75844 4.1 3.75844 4.48C3.75844 4.84 3.62844 5.26 3.36844 5.74C3.64844 6 3.78844 6.32 3.78844 6.7C3.78844 7.02 3.66844 7.48 3.42844 8.08C3.68844 8.4 3.81844 8.67 3.81844 8.89C3.81844 9.07 3.73844 9.3 3.57844 9.58C3.63844 9.68 3.68844 9.84 3.72844 10.06C4.00844 10.02 4.20844 10 4.32844 10C4.66844 10 4.94844 10.08 5.16844 10.24C5.32844 10.18 5.52844 10.15 5.76844 10.15C6.06844 10.15 6.31844 10.18 6.51844 10.24C6.67844 10.06 6.94844 9.97 7.32844 9.97C7.76844 9.97 8.08844 10.06 8.28844 10.24C8.54844 10.08 8.86844 10 9.24844 10C9.60844 10 9.91844 10.07 10.1784 10.21C10.2584 10.11 10.3884 10.03 10.5684 9.97C10.7684 9.89 10.9684 9.85 11.1684 9.85C11.5084 9.85 11.7584 9.93 11.9184 10.09C12.1984 10.17 12.4084 10.31 12.5484 10.51C12.7084 10.71 12.7884 10.94 12.7884 11.2C12.7884 11.54 12.6684 11.85 12.4284 12.13C12.2084 12.39 11.9284 12.52 11.5884 12.52C11.3884 12.52 11.2084 12.48 11.0484 12.4C10.8484 12.54 10.6284 12.61 10.3884 12.61C10.1884 12.61 9.98844 12.56 9.78844 12.46C9.48844 12.64 9.04844 12.73 8.46844 12.73C8.02844 12.73 7.68844 12.67 7.44844 12.55C7.16844 12.71 6.89844 12.79 6.63844 12.79C6.43844 12.79 6.17844 12.73 5.85844 12.61C5.53844 12.73 5.26844 12.79 5.04844 12.79C4.76844 12.79 4.48844 12.68 4.20844 12.46C4.08844 12.6 3.87844 12.72 3.57844 12.82C3.75844 13 3.84844 13.3 3.84844 13.72C3.84844 14.14 3.73844 14.48 3.51844 14.74C3.67844 14.96 3.80844 15.22 3.90844 15.52C4.00844 15.82 4.05844 16.11 4.05844 16.39C4.05844 16.69 3.99844 16.96 3.87844 17.2C3.97844 17.34 4.02844 17.53 4.02844 17.77C4.02844 18.09 3.91844 18.38 3.69844 18.64C3.97844 18.92 4.11844 19.24 4.11844 19.6C4.11844 19.94 4.00844 20.25 3.78844 20.53C3.80844 20.59 3.81844 20.68 3.81844 20.8C3.81844 21.18 3.68844 21.48 3.42844 21.7C3.18844 21.9 2.90844 22 2.58844 22C2.32844 22 2.10844 21.94 1.92844 21.82C1.48844 21.58 1.26844 21.22 1.26844 20.74C1.26844 20.42 1.37844 20.13 1.59844 19.87C1.33844 19.61 1.20844 19.2 1.20844 18.64C1.20844 18.32 1.24844 18.08 1.32844 17.92C1.16844 17.66 1.08844 17.33 1.08844 16.93C1.08844 16.71 1.11844 16.5 1.17844 16.3C1.23844 16.1 1.30844 15.96 1.38844 15.88C1.22844 15.64 1.14844 15.23 1.14844 14.65C1.14844 14.13 1.21844 13.8 1.35844 13.66C1.25844 13.56 1.17844 13.4 1.11844 13.18C1.05844 12.96 1.02844 12.74 1.02844 12.52C1.02844 12.3 1.05844 12.13 1.11844 12.01C0.898438 11.73 0.788438 11.4 0.788438 11.02C0.788438 10.68 0.888438 10.43 1.08844 10.27C0.928438 10.01 0.848438 9.68 0.848438 9.28C0.848438 8.88 0.918438 8.6 1.05844 8.44C0.918438 8.3 0.848438 8.07 0.848438 7.75C0.848438 7.37 0.948438 7.07 1.14844 6.85C0.848438 6.49 0.698438 6.1 0.698438 5.68C0.698438 5.24 0.828438 4.86 1.08844 4.54C0.928438 4.38 0.848438 4.11 0.848438 3.73C0.848438 3.31 0.918438 2.93 1.05844 2.59C1.01844 2.47 0.998438 2.3 0.998438 2.08C0.998438 1.58 1.24844 1.3 1.74844 1.24C2.00844 0.979999 2.38844 0.849999 2.88844 0.849999C3.18844 0.849999 3.42844 0.889999 3.60844 0.969999C3.74844 0.849999 3.93844 0.759999 4.17844 0.699999C4.43844 0.619999 4.68844 0.579999 4.92844 0.579999C5.24844 0.579999 5.47844 0.629999 5.61844 0.729998C6.01844 0.529999 6.49844 0.429999 7.05844 0.429999C7.47844 0.429999 7.80844 0.509999 8.04844 0.669999C8.20844 0.609999 8.36844 0.579999 8.52844 0.579999C8.72844 0.579999 8.89844 0.619999 9.03844 0.699999C9.23844 0.559999 9.46844 0.49 9.72844 0.49C9.90844 0.49 10.0784 0.529999 10.2384 0.609998C10.4984 0.449999 10.8584 0.37 11.3184 0.37C11.5784 0.37 11.7784 0.399999 11.9184 0.459998Z" fill="#3EAD17"/>
<path d="M19.3453 20.59C19.4253 21.03 19.3353 21.38 19.0753 21.64C18.8353 21.88 18.5353 22 18.1753 22C17.8553 22 17.5753 21.9 17.3353 21.7C17.0953 21.48 16.9753 21.18 16.9753 20.8C16.9753 20.56 17.0353 20.29 17.1553 19.99C17.0353 19.71 16.9753 19.42 16.9753 19.12C16.9753 18.88 17.0253 18.68 17.1253 18.52C17.0053 18.44 16.9153 18.32 16.8553 18.16C16.7953 18 16.7653 17.82 16.7653 17.62C16.7653 17.42 16.8053 17.2 16.8853 16.96C16.7053 16.74 16.6153 16.48 16.6153 16.18C16.6153 15.8 16.7553 15.49 17.0353 15.25C17.0153 15.19 17.0053 15.09 17.0053 14.95C17.0053 14.75 17.0253 14.61 17.0653 14.53C16.8453 14.25 16.7353 13.85 16.7353 13.33C16.7353 12.97 16.8053 12.69 16.9453 12.49C16.8053 12.37 16.6853 12.21 16.5853 12.01C16.4853 11.79 16.4353 11.57 16.4353 11.35C16.4353 11.11 16.5053 10.88 16.6453 10.66C16.5453 10.42 16.4953 10.21 16.4953 10.03C16.4953 9.73 16.5853 9.45 16.7653 9.19C16.5253 8.95 16.4053 8.7 16.4053 8.44C16.4053 8.24 16.4753 7.97 16.6153 7.63C16.4753 7.35 16.4053 7.05 16.4053 6.73C16.4053 6.31 16.5553 6.05 16.8553 5.95C16.8753 5.67 16.9753 5.44 17.1553 5.26C17.3353 5.08 17.5553 4.99 17.8153 4.99C18.1153 4.99 18.3753 5.14 18.5953 5.44C18.8353 5.72 18.9553 6.13 18.9553 6.67C18.9553 6.89 18.9453 7.07 18.9253 7.21C19.0053 7.17 19.0853 7.11 19.1653 7.03C19.2453 6.93 19.3453 6.86 19.4653 6.82C19.5853 6.78 19.7653 6.76 20.0053 6.76C20.0453 6.66 20.1753 6.56 20.3953 6.46C20.6353 6.36 20.8653 6.31 21.0853 6.31C21.2453 6.31 21.3553 6.33 21.4153 6.37C21.5753 6.29 21.7353 6.25 21.8953 6.25C22.1353 6.25 22.3953 6.42 22.6753 6.76C23.1553 6.72 23.5053 6.83 23.7253 7.09C24.0453 7.07 24.3253 7.11 24.5653 7.21C24.8053 7.31 24.9953 7.52 25.1353 7.84C25.5153 8.08 25.7053 8.4 25.7053 8.8C25.7053 9.14 25.5553 9.46 25.2553 9.76C24.9753 10.04 24.6653 10.18 24.3253 10.18C23.9453 10.18 23.6253 9.98 23.3653 9.58C23.1453 9.58 22.9753 9.56 22.8553 9.52C22.7353 9.48 22.6153 9.39 22.4953 9.25C22.3753 9.29 22.2753 9.31 22.1953 9.31C22.0153 9.31 21.8253 9.26 21.6253 9.16C21.3453 9.34 21.0453 9.42 20.7253 9.4C20.6053 9.68 20.2953 9.82 19.7953 9.82C19.8153 9.88 19.8253 9.98 19.8253 10.12C19.8253 10.38 19.7653 10.64 19.6453 10.9C19.5453 11.14 19.4153 11.32 19.2553 11.44C19.4153 11.82 19.4953 12.2 19.4953 12.58C19.4953 12.92 19.4153 13.18 19.2553 13.36C19.3153 13.44 19.3753 13.54 19.4353 13.66C19.5153 13.78 19.5753 13.89 19.6153 13.99C19.6553 14.15 19.6753 14.27 19.6753 14.35C19.6753 14.49 19.6253 14.68 19.5253 14.92C19.6253 15.16 19.6753 15.34 19.6753 15.46C19.6753 15.62 19.6053 15.84 19.4653 16.12C19.5853 16.32 19.6453 16.54 19.6453 16.78C19.6453 17.06 19.5753 17.3 19.4353 17.5C19.5753 17.82 19.6453 18.15 19.6453 18.49C19.6453 18.75 19.5853 18.99 19.4653 19.21C19.5653 19.41 19.6153 19.61 19.6153 19.81C19.6153 20.09 19.5253 20.35 19.3453 20.59Z" fill="#FA4E28"/>
<path d="M34.718 21.64C34.478 21.88 34.108 22 33.608 22C33.228 22 32.918 21.94 32.678 21.82C32.318 21.9 31.998 21.94 31.718 21.94C30.938 21.94 30.378 21.74 30.038 21.34C29.958 21.36 29.848 21.37 29.708 21.37C29.248 21.37 28.898 21.16 28.658 20.74C28.458 20.76 28.198 20.66 27.878 20.44C27.578 20.2 27.448 19.97 27.488 19.75C27.168 19.67 26.898 19.48 26.678 19.18C26.478 18.86 26.388 18.5 26.408 18.1C26.188 18.02 26.018 17.86 25.898 17.62C25.778 17.38 25.718 17.11 25.718 16.81C25.718 16.49 25.768 16.26 25.868 16.12C25.648 15.78 25.538 15.39 25.538 14.95C25.538 14.49 25.678 14.12 25.958 13.84C25.738 13.68 25.628 13.44 25.628 13.12C25.628 12.92 25.678 12.72 25.778 12.52C25.878 12.32 26.008 12.18 26.168 12.1C26.128 11.82 26.158 11.56 26.258 11.32C26.378 11.06 26.538 10.87 26.738 10.75C26.698 10.69 26.678 10.6 26.678 10.48C26.678 10.3 26.738 10.12 26.858 9.94C26.998 9.76 27.148 9.65 27.308 9.61C27.288 9.55 27.278 9.47 27.278 9.37C27.278 8.95 27.438 8.59 27.758 8.29C28.078 7.97 28.388 7.83 28.688 7.87C28.688 7.59 28.808 7.36 29.048 7.18C29.308 6.98 29.638 6.88 30.038 6.88C30.218 6.88 30.358 6.89 30.458 6.91C30.598 6.61 30.838 6.37 31.178 6.19C31.518 5.99 31.868 5.89 32.228 5.89C32.468 5.89 32.668 5.94 32.828 6.04C33.108 5.8 33.458 5.68 33.878 5.68C34.218 5.68 34.518 5.76 34.778 5.92C35.058 6.08 35.228 6.3 35.288 6.58C35.608 6.58 35.948 6.7 36.308 6.94C36.668 7.16 36.878 7.39 36.938 7.63C37.418 7.77 37.878 8.08 38.318 8.56C38.778 9.02 39.008 9.49 39.008 9.97C39.008 10.05 38.988 10.17 38.948 10.33C39.808 10.51 40.198 11.38 40.118 12.94C40.298 13.24 40.388 13.56 40.388 13.9C40.388 14.3 40.258 14.7 39.998 15.1C40.058 15.28 40.088 15.45 40.088 15.61C40.088 15.85 40.038 16.08 39.938 16.3C39.838 16.52 39.708 16.69 39.548 16.81C39.568 17.13 39.508 17.39 39.368 17.59C39.248 17.79 39.018 18.06 38.678 18.4C38.698 18.48 38.708 18.6 38.708 18.76C38.708 19.36 38.368 19.75 37.688 19.93C37.628 20.25 37.458 20.51 37.178 20.71C36.918 20.91 36.598 21.01 36.218 21.01C35.898 21.45 35.508 21.67 35.048 21.67C34.908 21.67 34.798 21.66 34.718 21.64ZM31.898 19.54C32.058 19.4 32.328 19.33 32.708 19.33C32.988 19.33 33.138 19.37 33.158 19.45C33.318 19.27 33.518 19.13 33.758 19.03C33.998 18.93 34.218 18.89 34.418 18.91C34.758 18.57 35.128 18.4 35.528 18.4C35.668 18.4 35.768 18.41 35.828 18.43C35.808 18.25 35.858 18.08 35.978 17.92C36.098 17.74 36.238 17.62 36.398 17.56C36.398 17.3 36.458 17.08 36.578 16.9C36.718 16.7 36.888 16.55 37.088 16.45C37.088 16.05 37.168 15.73 37.328 15.49C37.268 15.33 37.238 15.17 37.238 15.01C37.238 14.79 37.288 14.58 37.388 14.38C37.488 14.16 37.628 13.98 37.808 13.84C37.608 13.66 37.508 13.44 37.508 13.18C37.508 12.94 37.578 12.7 37.718 12.46C37.318 12.22 37.048 11.99 36.908 11.77C36.788 11.53 36.728 11.1 36.728 10.48C36.548 10.5 36.358 10.4 36.158 10.18C35.978 9.96 35.868 9.71 35.828 9.43C35.608 9.49 35.338 9.43 35.018 9.25C34.718 9.05 34.568 8.8 34.568 8.5C34.408 8.58 34.218 8.62 33.998 8.62C33.578 8.62 33.238 8.47 32.978 8.17C32.758 8.39 32.468 8.57 32.108 8.71C31.768 8.83 31.468 8.87 31.208 8.83C31.188 9.03 31.008 9.27 30.668 9.55C30.348 9.81 30.058 9.98 29.798 10.06C29.858 10.18 29.888 10.32 29.888 10.48C29.888 10.68 29.838 10.88 29.738 11.08C29.638 11.28 29.498 11.45 29.318 11.59C29.338 11.87 29.268 12.14 29.108 12.4C28.968 12.66 28.768 12.84 28.508 12.94C28.548 13.1 28.568 13.23 28.568 13.33C28.568 13.61 28.498 13.83 28.358 13.99C28.418 14.13 28.448 14.27 28.448 14.41C28.448 14.63 28.338 14.87 28.118 15.13C28.618 15.47 28.868 15.96 28.868 16.6C28.868 16.94 28.808 17.23 28.688 17.47C28.888 17.49 29.028 17.55 29.108 17.65C29.188 17.75 29.258 17.91 29.318 18.13C29.818 18.19 30.188 18.43 30.428 18.85C30.648 18.85 30.918 18.92 31.238 19.06C31.578 19.2 31.798 19.36 31.898 19.54Z" fill="#FFA800"/>
<path d="M55.2412 19.93C55.3012 20.13 55.3312 20.34 55.3312 20.56C55.3312 20.98 55.1812 21.32 54.8812 21.58C54.6012 21.82 54.2712 21.94 53.8912 21.94C53.5113 21.94 53.1912 21.82 52.9312 21.58C52.6712 21.34 52.5412 20.99 52.5412 20.53C52.5412 20.23 52.5912 19.94 52.6913 19.66C52.4712 19.4 52.3212 19.2 52.2412 19.06C52.1612 18.9 52.1212 18.74 52.1212 18.58C52.1212 18.44 52.1712 18.2 52.2713 17.86C52.0513 17.62 51.9412 17.28 51.9412 16.84C51.9412 16.38 52.0412 16.01 52.2412 15.73C52.1612 15.53 52.0812 15.32 52.0013 15.1C51.9412 14.86 51.9112 14.63 51.9112 14.41C51.9112 13.99 52.0312 13.57 52.2713 13.15C52.0312 12.47 51.9112 11.97 51.9112 11.65C51.9112 11.45 51.9312 11.3 51.9712 11.2C51.6912 11.04 51.4412 10.84 51.2212 10.6C51.0012 10.34 50.8913 10.07 50.8913 9.79C50.7113 9.73 50.5713 9.65 50.4713 9.55C50.3912 9.43 50.3012 9.29 50.2013 9.13C49.7412 9.13 49.3812 9.08 49.1212 8.98C49.0612 9.14 48.8212 9.28 48.4012 9.4C48.0012 9.52 47.6812 9.56 47.4412 9.52C47.3812 9.82 47.1912 10.08 46.8712 10.3C46.5712 10.5 46.2612 10.59 45.9412 10.57C45.9812 10.63 46.0012 10.73 46.0012 10.87C46.0012 11.17 45.8912 11.51 45.6712 11.89C45.4712 12.27 45.2912 12.53 45.1312 12.67C45.3712 13.11 45.4912 13.54 45.4912 13.96C45.4912 14.3 45.4012 14.59 45.2212 14.83C45.4812 14.95 45.6112 15.18 45.6112 15.52C45.6112 15.72 45.5512 15.9 45.4312 16.06C45.7112 16.28 45.8512 16.72 45.8512 17.38C45.8512 17.8 45.8012 18.09 45.7012 18.25C45.9612 18.57 46.0912 18.93 46.0912 19.33C46.0912 19.75 45.9412 20.13 45.6412 20.47C45.6612 20.95 45.5512 21.32 45.3112 21.58C45.0912 21.84 44.8112 21.97 44.4712 21.97C44.1712 21.97 43.9012 21.86 43.6612 21.64C43.4412 21.4 43.3312 21.09 43.3312 20.71C43.3312 20.55 43.3412 20.43 43.3612 20.35C42.9812 20.11 42.7912 19.55 42.7912 18.67C42.7912 18.07 42.8812 17.59 43.0612 17.23C42.9612 17.05 42.8612 16.73 42.7612 16.27C42.6812 15.79 42.6412 15.35 42.6412 14.95C42.6412 14.59 42.6812 14.33 42.7612 14.17C42.5012 13.71 42.3712 13.18 42.3712 12.58C42.3712 11.96 42.4912 11.41 42.7312 10.93C42.3512 10.35 42.1612 9.79 42.1612 9.25C42.1612 8.93 42.2412 8.58 42.4012 8.2C42.1212 7.9 41.9812 7.58 41.9812 7.24C41.9812 6.9 42.1212 6.61 42.4012 6.37C42.7012 6.13 43.0412 6.01 43.4212 6.01C43.7612 6.01 44.0612 6.13 44.3212 6.37C44.5812 6.61 44.7312 6.98 44.7712 7.48C44.8712 7.62 44.9612 7.91 45.0412 8.35C45.1212 8.77 45.1512 9.08 45.1312 9.28C45.2312 8.88 45.4212 8.49 45.7012 8.11C46.1212 7.65 46.5512 7.41 46.9912 7.39C47.1312 7.11 47.3812 6.89 47.7412 6.73C48.1012 6.55 48.4912 6.46 48.9112 6.46C49.1312 6.46 49.2912 6.47 49.3912 6.49C49.5512 6.45 49.6612 6.43 49.7212 6.43C49.9812 6.43 50.2012 6.55 50.3812 6.79C50.5212 6.69 50.7012 6.64 50.9212 6.64C51.1212 6.64 51.3012 6.67 51.4612 6.73C51.6412 6.79 51.7712 6.88 51.8512 7C52.3112 7.02 52.5612 7.26 52.6012 7.72C52.8812 7.86 53.0212 8.02 53.0212 8.2C53.0212 8.3 52.9912 8.43 52.9312 8.59C53.1312 8.57 53.2812 8.64 53.3813 8.8C53.4813 8.96 53.5713 9.19 53.6513 9.49C53.6912 9.15 53.8012 8.9 53.9812 8.74C54.1612 8.58 54.3712 8.5 54.6112 8.5C54.7113 8.5 54.8413 8.52 55.0012 8.56C55.1012 8.28 55.2412 8.06 55.4212 7.9C55.6012 7.72 55.8012 7.63 56.0212 7.63C56.0812 7.63 56.1913 7.65 56.3513 7.69C56.4513 7.41 56.6212 7.19 56.8612 7.03C57.1012 6.87 57.3612 6.79 57.6412 6.79C57.8013 6.79 57.9713 6.82 58.1513 6.88C58.6513 6.52 59.1712 6.34 59.7113 6.34C60.3113 6.34 60.8213 6.53 61.2413 6.91C61.3612 6.87 61.4712 6.85 61.5712 6.85C61.9713 6.85 62.3713 6.99 62.7713 7.27C63.1913 7.53 63.3913 7.84 63.3712 8.2C63.4913 8.14 63.6113 8.11 63.7313 8.11C64.0513 8.11 64.3613 8.24 64.6613 8.5C64.9613 8.76 65.1113 9.05 65.1113 9.37C65.1113 9.51 65.0713 9.65 64.9913 9.79C65.1912 9.85 65.3312 10.01 65.4112 10.27C65.5112 10.51 65.5612 10.79 65.5612 11.11C65.5612 11.33 65.5413 11.53 65.5013 11.71C65.4612 11.87 65.4013 11.97 65.3213 12.01C65.5613 12.15 65.6813 12.37 65.6813 12.67C65.6813 12.93 65.5813 13.17 65.3813 13.39C65.5213 13.59 65.5913 13.82 65.5913 14.08C65.5913 14.5 65.4313 14.85 65.1113 15.13C65.3513 15.39 65.4713 15.7 65.4713 16.06C65.4713 16.34 65.3913 16.59 65.2313 16.81C65.2913 16.99 65.3213 17.16 65.3213 17.32C65.3213 17.58 65.2613 17.84 65.1412 18.1C65.0213 18.36 64.9413 18.52 64.9013 18.58C65.0413 18.78 65.1113 19.02 65.1113 19.3C65.1113 19.74 64.9513 20.09 64.6313 20.35C64.6513 20.41 64.6613 20.51 64.6613 20.65C64.6613 21.03 64.5213 21.33 64.2413 21.55C63.9813 21.77 63.6613 21.88 63.2813 21.88C62.8813 21.88 62.5413 21.76 62.2612 21.52C62.0013 21.26 61.8913 20.91 61.9313 20.47C61.8512 20.23 61.8112 20.04 61.8112 19.9C61.8112 19.56 61.9412 19.24 62.2013 18.94C62.1613 18.84 62.1413 18.67 62.1413 18.43C62.1413 18.13 62.2013 17.85 62.3213 17.59C62.2812 17.47 62.2612 17.38 62.2612 17.32C62.2612 17.16 62.3012 16.98 62.3812 16.78C62.4812 16.58 62.5412 16.46 62.5613 16.42C62.4413 16.18 62.3812 15.93 62.3812 15.67C62.3812 15.35 62.4712 15.12 62.6512 14.98C62.5113 14.84 62.4413 14.67 62.4413 14.47C62.4413 14.25 62.5313 13.99 62.7113 13.69C62.5113 13.49 62.4113 13.22 62.4113 12.88C62.4113 12.54 62.5113 12.24 62.7113 11.98C62.5912 11.88 62.5312 11.63 62.5312 11.23C62.5312 10.91 62.5512 10.61 62.5913 10.33C62.4113 10.35 62.2313 10.28 62.0513 10.12C61.8713 9.94 61.7813 9.75 61.7813 9.55C61.6412 9.59 61.3812 9.54 61.0012 9.4C60.6412 9.24 60.4512 9.1 60.4312 8.98C60.3713 9 60.2913 9.01 60.1913 9.01C60.0313 9.01 59.7913 8.95 59.4712 8.83C59.0912 9.23 58.6513 9.39 58.1513 9.31C57.9713 9.49 57.7313 9.66 57.4313 9.82C57.1312 9.98 56.8512 10.07 56.5913 10.09C56.5513 10.27 56.4812 10.39 56.3813 10.45C56.3012 10.51 56.1913 10.56 56.0513 10.6C55.9113 10.62 55.8012 10.64 55.7212 10.66C55.7212 11 55.5612 11.22 55.2412 11.32C55.3213 11.54 55.3613 11.75 55.3613 11.95C55.3613 12.11 55.3313 12.32 55.2713 12.58C55.2113 12.84 55.1613 13.05 55.1213 13.21C55.1412 13.27 55.1512 13.37 55.1512 13.51C55.1512 13.73 55.0712 13.96 54.9113 14.2C54.9513 14.36 54.9713 14.49 54.9713 14.59C54.9713 14.73 54.9313 14.92 54.8513 15.16C55.0112 15.52 55.0912 15.83 55.0912 16.09C55.0912 16.33 55.0512 16.57 54.9713 16.81C55.1713 17.07 55.2713 17.46 55.2713 17.98C55.2713 18.22 55.2413 18.43 55.1813 18.61C55.3812 18.81 55.4812 19.06 55.4812 19.36C55.4812 19.6 55.4012 19.79 55.2412 19.93Z" fill="#40A8E2"/>
<path d="M70.0521 19.12C70.1921 19.14 70.3121 19.24 70.4121 19.42C70.5121 19.6 70.5621 19.81 70.5621 20.05C70.5621 20.27 70.5221 20.46 70.4421 20.62C70.5221 20.96 70.4021 21.26 70.0821 21.52C69.7621 21.76 69.4021 21.88 69.0021 21.88C68.6821 21.88 68.3921 21.78 68.1321 21.58C67.8921 21.36 67.7521 21.04 67.7121 20.62C67.5521 20.42 67.4721 20.22 67.4721 20.02C67.4721 19.68 67.6121 19.37 67.8921 19.09C68.1921 18.79 68.5421 18.64 68.9421 18.64C69.3021 18.64 69.6721 18.8 70.0521 19.12ZM82.9985 4.93C83.0585 4.99 83.0885 5.09 83.0885 5.23C83.0885 5.41 83.0185 5.61 82.8785 5.83C82.7585 6.05 82.5985 6.22 82.3985 6.34C82.4385 6.38 82.4585 6.5 82.4585 6.7C82.4585 6.9 82.4385 7.09 82.3985 7.27C82.3785 7.43 82.3585 7.54 82.3385 7.6C82.3985 7.66 82.4585 7.79 82.5185 7.99C82.5785 8.19 82.6185 8.35 82.6385 8.47C82.8185 8.47 82.9885 8.53 83.1485 8.65C83.3085 8.77 83.4285 8.94 83.5085 9.16C83.5285 9.14 83.5785 9.13 83.6585 9.13C83.7785 9.13 83.9185 9.15 84.0785 9.19C84.2385 9.23 84.3685 9.27 84.4685 9.31C84.5285 9.25 84.6585 9.22 84.8585 9.22C85.1985 9.22 85.4185 9.3 85.5185 9.46C85.6185 9.4 85.7485 9.37 85.9085 9.37C86.2285 9.37 86.4685 9.45 86.6285 9.61C86.7285 9.53 86.9385 9.49 87.2585 9.49C87.4785 9.49 87.6985 9.52 87.9185 9.58C88.1385 9.64 88.2785 9.72 88.3385 9.82C88.3985 9.8 88.4885 9.79 88.6085 9.79C88.9485 9.79 89.2685 9.88 89.5685 10.06C89.8885 10.22 90.0485 10.4 90.0485 10.6C90.3085 10.56 90.5485 10.62 90.7685 10.78C90.9885 10.94 91.1685 11.14 91.3085 11.38C91.6685 11.44 92.0085 11.77 92.3285 12.37C92.6485 12.97 92.8085 13.53 92.8085 14.05C92.8085 14.29 92.7585 14.49 92.6585 14.65C92.9585 14.85 93.1085 15.22 93.1085 15.76C93.1085 16.14 93.0285 16.49 92.8685 16.81C92.9085 16.97 92.9285 17.09 92.9285 17.17C92.9285 17.51 92.8285 17.85 92.6285 18.19C92.4485 18.51 92.2285 18.71 91.9685 18.79C91.9085 19.13 91.7285 19.45 91.4285 19.75C91.1285 20.03 90.8185 20.24 90.4985 20.38C90.4585 20.64 90.2685 20.9 89.9285 21.16C89.5885 21.4 89.2585 21.48 88.9385 21.4C88.7985 21.58 88.5385 21.73 88.1585 21.85C87.7985 21.95 87.4085 22 86.9885 22C86.5885 22 86.2185 21.95 85.8785 21.85C85.5585 21.75 85.3385 21.6 85.2185 21.4C85.0385 21.48 84.8385 21.52 84.6185 21.52C84.3385 21.52 84.0685 21.45 83.8085 21.31C83.5685 21.17 83.3985 20.98 83.2985 20.74C83.0585 20.8 82.7985 20.75 82.5185 20.59C82.2585 20.41 82.0685 20.14 81.9485 19.78C81.6285 19.78 81.2985 19.67 80.9585 19.45C80.6385 19.23 80.4585 19.01 80.4185 18.79C80.0985 18.73 79.8485 18.59 79.6685 18.37C79.5085 18.15 79.4285 17.9 79.4285 17.62C79.4285 17.3 79.5285 17.01 79.7285 16.75C79.9485 16.49 80.2285 16.36 80.5685 16.36C80.7485 16.36 80.8885 16.38 80.9885 16.42C81.1485 16.38 81.2585 16.36 81.3185 16.36C81.6185 16.36 81.8885 16.46 82.1285 16.66C82.3885 16.86 82.5285 17.11 82.5485 17.41C82.6685 17.37 82.7685 17.35 82.8485 17.35C83.1285 17.35 83.3785 17.48 83.5985 17.74C83.8385 17.98 83.9785 18.26 84.0185 18.58C84.1385 18.52 84.2685 18.49 84.4085 18.49C84.6285 18.49 84.8385 18.55 85.0385 18.67C85.2385 18.79 85.3485 18.93 85.3685 19.09C85.5485 19.03 85.7285 19 85.9085 19C86.2285 19 86.4885 19.13 86.6885 19.39C86.8685 19.27 87.0585 19.21 87.2585 19.21C87.3585 19.21 87.5285 19.25 87.7685 19.33C88.0285 18.95 88.2885 18.8 88.5485 18.88C88.7085 18.66 88.8885 18.47 89.0885 18.31C89.2885 18.13 89.4885 18.03 89.6885 18.01C89.7685 17.79 89.8585 17.63 89.9585 17.53C90.0585 17.41 90.2185 17.29 90.4385 17.17C90.3985 17.09 90.3785 16.99 90.3785 16.87C90.3785 16.67 90.4185 16.46 90.4985 16.24C90.5785 16.02 90.6685 15.88 90.7685 15.82C90.6085 15.64 90.5285 15.43 90.5285 15.19C90.5285 14.99 90.5985 14.76 90.7385 14.5C90.3785 14.28 90.1985 13.96 90.1985 13.54C89.8985 13.44 89.6785 13.3 89.5385 13.12C89.1985 13.14 88.9185 13.09 88.6985 12.97C88.4785 12.83 88.3385 12.63 88.2785 12.37C88.1185 12.41 88.0085 12.43 87.9485 12.43C87.7485 12.43 87.5585 12.39 87.3785 12.31C87.1985 12.21 87.0485 12.08 86.9285 11.92C86.8085 12.02 86.6485 12.07 86.4485 12.07C86.1885 12.07 85.9085 11.97 85.6085 11.77C85.4085 11.87 85.2185 11.92 85.0385 11.92C84.7785 11.92 84.5685 11.87 84.4085 11.77C84.2885 11.81 84.1885 11.83 84.1085 11.83C83.9285 11.83 83.7585 11.8 83.5985 11.74C83.4585 11.66 83.3785 11.57 83.3585 11.47C82.6385 11.47 82.2485 11.34 82.1885 11.08C81.9485 11.04 81.7185 10.96 81.4985 10.84C81.2785 10.7 81.1585 10.54 81.1385 10.36C80.9385 10.32 80.7685 10.21 80.6285 10.03C80.4885 9.83 80.4185 9.59 80.4185 9.31C80.2385 9.17 80.0885 8.92 79.9685 8.56C79.8485 8.2 79.7885 7.82 79.7885 7.42C79.7885 6.78 79.9185 6.34 80.1785 6.1C80.1385 5.98 80.1185 5.86 80.1185 5.74C80.1185 5.46 80.1685 5.17 80.2685 4.87C80.3885 4.57 80.5085 4.39 80.6285 4.33C80.6285 4.07 80.6985 3.77 80.8385 3.43C81.0185 3.19 81.2285 2.99 81.4685 2.83C81.7085 2.65 81.9685 2.56 82.2485 2.56C82.2885 2.34 82.4085 2.15 82.6085 1.99C82.8285 1.83 83.0785 1.75 83.3585 1.75C83.4385 1.51 83.6085 1.32 83.8685 1.18C84.1285 1.04 84.4185 0.969999 84.7385 0.969999C84.9785 0.969999 85.1885 0.999999 85.3685 1.06C85.4285 0.96 85.5385 0.88 85.6985 0.819999C85.8585 0.759999 86.0285 0.729998 86.2085 0.729998C86.3085 0.729998 86.4185 0.749999 86.5385 0.789999C86.7185 0.609999 87.0385 0.519999 87.4985 0.519999C87.9985 0.519999 88.3785 0.609999 88.6385 0.789999C88.7185 0.77 88.8285 0.76 88.9685 0.76C89.5685 0.76 90.0785 1.11 90.4985 1.81C90.7185 1.77 90.9585 1.83 91.2185 1.99C91.4985 2.15 91.7185 2.37 91.8785 2.65C92.0585 2.91 92.1385 3.16 92.1185 3.4C92.4585 3.64 92.6985 3.89 92.8385 4.15C92.9785 4.41 93.0885 4.8 93.1685 5.32C93.1885 5.68 93.0785 5.97 92.8385 6.19C92.5985 6.41 92.3185 6.52 91.9985 6.52C91.6985 6.52 91.4385 6.41 91.2185 6.19C90.9785 6.15 90.7685 6.03 90.5885 5.83C90.4085 5.63 90.3285 5.43 90.3485 5.23C89.7885 4.85 89.5385 4.43 89.5985 3.97C89.3585 4.01 89.0585 3.95 88.6985 3.79C88.3585 3.61 88.0985 3.38 87.9185 3.1C87.7785 3.3 87.4985 3.4 87.0785 3.4C86.7785 3.4 86.5285 3.35 86.3285 3.25C86.1885 3.43 85.9385 3.52 85.5785 3.52C85.3985 3.52 85.2285 3.49 85.0685 3.43C84.9885 3.65 84.8485 3.84 84.6485 4C84.4685 4.14 84.2585 4.23 84.0185 4.27C83.8985 4.45 83.7485 4.61 83.5685 4.75C83.3885 4.87 83.1985 4.93 82.9985 4.93ZM95.5687 10.36C95.4087 10.1 95.3287 9.85 95.3287 9.61C95.3287 9.25 95.4487 8.95 95.6887 8.71C95.7487 8.41 95.8887 8.13 96.1087 7.87C96.3287 7.59 96.5687 7.38 96.8287 7.24C97.1087 7.08 97.3287 7.02 97.4887 7.06C97.6287 6.84 97.9087 6.64 98.3287 6.46C98.7487 6.26 99.1387 6.16 99.4987 6.16C99.5787 6.16 99.6987 6.18 99.8587 6.22C100.079 5.98 100.369 5.86 100.729 5.86C101.009 5.86 101.209 5.94 101.329 6.1C101.589 5.92 101.929 5.83 102.349 5.83C102.849 5.83 103.289 5.95 103.669 6.19C104.069 6.43 104.299 6.75 104.359 7.15C104.719 7.27 104.989 7.46 105.169 7.72C105.369 7.96 105.489 8.3 105.529 8.74C105.789 9 105.979 9.31 106.099 9.67C106.219 10.01 106.279 10.36 106.279 10.72C106.279 11.18 106.199 11.55 106.039 11.83C106.179 12.03 106.299 12.33 106.399 12.73C106.499 13.13 106.549 13.52 106.549 13.9C106.549 14.06 106.529 14.26 106.489 14.5C106.629 14.8 106.699 15 106.699 15.1C106.699 15.16 106.669 15.3 106.609 15.52C106.629 15.6 106.649 15.7 106.669 15.82C106.689 15.92 106.699 16.05 106.699 16.21C106.699 16.51 106.589 16.78 106.369 17.02C106.449 17.24 106.489 17.51 106.489 17.83C106.489 18.25 106.389 18.59 106.189 18.85C106.229 18.93 106.249 19.06 106.249 19.24C106.249 19.66 106.079 20.01 105.739 20.29C105.659 20.57 105.509 20.79 105.289 20.95C105.069 21.09 104.829 21.16 104.569 21.16C104.309 21.16 104.099 21.08 103.939 20.92C103.419 21.14 102.999 21.25 102.679 21.25C102.519 21.25 102.399 21.24 102.319 21.22C101.799 21.38 101.359 21.46 100.999 21.46C100.739 21.46 100.379 21.41 99.9187 21.31C99.6387 21.47 99.3687 21.55 99.1087 21.55C98.8687 21.55 98.6487 21.48 98.4487 21.34C98.3487 21.36 98.1987 21.37 97.9987 21.37C97.2187 21.37 96.6187 21.02 96.1987 20.32C95.4387 19.88 95.0587 19.22 95.0587 18.34C95.0587 18.12 95.0687 17.95 95.0887 17.83C94.9087 17.71 94.8187 17.46 94.8187 17.08C94.8187 16.82 94.8687 16.59 94.9687 16.39C94.8887 16.03 94.8487 15.8 94.8487 15.7C94.8487 15.12 95.1287 14.6 95.6887 14.14C95.9087 13.68 96.1587 13.37 96.4387 13.21C96.7387 13.05 97.1087 12.93 97.5487 12.85C97.6687 12.51 97.9487 12.28 98.3887 12.16C98.8287 12.04 99.2587 12 99.6787 12.04C99.7987 11.96 99.9687 11.89 100.189 11.83C100.409 11.75 100.629 11.71 100.849 11.71C101.089 11.71 101.299 11.75 101.479 11.83C101.519 11.79 101.619 11.77 101.779 11.77C101.899 11.77 102.019 11.78 102.139 11.8C102.259 11.82 102.339 11.85 102.379 11.89C102.659 11.53 102.989 11.35 103.369 11.35C103.489 11.35 103.609 11.38 103.729 11.44V11.35C103.729 11.01 103.799 10.77 103.939 10.63C103.739 10.57 103.519 10.4 103.279 10.12C103.059 9.82 102.929 9.55 102.889 9.31C102.569 9.17 102.349 8.94 102.229 8.62C101.989 8.8 101.709 8.89 101.389 8.89C101.169 8.89 100.959 8.83 100.759 8.71C100.419 8.81 100.199 8.85 100.099 8.83C99.8187 9.03 99.5087 9.13 99.1687 9.13C98.8687 9.53 98.5187 9.71 98.1187 9.67C97.9387 9.99 97.6887 10.27 97.3687 10.51C97.0687 10.75 96.7587 10.87 96.4387 10.87C96.0787 10.87 95.7887 10.7 95.5687 10.36ZM97.2187 17.05C97.4587 17.29 97.5787 17.52 97.5787 17.74C97.5787 17.9 97.5387 18.1 97.4587 18.34C97.5387 18.34 97.6487 18.39 97.7887 18.49C97.9487 18.57 98.0387 18.66 98.0587 18.76C98.2187 18.7 98.4187 18.67 98.6587 18.67C99.0987 18.67 99.3887 18.77 99.5287 18.97C99.7487 18.89 99.9787 18.85 100.219 18.85C100.599 18.85 100.899 18.96 101.119 19.18C101.279 19.02 101.539 18.89 101.899 18.79C102.279 18.69 102.619 18.64 102.919 18.64C103.099 18.28 103.419 18.07 103.879 18.01C103.919 17.87 104.029 17.69 104.209 17.47C104.129 17.35 104.059 17.19 103.999 16.99C103.939 16.79 103.909 16.59 103.909 16.39C103.909 15.97 104.009 15.66 104.209 15.46C103.989 15.18 103.879 14.85 103.879 14.47C103.879 14.21 103.919 13.99 103.999 13.81C103.839 13.91 103.659 13.96 103.459 13.96C103.279 13.96 103.129 13.89 103.009 13.75C102.829 13.93 102.579 14.02 102.259 14.02C102.059 14.02 101.859 13.97 101.659 13.87C101.439 14.09 101.169 14.2 100.849 14.2C100.749 14.2 100.599 14.16 100.399 14.08C100.099 14.38 99.8287 14.47 99.5887 14.35C99.4687 14.63 99.3087 14.82 99.1087 14.92C98.9287 15.02 98.6687 15.07 98.3287 15.07C98.2487 15.29 98.1087 15.47 97.9087 15.61C97.7287 15.75 97.5387 15.8 97.3387 15.76C97.4387 15.9 97.4887 16.06 97.4887 16.24C97.4887 16.54 97.3987 16.81 97.2187 17.05ZM113.706 9.16C113.746 9.38 113.676 9.58 113.496 9.76C113.336 9.92 113.136 10.01 112.896 10.03C112.756 10.43 112.386 10.67 111.786 10.75C111.806 11.09 111.736 11.38 111.576 11.62C111.416 11.84 111.236 11.97 111.036 12.01C111.036 12.53 110.926 13.07 110.706 13.63C110.746 13.79 110.766 13.93 110.766 14.05C110.766 14.45 110.686 14.81 110.526 15.13C110.626 15.33 110.676 15.56 110.676 15.82C110.676 16.16 110.616 16.51 110.496 16.87C110.676 17.11 110.766 17.38 110.766 17.68C110.766 17.86 110.716 18.07 110.616 18.31C110.676 18.43 110.706 18.62 110.706 18.88C110.706 19.32 110.616 19.64 110.436 19.84C110.516 20.12 110.556 20.34 110.556 20.5C110.556 20.66 110.526 20.8 110.466 20.92C110.466 21.26 110.336 21.53 110.076 21.73C109.816 21.91 109.506 22 109.146 22C108.806 22 108.506 21.91 108.246 21.73C108.006 21.53 107.896 21.26 107.916 20.92C107.856 20.74 107.826 20.55 107.826 20.35C107.826 19.93 107.896 19.53 108.036 19.15C107.856 18.91 107.766 18.65 107.766 18.37C107.766 18.19 107.816 17.98 107.916 17.74C107.776 17.52 107.706 17.27 107.706 16.99C107.706 16.79 107.746 16.61 107.826 16.45C107.906 16.29 108.006 16.16 108.126 16.06C107.846 15.74 107.706 15.37 107.706 14.95C107.706 14.55 107.836 14.21 108.096 13.93C108.016 13.83 107.946 13.68 107.886 13.48C107.826 13.28 107.796 13.08 107.796 12.88C107.796 12.62 107.856 12.43 107.976 12.31C107.816 11.95 107.736 11.54 107.736 11.08C107.736 10.68 107.796 10.41 107.916 10.27C107.736 9.87 107.646 9.49 107.646 9.13C107.646 8.73 107.736 8.44 107.916 8.26C107.596 7.88 107.436 7.46 107.436 7C107.436 6.44 107.676 6.03 108.156 5.77C108.396 5.65 108.636 5.59 108.876 5.59C109.256 5.59 109.576 5.75 109.836 6.07C110.096 6.37 110.226 6.73 110.226 7.15C110.226 7.37 110.176 7.6 110.076 7.84C110.336 8.1 110.466 8.43 110.466 8.83C110.466 9.11 110.446 9.34 110.406 9.52C110.566 8.94 110.796 8.6 111.096 8.5C111.096 8.12 111.216 7.77 111.456 7.45C111.696 7.13 111.976 6.89 112.296 6.73C112.636 6.57 112.916 6.52 113.136 6.58C113.636 6.04 114.176 5.77 114.756 5.77C115.016 5.77 115.246 5.82 115.446 5.92C115.626 5.78 115.896 5.71 116.256 5.71C116.556 5.71 116.836 5.77 117.096 5.89C117.356 5.99 117.526 6.15 117.606 6.37C118.326 6.41 118.836 6.71 119.136 7.27C119.396 7.29 119.646 7.44 119.886 7.72C120.146 8 120.276 8.32 120.276 8.68C120.276 8.84 120.226 9.04 120.126 9.28C120.586 9.46 120.816 9.81 120.816 10.33C120.816 10.51 120.806 10.64 120.786 10.72C121.046 10.86 121.226 11.01 121.326 11.17C121.446 11.31 121.506 11.49 121.506 11.71C121.506 11.95 121.446 12.27 121.326 12.67C121.566 12.85 121.686 13.15 121.686 13.57C121.686 14.01 121.576 14.34 121.356 14.56C121.536 14.86 121.626 15.23 121.626 15.67C121.626 16.11 121.526 16.46 121.326 16.72C121.446 17.32 121.506 17.74 121.506 17.98C121.506 18.4 121.416 18.69 121.236 18.85C121.396 19.21 121.476 19.56 121.476 19.9C121.476 20.36 121.366 20.7 121.146 20.92C121.166 21.24 121.026 21.5 120.726 21.7C120.446 21.9 120.126 22 119.766 22C119.486 22 119.246 21.93 119.046 21.79C118.846 21.65 118.746 21.45 118.746 21.19C118.586 20.81 118.506 20.38 118.506 19.9C118.506 19.16 118.686 18.62 119.046 18.28C118.906 18.1 118.776 17.81 118.656 17.41C118.556 16.99 118.506 16.6 118.506 16.24C118.506 15.74 118.606 15.43 118.806 15.31C118.646 15.01 118.566 14.7 118.566 14.38C118.566 14.02 118.676 13.58 118.896 13.06C118.716 12.92 118.566 12.71 118.446 12.43C118.326 12.15 118.266 11.88 118.266 11.62C118.266 11.54 118.286 11.42 118.326 11.26C118.106 11.08 117.906 10.79 117.726 10.39C117.566 9.99 117.496 9.63 117.516 9.31C117.336 9.29 117.156 9.23 116.976 9.13C116.796 9.03 116.656 8.89 116.556 8.71H116.226C115.886 8.71 115.646 8.64 115.506 8.5C115.346 8.7 115.076 8.88 114.696 9.04C114.336 9.18 114.016 9.22 113.736 9.16H113.706ZM132.055 19.42C132.075 19.32 132.125 19.25 132.205 19.21C132.305 19.17 132.415 19.14 132.535 19.12C132.615 19.1 132.715 19.09 132.835 19.09C133.175 19.09 133.445 19.22 133.645 19.48C133.865 19.72 133.975 20.01 133.975 20.35C133.975 20.61 133.905 20.84 133.765 21.04C133.625 21.22 133.415 21.35 133.135 21.43C132.715 21.79 132.215 21.94 131.635 21.88C131.475 22.02 131.265 22.09 131.005 22.09C130.645 22.09 130.315 21.96 130.015 21.7C129.815 21.66 129.575 21.56 129.295 21.4C129.015 21.22 128.875 21.06 128.875 20.92C128.595 20.88 128.305 20.72 128.005 20.44C127.725 20.16 127.625 19.82 127.705 19.42C127.485 19.18 127.355 18.93 127.315 18.67C127.075 18.55 126.895 18.37 126.775 18.13C126.675 17.89 126.645 17.64 126.685 17.38C126.425 17.14 126.295 16.78 126.295 16.3C126.295 16.12 126.315 15.89 126.355 15.61C126.075 15.39 125.935 15.09 125.935 14.71C125.935 14.37 126.045 14.09 126.265 13.87C126.025 13.63 125.905 13.32 125.905 12.94C125.905 12.8 125.945 12.63 126.025 12.43C125.905 12.19 125.845 11.95 125.845 11.71C125.845 11.39 125.935 11.14 126.115 10.96C125.995 10.72 125.935 10.46 125.935 10.18C125.935 9.94 125.965 9.73 126.025 9.55C126.105 9.35 126.195 9.2 126.295 9.1C126.075 8.84 125.965 8.56 125.965 8.26C125.965 8.1 125.995 7.93 126.055 7.75C125.875 7.81 125.675 7.84 125.455 7.84C125.115 7.84 124.865 7.77 124.705 7.63C124.465 7.69 124.255 7.72 124.075 7.72C123.715 7.72 123.345 7.61 122.965 7.39C122.765 7.51 122.555 7.57 122.335 7.57C122.015 7.57 121.755 7.44 121.555 7.18C121.335 6.9 121.225 6.59 121.225 6.25C121.225 5.95 121.325 5.7 121.525 5.5C121.705 5.28 121.975 5.16 122.335 5.14C122.575 5.04 122.795 4.99 122.995 4.99C123.395 4.99 123.745 5.09 124.045 5.29C124.305 5.19 124.595 5.14 124.915 5.14C125.195 5.14 125.415 5.19 125.575 5.29C125.595 5.21 125.675 5.14 125.815 5.08C125.975 5 126.105 4.97 126.205 4.99C126.125 4.81 126.085 4.57 126.085 4.27C126.085 3.91 126.165 3.72 126.325 3.7C126.185 3.5 126.115 3.21 126.115 2.83C126.115 2.31 126.245 1.95 126.505 1.75C126.485 1.35 126.565 1.05 126.745 0.849999C126.925 0.649999 127.155 0.549999 127.435 0.549999C127.715 0.549999 127.975 0.649999 128.215 0.849999C128.455 1.03 128.575 1.27 128.575 1.57C128.575 1.77 128.495 2 128.335 2.26C128.535 2.44 128.635 2.74 128.635 3.16C128.635 3.34 128.605 3.53 128.545 3.73C128.505 3.91 128.445 4.05 128.365 4.15C128.485 4.23 128.545 4.39 128.545 4.63C128.545 4.83 128.495 5.1 128.395 5.44C128.575 5.38 128.765 5.35 128.965 5.35C129.265 5.35 129.495 5.42 129.655 5.56C129.855 5.46 130.015 5.41 130.135 5.41C130.335 5.41 130.495 5.49 130.615 5.65C130.755 5.55 130.925 5.5 131.125 5.5C131.405 5.5 131.625 5.61 131.785 5.83C132.165 5.83 132.445 5.92 132.625 6.1C132.825 6.26 132.925 6.47 132.925 6.73C132.925 7.05 132.795 7.36 132.535 7.66C132.295 7.94 132.015 8.08 131.695 8.08C131.515 8.08 131.335 8.02 131.155 7.9C130.955 8.06 130.695 8.14 130.375 8.14C130.075 8.14 129.825 8.07 129.625 7.93C129.365 8.03 129.175 8.08 129.055 8.08C128.895 8.08 128.705 8.01 128.485 7.87C128.665 8.11 128.755 8.37 128.755 8.65C128.755 8.95 128.635 9.22 128.395 9.46C128.575 9.7 128.665 10 128.665 10.36C128.665 10.68 128.575 10.98 128.395 11.26C128.635 11.42 128.755 11.68 128.755 12.04C128.755 12.34 128.665 12.6 128.485 12.82C128.685 13.04 128.785 13.43 128.785 13.99C128.785 14.23 128.755 14.43 128.695 14.59C128.835 14.79 128.905 15 128.905 15.22C128.905 15.34 128.875 15.5 128.815 15.7C128.775 15.88 128.745 16.03 128.725 16.15C128.965 16.43 129.085 16.7 129.085 16.96C129.425 17.22 129.595 17.53 129.595 17.89C129.995 18.11 130.195 18.48 130.195 19C130.235 19.06 130.275 19.1 130.315 19.12C130.355 19.14 130.385 19.16 130.405 19.18L130.615 19.15C130.915 19.15 131.155 19.24 131.335 19.42C131.495 19.38 131.625 19.36 131.725 19.36C131.785 19.36 131.895 19.38 132.055 19.42ZM134.705 10.36C134.545 10.1 134.465 9.85 134.465 9.61C134.465 9.25 134.585 8.95 134.825 8.71C134.885 8.41 135.025 8.13 135.245 7.87C135.465 7.59 135.705 7.38 135.965 7.24C136.245 7.08 136.465 7.02 136.625 7.06C136.765 6.84 137.045 6.64 137.465 6.46C137.885 6.26 138.275 6.16 138.635 6.16C138.715 6.16 138.835 6.18 138.995 6.22C139.215 5.98 139.505 5.86 139.865 5.86C140.145 5.86 140.345 5.94 140.465 6.1C140.725 5.92 141.065 5.83 141.485 5.83C141.985 5.83 142.425 5.95 142.805 6.19C143.205 6.43 143.435 6.75 143.495 7.15C143.855 7.27 144.125 7.46 144.305 7.72C144.505 7.96 144.625 8.3 144.665 8.74C144.925 9 145.115 9.31 145.235 9.67C145.355 10.01 145.415 10.36 145.415 10.72C145.415 11.18 145.335 11.55 145.175 11.83C145.315 12.03 145.435 12.33 145.535 12.73C145.635 13.13 145.685 13.52 145.685 13.9C145.685 14.06 145.665 14.26 145.625 14.5C145.765 14.8 145.835 15 145.835 15.1C145.835 15.16 145.805 15.3 145.745 15.52C145.765 15.6 145.785 15.7 145.805 15.82C145.825 15.92 145.835 16.05 145.835 16.21C145.835 16.51 145.725 16.78 145.505 17.02C145.585 17.24 145.625 17.51 145.625 17.83C145.625 18.25 145.525 18.59 145.325 18.85C145.365 18.93 145.385 19.06 145.385 19.24C145.385 19.66 145.215 20.01 144.875 20.29C144.795 20.57 144.645 20.79 144.425 20.95C144.205 21.09 143.965 21.16 143.705 21.16C143.445 21.16 143.235 21.08 143.075 20.92C142.555 21.14 142.135 21.25 141.815 21.25C141.655 21.25 141.535 21.24 141.455 21.22C140.935 21.38 140.495 21.46 140.135 21.46C139.875 21.46 139.515 21.41 139.055 21.31C138.775 21.47 138.505 21.55 138.245 21.55C138.005 21.55 137.785 21.48 137.585 21.34C137.485 21.36 137.335 21.37 137.135 21.37C136.355 21.37 135.755 21.02 135.335 20.32C134.575 19.88 134.195 19.22 134.195 18.34C134.195 18.12 134.205 17.95 134.225 17.83C134.045 17.71 133.955 17.46 133.955 17.08C133.955 16.82 134.005 16.59 134.105 16.39C134.025 16.03 133.985 15.8 133.985 15.7C133.985 15.12 134.265 14.6 134.825 14.14C135.045 13.68 135.295 13.37 135.575 13.21C135.875 13.05 136.245 12.93 136.685 12.85C136.805 12.51 137.085 12.28 137.525 12.16C137.965 12.04 138.395 12 138.815 12.04C138.935 11.96 139.105 11.89 139.325 11.83C139.545 11.75 139.765 11.71 139.985 11.71C140.225 11.71 140.435 11.75 140.615 11.83C140.655 11.79 140.755 11.77 140.915 11.77C141.035 11.77 141.155 11.78 141.275 11.8C141.395 11.82 141.475 11.85 141.515 11.89C141.795 11.53 142.125 11.35 142.505 11.35C142.625 11.35 142.745 11.38 142.865 11.44V11.35C142.865 11.01 142.935 10.77 143.075 10.63C142.875 10.57 142.655 10.4 142.415 10.12C142.195 9.82 142.065 9.55 142.025 9.31C141.705 9.17 141.485 8.94 141.365 8.62C141.125 8.8 140.845 8.89 140.525 8.89C140.305 8.89 140.095 8.83 139.895 8.71C139.555 8.81 139.335 8.85 139.235 8.83C138.955 9.03 138.645 9.13 138.305 9.13C138.005 9.53 137.655 9.71 137.255 9.67C137.075 9.99 136.825 10.27 136.505 10.51C136.205 10.75 135.895 10.87 135.575 10.87C135.215 10.87 134.925 10.7 134.705 10.36ZM136.355 17.05C136.595 17.29 136.715 17.52 136.715 17.74C136.715 17.9 136.675 18.1 136.595 18.34C136.675 18.34 136.785 18.39 136.925 18.49C137.085 18.57 137.175 18.66 137.195 18.76C137.355 18.7 137.555 18.67 137.795 18.67C138.235 18.67 138.525 18.77 138.665 18.97C138.885 18.89 139.115 18.85 139.355 18.85C139.735 18.85 140.035 18.96 140.255 19.18C140.415 19.02 140.675 18.89 141.035 18.79C141.415 18.69 141.755 18.64 142.055 18.64C142.235 18.28 142.555 18.07 143.015 18.01C143.055 17.87 143.165 17.69 143.345 17.47C143.265 17.35 143.195 17.19 143.135 16.99C143.075 16.79 143.045 16.59 143.045 16.39C143.045 15.97 143.145 15.66 143.345 15.46C143.125 15.18 143.015 14.85 143.015 14.47C143.015 14.21 143.055 13.99 143.135 13.81C142.975 13.91 142.795 13.96 142.595 13.96C142.415 13.96 142.265 13.89 142.145 13.75C141.965 13.93 141.715 14.02 141.395 14.02C141.195 14.02 140.995 13.97 140.795 13.87C140.575 14.09 140.305 14.2 139.985 14.2C139.885 14.2 139.735 14.16 139.535 14.08C139.235 14.38 138.965 14.47 138.725 14.35C138.605 14.63 138.445 14.82 138.245 14.92C138.065 15.02 137.805 15.07 137.465 15.07C137.385 15.29 137.245 15.47 137.045 15.61C136.865 15.75 136.675 15.8 136.475 15.76C136.575 15.9 136.625 16.06 136.625 16.24C136.625 16.54 136.535 16.81 136.355 17.05Z" fill="#4D2E27"/>
</svg>
