<svg width="75" height="37" viewBox="0 0 75 37" fill="none" xmlns="http://www.w3.org/2000/svg">
<path d="M14.2938 6.46C14.4338 6.32 14.6938 6.25 15.0738 6.25C15.2938 6.25 15.5138 6.28 15.7338 6.34C15.9538 6.4 16.1138 6.47 16.2138 6.55C16.5738 6.53 16.8638 6.63 17.0838 6.85C17.3038 7.07 17.4138 7.34 17.4138 7.66C17.4138 8 17.2838 8.3 17.0238 8.56C16.7838 8.82 16.4338 8.95 15.9738 8.95C15.7538 8.95 15.5238 8.92 15.2838 8.86C15.0638 9.06 14.7938 9.16 14.4738 9.16C14.1338 9.16 13.8538 9.06 13.6338 8.86C13.3938 9.04 13.1338 9.13 12.8538 9.13C12.6138 9.13 12.4038 9.09 12.2238 9.01C12.0038 9.17 11.7638 9.25 11.5038 9.25C11.2638 9.25 11.0538 9.19 10.8738 9.07C10.6338 9.19 10.4138 9.25 10.2138 9.25C9.91383 9.25 9.59383 9.14 9.25383 8.92C8.89383 9.2 8.51383 9.34 8.11383 9.34C7.79383 9.34 7.50383 9.25 7.24383 9.07C7.06383 9.25 6.86383 9.37 6.64383 9.43C6.44383 9.49 6.16383 9.51 5.80383 9.49C6.02383 9.77 6.13383 10.1 6.13383 10.48C6.13383 10.84 6.00383 11.26 5.74383 11.74C6.02383 12 6.16383 12.32 6.16383 12.7C6.16383 13.02 6.04383 13.48 5.80383 14.08C6.06383 14.4 6.19383 14.67 6.19383 14.89C6.19383 15.07 6.11383 15.3 5.95383 15.58C6.01383 15.68 6.06383 15.84 6.10383 16.06C6.38383 16.02 6.58383 16 6.70383 16C7.04383 16 7.32383 16.08 7.54383 16.24C7.70383 16.18 7.90383 16.15 8.14383 16.15C8.44383 16.15 8.69383 16.18 8.89383 16.24C9.05383 16.06 9.32383 15.97 9.70383 15.97C10.1438 15.97 10.4638 16.06 10.6638 16.24C10.9238 16.08 11.2438 16 11.6238 16C11.9838 16 12.2938 16.07 12.5538 16.21C12.6338 16.11 12.7638 16.03 12.9438 15.97C13.1438 15.89 13.3438 15.85 13.5438 15.85C13.8838 15.85 14.1338 15.93 14.2938 16.09C14.5738 16.17 14.7838 16.31 14.9238 16.51C15.0838 16.71 15.1638 16.94 15.1638 17.2C15.1638 17.54 15.0438 17.85 14.8038 18.13C14.5838 18.39 14.3038 18.52 13.9638 18.52C13.7638 18.52 13.5838 18.48 13.4238 18.4C13.2238 18.54 13.0038 18.61 12.7638 18.61C12.5638 18.61 12.3638 18.56 12.1638 18.46C11.8638 18.64 11.4238 18.73 10.8438 18.73C10.4038 18.73 10.0638 18.67 9.82383 18.55C9.54383 18.71 9.27383 18.79 9.01383 18.79C8.81383 18.79 8.55383 18.73 8.23383 18.61C7.91383 18.73 7.64383 18.79 7.42383 18.79C7.14383 18.79 6.86383 18.68 6.58383 18.46C6.46383 18.6 6.25383 18.72 5.95383 18.82C6.13383 19 6.22383 19.3 6.22383 19.72C6.22383 20.14 6.11383 20.48 5.89383 20.74C6.05383 20.96 6.18383 21.22 6.28383 21.52C6.38383 21.82 6.43383 22.11 6.43383 22.39C6.43383 22.69 6.37383 22.96 6.25383 23.2C6.35383 23.34 6.40383 23.53 6.40383 23.77C6.40383 24.09 6.29383 24.38 6.07383 24.64C6.35383 24.92 6.49383 25.24 6.49383 25.6C6.49383 25.94 6.38383 26.25 6.16383 26.53C6.18383 26.59 6.19383 26.68 6.19383 26.8C6.19383 27.18 6.06383 27.48 5.80383 27.7C5.56383 27.9 5.28383 28 4.96383 28C4.70383 28 4.48383 27.94 4.30383 27.82C3.86383 27.58 3.64383 27.22 3.64383 26.74C3.64383 26.42 3.75383 26.13 3.97383 25.87C3.71383 25.61 3.58383 25.2 3.58383 24.64C3.58383 24.32 3.62383 24.08 3.70383 23.92C3.54383 23.66 3.46383 23.33 3.46383 22.93C3.46383 22.71 3.49383 22.5 3.55383 22.3C3.61383 22.1 3.68383 21.96 3.76383 21.88C3.60383 21.64 3.52383 21.23 3.52383 20.65C3.52383 20.13 3.59383 19.8 3.73383 19.66C3.63383 19.56 3.55383 19.4 3.49383 19.18C3.43383 18.96 3.40383 18.74 3.40383 18.52C3.40383 18.3 3.43383 18.13 3.49383 18.01C3.27383 17.73 3.16383 17.4 3.16383 17.02C3.16383 16.68 3.26383 16.43 3.46383 16.27C3.30383 16.01 3.22383 15.68 3.22383 15.28C3.22383 14.88 3.29383 14.6 3.43383 14.44C3.29383 14.3 3.22383 14.07 3.22383 13.75C3.22383 13.37 3.32383 13.07 3.52383 12.85C3.22383 12.49 3.07383 12.1 3.07383 11.68C3.07383 11.24 3.20383 10.86 3.46383 10.54C3.30383 10.38 3.22383 10.11 3.22383 9.73C3.22383 9.31 3.29383 8.93 3.43383 8.59C3.39383 8.47 3.37383 8.3 3.37383 8.08C3.37383 7.58 3.62383 7.3 4.12383 7.24C4.38383 6.98 4.76383 6.85 5.26383 6.85C5.56383 6.85 5.80383 6.89 5.98383 6.97C6.12383 6.85 6.31383 6.76 6.55383 6.7C6.81383 6.62 7.06383 6.58 7.30383 6.58C7.62383 6.58 7.85383 6.63 7.99383 6.73C8.39383 6.53 8.87383 6.43 9.43383 6.43C9.85383 6.43 10.1838 6.51 10.4238 6.67C10.5838 6.61 10.7438 6.58 10.9038 6.58C11.1038 6.58 11.2738 6.62 11.4138 6.7C11.6138 6.56 11.8438 6.49 12.1038 6.49C12.2838 6.49 12.4538 6.53 12.6138 6.61C12.8738 6.45 13.2338 6.37 13.6938 6.37C13.9538 6.37 14.1538 6.4 14.2938 6.46Z" fill="#3EAD17"/>
<path d="M21.7207 26.59C21.8007 27.03 21.7107 27.38 21.4507 27.64C21.2107 27.88 20.9107 28 20.5507 28C20.2307 28 19.9507 27.9 19.7107 27.7C19.4707 27.48 19.3507 27.18 19.3507 26.8C19.3507 26.56 19.4107 26.29 19.5307 25.99C19.4107 25.71 19.3507 25.42 19.3507 25.12C19.3507 24.88 19.4007 24.68 19.5007 24.52C19.3807 24.44 19.2907 24.32 19.2307 24.16C19.1707 24 19.1407 23.82 19.1407 23.62C19.1407 23.42 19.1807 23.2 19.2607 22.96C19.0807 22.74 18.9907 22.48 18.9907 22.18C18.9907 21.8 19.1307 21.49 19.4107 21.25C19.3907 21.19 19.3807 21.09 19.3807 20.95C19.3807 20.75 19.4007 20.61 19.4407 20.53C19.2207 20.25 19.1107 19.85 19.1107 19.33C19.1107 18.97 19.1807 18.69 19.3207 18.49C19.1807 18.37 19.0607 18.21 18.9607 18.01C18.8607 17.79 18.8107 17.57 18.8107 17.35C18.8107 17.11 18.8807 16.88 19.0207 16.66C18.9207 16.42 18.8707 16.21 18.8707 16.03C18.8707 15.73 18.9607 15.45 19.1407 15.19C18.9007 14.95 18.7807 14.7 18.7807 14.44C18.7807 14.24 18.8507 13.97 18.9907 13.63C18.8507 13.35 18.7807 13.05 18.7807 12.73C18.7807 12.31 18.9307 12.05 19.2307 11.95C19.2507 11.67 19.3507 11.44 19.5307 11.26C19.7107 11.08 19.9307 10.99 20.1907 10.99C20.4907 10.99 20.7507 11.14 20.9707 11.44C21.2107 11.72 21.3307 12.13 21.3307 12.67C21.3307 12.89 21.3207 13.07 21.3007 13.21C21.3807 13.17 21.4607 13.11 21.5407 13.03C21.6207 12.93 21.7207 12.86 21.8407 12.82C21.9607 12.78 22.1407 12.76 22.3807 12.76C22.4207 12.66 22.5507 12.56 22.7707 12.46C23.0107 12.36 23.2407 12.31 23.4607 12.31C23.6207 12.31 23.7307 12.33 23.7907 12.37C23.9507 12.29 24.1107 12.25 24.2707 12.25C24.5107 12.25 24.7707 12.42 25.0507 12.76C25.5307 12.72 25.8807 12.83 26.1007 13.09C26.4207 13.07 26.7007 13.11 26.9407 13.21C27.1807 13.31 27.3707 13.52 27.5107 13.84C27.8907 14.08 28.0807 14.4 28.0807 14.8C28.0807 15.14 27.9307 15.46 27.6307 15.76C27.3507 16.04 27.0407 16.18 26.7007 16.18C26.3207 16.18 26.0007 15.98 25.7407 15.58C25.5207 15.58 25.3507 15.56 25.2307 15.52C25.1107 15.48 24.9907 15.39 24.8707 15.25C24.7507 15.29 24.6507 15.31 24.5707 15.31C24.3907 15.31 24.2007 15.26 24.0007 15.16C23.7207 15.34 23.4207 15.42 23.1007 15.4C22.9807 15.68 22.6707 15.82 22.1707 15.82C22.1907 15.88 22.2007 15.98 22.2007 16.12C22.2007 16.38 22.1407 16.64 22.0207 16.9C21.9207 17.14 21.7907 17.32 21.6307 17.44C21.7907 17.82 21.8707 18.2 21.8707 18.58C21.8707 18.92 21.7907 19.18 21.6307 19.36C21.6907 19.44 21.7507 19.54 21.8107 19.66C21.8907 19.78 21.9507 19.89 21.9907 19.99C22.0307 20.15 22.0507 20.27 22.0507 20.35C22.0507 20.49 22.0007 20.68 21.9007 20.92C22.0007 21.16 22.0507 21.34 22.0507 21.46C22.0507 21.62 21.9807 21.84 21.8407 22.12C21.9607 22.32 22.0207 22.54 22.0207 22.78C22.0207 23.06 21.9507 23.3 21.8107 23.5C21.9507 23.82 22.0207 24.15 22.0207 24.49C22.0207 24.75 21.9607 24.99 21.8407 25.21C21.9407 25.41 21.9907 25.61 21.9907 25.81C21.9907 26.09 21.9007 26.35 21.7207 26.59Z" fill="#FA4E28"/>
<path d="M37.0934 27.64C36.8534 27.88 36.4834 28 35.9834 28C35.6034 28 35.2934 27.94 35.0534 27.82C34.6934 27.9 34.3734 27.94 34.0934 27.94C33.3134 27.94 32.7534 27.74 32.4134 27.34C32.3334 27.36 32.2234 27.37 32.0834 27.37C31.6234 27.37 31.2734 27.16 31.0334 26.74C30.8334 26.76 30.5734 26.66 30.2534 26.44C29.9534 26.2 29.8234 25.97 29.8634 25.75C29.5434 25.67 29.2734 25.48 29.0534 25.18C28.8534 24.86 28.7634 24.5 28.7834 24.1C28.5634 24.02 28.3934 23.86 28.2734 23.62C28.1534 23.38 28.0934 23.11 28.0934 22.81C28.0934 22.49 28.1434 22.26 28.2434 22.12C28.0234 21.78 27.9134 21.39 27.9134 20.95C27.9134 20.49 28.0534 20.12 28.3334 19.84C28.1134 19.68 28.0034 19.44 28.0034 19.12C28.0034 18.92 28.0534 18.72 28.1534 18.52C28.2534 18.32 28.3834 18.18 28.5434 18.1C28.5034 17.82 28.5334 17.56 28.6334 17.32C28.7534 17.06 28.9134 16.87 29.1134 16.75C29.0734 16.69 29.0534 16.6 29.0534 16.48C29.0534 16.3 29.1134 16.12 29.2334 15.94C29.3734 15.76 29.5234 15.65 29.6834 15.61C29.6634 15.55 29.6534 15.47 29.6534 15.37C29.6534 14.95 29.8134 14.59 30.1334 14.29C30.4534 13.97 30.7634 13.83 31.0634 13.87C31.0634 13.59 31.1834 13.36 31.4234 13.18C31.6834 12.98 32.0134 12.88 32.4134 12.88C32.5934 12.88 32.7334 12.89 32.8334 12.91C32.9734 12.61 33.2134 12.37 33.5534 12.19C33.8934 11.99 34.2434 11.89 34.6034 11.89C34.8434 11.89 35.0434 11.94 35.2034 12.04C35.4834 11.8 35.8334 11.68 36.2534 11.68C36.5934 11.68 36.8934 11.76 37.1534 11.92C37.4334 12.08 37.6034 12.3 37.6634 12.58C37.9834 12.58 38.3234 12.7 38.6834 12.94C39.0434 13.16 39.2534 13.39 39.3134 13.63C39.7934 13.77 40.2534 14.08 40.6934 14.56C41.1534 15.02 41.3834 15.49 41.3834 15.97C41.3834 16.05 41.3634 16.17 41.3234 16.33C42.1834 16.51 42.5734 17.38 42.4934 18.94C42.6734 19.24 42.7634 19.56 42.7634 19.9C42.7634 20.3 42.6334 20.7 42.3734 21.1C42.4334 21.28 42.4634 21.45 42.4634 21.61C42.4634 21.85 42.4134 22.08 42.3134 22.3C42.2134 22.52 42.0834 22.69 41.9234 22.81C41.9434 23.13 41.8834 23.39 41.7434 23.59C41.6234 23.79 41.3934 24.06 41.0534 24.4C41.0734 24.48 41.0834 24.6 41.0834 24.76C41.0834 25.36 40.7434 25.75 40.0634 25.93C40.0034 26.25 39.8334 26.51 39.5534 26.71C39.2934 26.91 38.9734 27.01 38.5934 27.01C38.2734 27.45 37.8834 27.67 37.4234 27.67C37.2834 27.67 37.1734 27.66 37.0934 27.64ZM34.2734 25.54C34.4334 25.4 34.7034 25.33 35.0834 25.33C35.3634 25.33 35.5134 25.37 35.5334 25.45C35.6934 25.27 35.8934 25.13 36.1334 25.03C36.3734 24.93 36.5934 24.89 36.7934 24.91C37.1334 24.57 37.5034 24.4 37.9034 24.4C38.0434 24.4 38.1434 24.41 38.2034 24.43C38.1834 24.25 38.2334 24.08 38.3534 23.92C38.4734 23.74 38.6134 23.62 38.7734 23.56C38.7734 23.3 38.8334 23.08 38.9534 22.9C39.0934 22.7 39.2634 22.55 39.4634 22.45C39.4634 22.05 39.5434 21.73 39.7034 21.49C39.6434 21.33 39.6134 21.17 39.6134 21.01C39.6134 20.79 39.6634 20.58 39.7634 20.38C39.8634 20.16 40.0034 19.98 40.1834 19.84C39.9834 19.66 39.8834 19.44 39.8834 19.18C39.8834 18.94 39.9534 18.7 40.0934 18.46C39.6934 18.22 39.4234 17.99 39.2834 17.77C39.1634 17.53 39.1034 17.1 39.1034 16.48C38.9234 16.5 38.7334 16.4 38.5334 16.18C38.3534 15.96 38.2434 15.71 38.2034 15.43C37.9834 15.49 37.7134 15.43 37.3934 15.25C37.0934 15.05 36.9434 14.8 36.9434 14.5C36.7834 14.58 36.5934 14.62 36.3734 14.62C35.9534 14.62 35.6134 14.47 35.3534 14.17C35.1334 14.39 34.8434 14.57 34.4834 14.71C34.1434 14.83 33.8434 14.87 33.5834 14.83C33.5634 15.03 33.3834 15.27 33.0434 15.55C32.7234 15.81 32.4334 15.98 32.1734 16.06C32.2334 16.18 32.2634 16.32 32.2634 16.48C32.2634 16.68 32.2134 16.88 32.1134 17.08C32.0134 17.28 31.8734 17.45 31.6934 17.59C31.7134 17.87 31.6434 18.14 31.4834 18.4C31.3434 18.66 31.1434 18.84 30.8834 18.94C30.9234 19.1 30.9434 19.23 30.9434 19.33C30.9434 19.61 30.8734 19.83 30.7334 19.99C30.7934 20.13 30.8234 20.27 30.8234 20.41C30.8234 20.63 30.7134 20.87 30.4934 21.13C30.9934 21.47 31.2434 21.96 31.2434 22.6C31.2434 22.94 31.1834 23.23 31.0634 23.47C31.2634 23.49 31.4034 23.55 31.4834 23.65C31.5634 23.75 31.6334 23.91 31.6934 24.13C32.1934 24.19 32.5634 24.43 32.8034 24.85C33.0234 24.85 33.2934 24.92 33.6134 25.06C33.9534 25.2 34.1734 25.36 34.2734 25.54Z" fill="#FFA800"/>
<path d="M57.6166 25.93C57.6766 26.13 57.7066 26.34 57.7066 26.56C57.7066 26.98 57.5566 27.32 57.2566 27.58C56.9766 27.82 56.6466 27.94 56.2666 27.94C55.8866 27.94 55.5666 27.82 55.3066 27.58C55.0466 27.34 54.9166 26.99 54.9166 26.53C54.9166 26.23 54.9666 25.94 55.0666 25.66C54.8466 25.4 54.6966 25.2 54.6166 25.06C54.5366 24.9 54.4966 24.74 54.4966 24.58C54.4966 24.44 54.5466 24.2 54.6466 23.86C54.4266 23.62 54.3166 23.28 54.3166 22.84C54.3166 22.38 54.4166 22.01 54.6166 21.73C54.5366 21.53 54.4566 21.32 54.3766 21.1C54.3166 20.86 54.2866 20.63 54.2866 20.41C54.2866 19.99 54.4066 19.57 54.6466 19.15C54.4066 18.47 54.2866 17.97 54.2866 17.65C54.2866 17.45 54.3066 17.3 54.3466 17.2C54.0666 17.04 53.8166 16.84 53.5966 16.6C53.3766 16.34 53.2666 16.07 53.2666 15.79C53.0866 15.73 52.9466 15.65 52.8466 15.55C52.7666 15.43 52.6766 15.29 52.5766 15.13C52.1166 15.13 51.7566 15.08 51.4966 14.98C51.4366 15.14 51.1966 15.28 50.7766 15.4C50.3766 15.52 50.0566 15.56 49.8166 15.52C49.7566 15.82 49.5666 16.08 49.2466 16.3C48.9466 16.5 48.6366 16.59 48.3166 16.57C48.3566 16.63 48.3766 16.73 48.3766 16.87C48.3766 17.17 48.2666 17.51 48.0466 17.89C47.8466 18.27 47.6666 18.53 47.5066 18.67C47.7466 19.11 47.8666 19.54 47.8666 19.96C47.8666 20.3 47.7766 20.59 47.5966 20.83C47.8566 20.95 47.9866 21.18 47.9866 21.52C47.9866 21.72 47.9266 21.9 47.8066 22.06C48.0866 22.28 48.2266 22.72 48.2266 23.38C48.2266 23.8 48.1766 24.09 48.0766 24.25C48.3366 24.57 48.4666 24.93 48.4666 25.33C48.4666 25.75 48.3166 26.13 48.0166 26.47C48.0366 26.95 47.9266 27.32 47.6866 27.58C47.4666 27.84 47.1866 27.97 46.8466 27.97C46.5466 27.97 46.2766 27.86 46.0366 27.64C45.8166 27.4 45.7066 27.09 45.7066 26.71C45.7066 26.55 45.7166 26.43 45.7366 26.35C45.3566 26.11 45.1666 25.55 45.1666 24.67C45.1666 24.07 45.2566 23.59 45.4366 23.23C45.3366 23.05 45.2366 22.73 45.1366 22.27C45.0566 21.79 45.0166 21.35 45.0166 20.95C45.0166 20.59 45.0566 20.33 45.1366 20.17C44.8766 19.71 44.7466 19.18 44.7466 18.58C44.7466 17.96 44.8666 17.41 45.1066 16.93C44.7266 16.35 44.5366 15.79 44.5366 15.25C44.5366 14.93 44.6166 14.58 44.7766 14.2C44.4966 13.9 44.3566 13.58 44.3566 13.24C44.3566 12.9 44.4966 12.61 44.7766 12.37C45.0766 12.13 45.4166 12.01 45.7966 12.01C46.1366 12.01 46.4366 12.13 46.6966 12.37C46.9566 12.61 47.1066 12.98 47.1466 13.48C47.2466 13.62 47.3366 13.91 47.4166 14.35C47.4966 14.77 47.5266 15.08 47.5066 15.28C47.6066 14.88 47.7966 14.49 48.0766 14.11C48.4966 13.65 48.9266 13.41 49.3666 13.39C49.5066 13.11 49.7566 12.89 50.1166 12.73C50.4766 12.55 50.8666 12.46 51.2866 12.46C51.5066 12.46 51.6666 12.47 51.7666 12.49C51.9266 12.45 52.0366 12.43 52.0966 12.43C52.3566 12.43 52.5766 12.55 52.7566 12.79C52.8966 12.69 53.0766 12.64 53.2966 12.64C53.4966 12.64 53.6766 12.67 53.8366 12.73C54.0166 12.79 54.1466 12.88 54.2266 13C54.6866 13.02 54.9366 13.26 54.9766 13.72C55.2566 13.86 55.3966 14.02 55.3966 14.2C55.3966 14.3 55.3666 14.43 55.3066 14.59C55.5066 14.57 55.6566 14.64 55.7566 14.8C55.8566 14.96 55.9466 15.19 56.0266 15.49C56.0666 15.15 56.1766 14.9 56.3566 14.74C56.5366 14.58 56.7466 14.5 56.9866 14.5C57.0866 14.5 57.2166 14.52 57.3766 14.56C57.4766 14.28 57.6166 14.06 57.7966 13.9C57.9766 13.72 58.1766 13.63 58.3966 13.63C58.4566 13.63 58.5666 13.65 58.7266 13.69C58.8266 13.41 58.9966 13.19 59.2366 13.03C59.4766 12.87 59.7366 12.79 60.0166 12.79C60.1766 12.79 60.3466 12.82 60.5266 12.88C61.0266 12.52 61.5466 12.34 62.0866 12.34C62.6866 12.34 63.1966 12.53 63.6166 12.91C63.7366 12.87 63.8466 12.85 63.9466 12.85C64.3466 12.85 64.7466 12.99 65.1466 13.27C65.5666 13.53 65.7666 13.84 65.7466 14.2C65.8666 14.14 65.9866 14.11 66.1066 14.11C66.4266 14.11 66.7366 14.24 67.0366 14.5C67.3366 14.76 67.4866 15.05 67.4866 15.37C67.4866 15.51 67.4466 15.65 67.3666 15.79C67.5666 15.85 67.7066 16.01 67.7866 16.27C67.8866 16.51 67.9366 16.79 67.9366 17.11C67.9366 17.33 67.9166 17.53 67.8766 17.71C67.8366 17.87 67.7766 17.97 67.6966 18.01C67.9366 18.15 68.0566 18.37 68.0566 18.67C68.0566 18.93 67.9566 19.17 67.7566 19.39C67.8966 19.59 67.9666 19.82 67.9666 20.08C67.9666 20.5 67.8066 20.85 67.4866 21.13C67.7266 21.39 67.8466 21.7 67.8466 22.06C67.8466 22.34 67.7666 22.59 67.6066 22.81C67.6666 22.99 67.6966 23.16 67.6966 23.32C67.6966 23.58 67.6366 23.84 67.5166 24.1C67.3966 24.36 67.3166 24.52 67.2766 24.58C67.4166 24.78 67.4866 25.02 67.4866 25.3C67.4866 25.74 67.3266 26.09 67.0066 26.35C67.0266 26.41 67.0366 26.51 67.0366 26.65C67.0366 27.03 66.8966 27.33 66.6166 27.55C66.3566 27.77 66.0366 27.88 65.6566 27.88C65.2566 27.88 64.9166 27.76 64.6366 27.52C64.3766 27.26 64.2666 26.91 64.3066 26.47C64.2266 26.23 64.1866 26.04 64.1866 25.9C64.1866 25.56 64.3166 25.24 64.5766 24.94C64.5366 24.84 64.5166 24.67 64.5166 24.43C64.5166 24.13 64.5766 23.85 64.6966 23.59C64.6566 23.47 64.6366 23.38 64.6366 23.32C64.6366 23.16 64.6766 22.98 64.7566 22.78C64.8566 22.58 64.9166 22.46 64.9366 22.42C64.8166 22.18 64.7566 21.93 64.7566 21.67C64.7566 21.35 64.8466 21.12 65.0266 20.98C64.8866 20.84 64.8166 20.67 64.8166 20.47C64.8166 20.25 64.9066 19.99 65.0866 19.69C64.8866 19.49 64.7866 19.22 64.7866 18.88C64.7866 18.54 64.8866 18.24 65.0866 17.98C64.9666 17.88 64.9066 17.63 64.9066 17.23C64.9066 16.91 64.9266 16.61 64.9666 16.33C64.7866 16.35 64.6066 16.28 64.4266 16.12C64.2466 15.94 64.1566 15.75 64.1566 15.55C64.0166 15.59 63.7566 15.54 63.3766 15.4C63.0166 15.24 62.8266 15.1 62.8066 14.98C62.7466 15 62.6666 15.01 62.5666 15.01C62.4066 15.01 62.1666 14.95 61.8466 14.83C61.4666 15.23 61.0266 15.39 60.5266 15.31C60.3466 15.49 60.1066 15.66 59.8066 15.82C59.5066 15.98 59.2266 16.07 58.9666 16.09C58.9266 16.27 58.8566 16.39 58.7566 16.45C58.6766 16.51 58.5666 16.56 58.4266 16.6C58.2866 16.62 58.1766 16.64 58.0966 16.66C58.0966 17 57.9366 17.22 57.6166 17.32C57.6966 17.54 57.7366 17.75 57.7366 17.95C57.7366 18.11 57.7066 18.32 57.6466 18.58C57.5866 18.84 57.5366 19.05 57.4966 19.21C57.5166 19.27 57.5266 19.37 57.5266 19.51C57.5266 19.73 57.4466 19.96 57.2866 20.2C57.3266 20.36 57.3466 20.49 57.3466 20.59C57.3466 20.73 57.3066 20.92 57.2266 21.16C57.3866 21.52 57.4666 21.83 57.4666 22.09C57.4666 22.33 57.4266 22.57 57.3466 22.81C57.5466 23.07 57.6466 23.46 57.6466 23.98C57.6466 24.22 57.6166 24.43 57.5566 24.61C57.7566 24.81 57.8566 25.06 57.8566 25.36C57.8566 25.6 57.7766 25.79 57.6166 25.93Z" fill="#40A8E2"/>
<path d="M72.4275 25.12C72.5675 25.14 72.6875 25.24 72.7875 25.42C72.8875 25.6 72.9375 25.81 72.9375 26.05C72.9375 26.27 72.8975 26.46 72.8175 26.62C72.8975 26.96 72.7775 27.26 72.4575 27.52C72.1375 27.76 71.7775 27.88 71.3775 27.88C71.0575 27.88 70.7675 27.78 70.5075 27.58C70.2675 27.36 70.1275 27.04 70.0875 26.62C69.9275 26.42 69.8475 26.22 69.8475 26.02C69.8475 25.68 69.9875 25.37 70.2675 25.09C70.5675 24.79 70.9175 24.64 71.3175 24.64C71.6775 24.64 72.0475 24.8 72.4275 25.12Z" fill="#4D2E27"/>
</svg>
